<svg width="24" height="24" viewBox="0 0 24 24" fill="none" xmlns="http://www.w3.org/2000/svg">
<g id="fluent:collections-add-20-regular">
<path id="Vector" d="M18.5999 15.6001C19.3616 15.6005 20.095 15.3112 20.6512 14.7909C21.2074 14.2705 21.5449 13.5581 21.5951 12.798L21.6011 12.6013V11.6929C21.231 11.9985 20.8286 12.2629 20.4011 12.4813V12.6013C20.4011 13.0487 20.2344 13.4801 19.9336 13.8114C19.6328 14.1426 19.2193 14.3499 18.774 14.3929L18.6012 14.4013H11.4011C10.9537 14.4012 10.5223 14.2345 10.191 13.9337C9.85981 13.6329 9.65251 13.2194 9.60955 12.7741L9.60115 12.6013V5.40125C9.60117 4.95379 9.76785 4.52238 10.0687 4.19115C10.3695 3.85991 10.783 3.65261 11.2283 3.60965L11.4011 3.60125H11.5211C11.7411 3.17085 12.0039 2.77085 12.3095 2.40125H11.4011C10.6395 2.40113 9.9063 2.69073 9.35029 3.2113C8.79429 3.73186 8.45711 4.44443 8.40715 5.20445L8.40115 5.40125V12.6013C8.40103 13.3629 8.69063 14.0961 9.2112 14.6521C9.73176 15.2081 10.4443 15.5453 11.2043 15.5953L11.3999 15.6001H18.5999ZM15.1955 19.5673L15.2531 19.3777L15.9431 16.8013H14.6999L14.0939 19.0681C13.9781 19.5002 13.7054 19.8737 13.3292 20.1157C12.9529 20.3577 12.5 20.451 12.0587 20.3773L11.8895 20.3413L4.93435 18.4765C4.50247 18.3606 4.12917 18.0881 3.88716 17.7121C3.64515 17.3361 3.55175 16.8835 3.62515 16.4425L3.66115 16.2721L5.52595 9.31805C5.6256 8.94596 5.84199 8.61564 6.14331 8.37566C6.44463 8.13569 6.81499 7.9987 7.19995 7.98485V6.78485C6.58702 6.79774 5.99276 6.99811 5.49716 7.35898C5.00155 7.71984 4.62841 8.22389 4.42795 8.80325L4.36555 9.00725L2.50195 15.9613C2.30452 16.6969 2.39431 17.4801 2.75309 18.152C3.11187 18.8239 3.71279 19.3341 4.43395 19.5793L4.62355 19.6357L11.5775 21.4993C12.2806 21.6877 13.0282 21.6142 13.681 21.2923C14.3339 20.9704 14.8474 20.4221 15.1259 19.7497L15.1955 19.5673ZM22.8011 6.60005C22.8011 5.89091 22.6615 5.18872 22.3901 4.53356C22.1187 3.8784 21.721 3.28311 21.2195 2.78167C20.7181 2.28024 20.1228 1.88247 19.4676 1.6111C18.8125 1.33973 18.1103 1.20005 17.4011 1.20005C16.692 1.20005 15.9898 1.33973 15.3347 1.6111C14.6795 1.88247 14.0842 2.28024 13.5828 2.78167C13.0813 3.28311 12.6836 3.8784 12.4122 4.53356C12.1408 5.18872 12.0011 5.89091 12.0011 6.60005C12.0011 8.03222 12.5701 9.40573 13.5828 10.4184C14.5955 11.4311 15.969 12.0001 17.4011 12.0001C18.8333 12.0001 20.2068 11.4311 21.2195 10.4184C22.2322 9.40573 22.8011 8.03222 22.8011 6.60005ZM18.0011 9.00005C18.0011 9.15918 17.9379 9.31179 17.8254 9.42431C17.7129 9.53684 17.5603 9.60005 17.4011 9.60005C17.242 9.60005 17.0894 9.53684 16.9769 9.42431C16.8644 9.31179 16.8011 9.15918 16.8011 9.00005V7.20005H15.0011C14.842 7.20005 14.6894 7.13684 14.5769 7.02431C14.4644 6.91179 14.4011 6.75918 14.4011 6.60005C14.4011 6.44092 14.4644 6.28831 14.5769 6.17579C14.6894 6.06326 14.842 6.00005 15.0011 6.00005H16.8011V4.20005C16.8011 4.04092 16.8644 3.88831 16.9769 3.77579C17.0894 3.66326 17.242 3.60005 17.4011 3.60005C17.5603 3.60005 17.7129 3.66326 17.8254 3.77579C17.9379 3.88831 18.0011 4.04092 18.0011 4.20005V6.00005H19.8011C19.9603 6.00005 20.1129 6.06326 20.2254 6.17579C20.3379 6.28831 20.4011 6.44092 20.4011 6.60005C20.4011 6.75918 20.3379 6.91179 20.2254 7.02431C20.1129 7.13684 19.9603 7.20005 19.8011 7.20005H18.0011V9.00005Z" fill="white"/>
</g>
</svg>
