<svg xmlns="http://www.w3.org/2000/svg" width="24" height="24" viewBox="0 0 24 24" fill="none">
  <path d="M13 4H22M13 8H22M2 12H22M13 20H22M13 16H22M8 8.5L6.714 5.5M6.714 5.5L5.586 2.868C5.56733 2.81967 5.54493 2.77286 5.519 2.728C5.4796 2.66777 5.42767 2.61676 5.36675 2.57844C5.30583 2.54013 5.23735 2.51542 5.166 2.506C5.128 2.5 5.086 2.5 5 2.5C4.915 2.5 4.872 2.5 4.834 2.506C4.76273 2.5153 4.69431 2.53986 4.63339 2.578C4.57248 2.61613 4.5205 2.66696 4.481 2.727C4.45507 2.77186 4.43267 2.81867 4.414 2.867L3.286 5.5M6.714 5.5H3.286M3.286 5.5L2 8.5M8 21.5L6.714 18.5M6.714 18.5L5.586 15.868C5.55952 15.773 5.50551 15.6879 5.43078 15.6234C5.35604 15.559 5.26391 15.5182 5.166 15.506C5.128 15.5 5.086 15.5 5 15.5C4.915 15.5 4.872 15.5 4.834 15.506C4.73609 15.5182 4.64396 15.559 4.56922 15.6234C4.49449 15.6879 4.44048 15.773 4.414 15.868L3.286 18.5M6.714 18.5H3.286M3.286 18.5L2 21.5" stroke="#5C99F4" stroke-width="1.5" stroke-linecap="round" stroke-linejoin="round"/>
</svg>