<svg width="24" height="24" viewBox="0 0 24 24" fill="none" xmlns="http://www.w3.org/2000/svg">
<path d="M12.7777 15.1242V9.32029M9.87577 12.2223H15.6797M12.7777 20.4445C17.3187 20.4445 21 16.7633 21 12.2223C21 7.68124 17.3187 4 12.7777 4C8.23672 4 4.55548 7.68124 4.55548 12.2223C4.55548 13.1412 4.70624 14.025 4.98437 14.8501C5.08903 15.1606 5.14136 15.3159 5.1508 15.4351C5.16013 15.553 5.15308 15.6356 5.12394 15.75C5.09443 15.866 5.02928 15.9866 4.89898 16.2278L3.31676 19.1564C3.09108 19.5741 2.97823 19.783 3.00348 19.9442C3.02548 20.0846 3.10812 20.2082 3.22945 20.2822C3.36875 20.3672 3.60489 20.3428 4.07719 20.294L9.03088 19.7819C9.18089 19.7664 9.2559 19.7587 9.32427 19.7613C9.39151 19.7638 9.43898 19.7702 9.50455 19.7853C9.57122 19.8007 9.65506 19.833 9.82272 19.8975C10.7398 20.2509 11.7361 20.4445 12.7777 20.4445Z" stroke="#5C99F4" stroke-width="2" stroke-linecap="round" stroke-linejoin="round"/>
</svg>
