<svg width="16" height="16" viewBox="0 0 16 16" fill="none" xmlns="http://www.w3.org/2000/svg">
<path d="M9.39309 13.7051C12.0779 13.5274 14.216 11.3585 14.3918 8.63582C14.4258 8.10323 14.4258 7.55138 14.3918 7.01878C14.216 4.29676 12.0779 2.12916 9.39309 1.95013C8.4658 1.88902 7.53548 1.88902 6.60819 1.95013C3.92339 2.12852 1.7853 4.29676 1.60948 7.01942C1.57549 7.5579 1.57549 8.09799 1.60948 8.63647C1.67365 9.62787 2.11192 10.5461 2.62847 11.3213C2.92814 11.8635 2.7305 12.5405 2.418 13.1327C2.19341 13.5595 2.08047 13.7725 2.17095 13.9265C2.26079 14.0805 2.46292 14.0856 2.86654 14.0953C3.66543 14.1145 4.2038 13.8886 4.63116 13.5736C4.87308 13.3945 4.99436 13.3053 5.07777 13.2951C5.16119 13.2848 5.32611 13.3528 5.65465 13.4876C5.94982 13.6095 6.29312 13.6846 6.60755 13.7058C7.52194 13.7661 8.47741 13.7661 9.39373 13.7058" stroke="white" stroke-width="0.962524" stroke-linecap="round" stroke-linejoin="round"/>
<path d="M5.11133 9.92627L6.29331 6.38033C6.32298 6.29184 6.3797 6.2149 6.45547 6.1604C6.53123 6.10589 6.6222 6.07657 6.71554 6.07657C6.80887 6.07657 6.89984 6.10589 6.97561 6.1604C7.05137 6.2149 7.10809 6.29184 7.13776 6.38033L8.31974 9.92627M10.2448 6.07617V9.92627M5.75301 8.6429H7.67806" stroke="white" stroke-width="0.962524" stroke-linecap="round" stroke-linejoin="round"/>
</svg>
