<svg width="17" height="16" viewBox="0 0 17 16" fill="none" xmlns="http://www.w3.org/2000/svg">
<path d="M6.08292 10.6862C6.19562 10.7658 6.32461 10.8193 6.46054 10.8429C6.59648 10.8665 6.73595 10.8595 6.86887 10.8226C7.00178 10.7856 7.12481 10.7195 7.22904 10.6291C7.33327 10.5387 7.41609 10.4263 7.4715 10.2999L7.9115 8.9628C8.01851 8.6411 8.19898 8.34874 8.43862 8.10891C8.67825 7.86908 8.97045 7.68836 9.29207 7.58109L10.5709 7.16566C10.7527 7.10242 10.9099 6.98344 11.0201 6.82566C11.1052 6.70604 11.1606 6.5679 11.1818 6.42264C11.2029 6.27738 11.1893 6.12916 11.1419 5.99023C11.0945 5.85129 11.0147 5.72562 10.9092 5.62358C10.8037 5.52154 10.6754 5.44606 10.5349 5.40337L9.26921 4.99194C8.94742 4.8852 8.65492 4.70497 8.41489 4.46553C8.17486 4.2261 7.9939 3.93404 7.88635 3.61251L7.47093 2.33423C7.40705 2.15312 7.28843 1.99635 7.1315 1.88566C6.97363 1.7768 6.7864 1.71851 6.59464 1.71851C6.40288 1.71851 6.21565 1.7768 6.05778 1.88566C5.89842 1.99835 5.77849 2.15826 5.71492 2.3428L5.29435 3.63709C5.18707 3.95026 5.00995 4.23494 4.77641 4.46956C4.54287 4.70419 4.25903 4.88263 3.94635 4.99137L2.66635 5.40623C2.48421 5.47061 2.32667 5.59017 2.21565 5.74826C2.10462 5.90635 2.04564 6.09512 2.04689 6.2883C2.04815 6.48148 2.10959 6.66946 2.22266 6.82609C2.33574 6.98273 2.49482 7.10022 2.67778 7.16223L3.94407 7.57366C4.35461 7.71143 4.71551 7.96701 4.98178 8.30852C5.13378 8.50452 5.25092 8.72452 5.32807 8.95994L5.74407 10.2365C5.80807 10.4182 5.92692 10.5754 6.08407 10.6862M4.21378 6.7588L2.94521 6.34737C2.94521 6.34737 2.89664 6.32566 2.89664 6.28566C2.89803 6.27141 2.90322 6.2578 2.91166 6.24624C2.9201 6.23468 2.93149 6.2256 2.94464 6.21994L4.22007 5.80566C4.66328 5.65169 5.06501 5.39758 5.39404 5.0631C5.72307 4.72862 5.97054 4.32276 6.11721 3.87709L6.52921 2.60909C6.52921 2.60909 6.55378 2.56109 6.59435 2.56109C6.63492 2.56109 6.65893 2.60909 6.65893 2.60909L7.07207 3.87937C7.22146 4.32863 7.47372 4.73679 7.80875 5.07132C8.14377 5.40585 8.5523 5.6575 9.00178 5.80623L10.2989 6.22623C10.3114 6.23163 10.3221 6.24034 10.33 6.25143C10.3379 6.26251 10.3425 6.27553 10.3435 6.28909C10.3414 6.3029 10.3361 6.316 10.3278 6.32725C10.3195 6.33851 10.3086 6.34757 10.2961 6.35366L9.02464 6.76623C8.57535 6.9153 8.16709 7.16723 7.83236 7.50195C7.49764 7.83668 7.24571 8.24494 7.09664 8.69423L6.68807 9.95137C6.68568 9.96681 6.67762 9.98081 6.66548 9.99064C6.65333 10.0005 6.63795 10.0054 6.62235 10.0045C6.56292 10.0045 6.55492 9.96166 6.55492 9.96166L6.14178 8.69309C5.99343 8.24252 5.7417 7.83291 5.40672 7.49704C5.07175 7.16117 4.66281 6.90835 4.21264 6.7588M11.6509 14.1611C11.7674 14.2429 11.9064 14.2864 12.0486 14.2857C12.19 14.2863 12.3281 14.2432 12.4441 14.1622C12.5634 14.078 12.6526 13.9579 12.6989 13.8194L12.9115 13.1662C12.9565 13.0306 13.0324 12.9074 13.1333 12.8062C13.2341 12.705 13.3572 12.6287 13.4926 12.5834L14.1589 12.3674C14.2935 12.3198 14.4101 12.2318 14.4926 12.1154C14.5752 11.999 14.6197 11.8598 14.6201 11.7171C14.6201 11.5708 14.5733 11.4283 14.4865 11.3104C14.3997 11.1926 14.2775 11.1056 14.1378 11.0622L13.4841 10.8508C13.3484 10.8058 13.2251 10.7298 13.1239 10.6288C13.0227 10.5278 12.9465 10.4047 12.9012 10.2691L12.6841 9.60452C12.6372 9.46888 12.549 9.35135 12.4319 9.26848C12.3147 9.18562 12.1746 9.14159 12.0311 9.1426C11.8876 9.14361 11.748 9.1896 11.6321 9.27411C11.5161 9.35862 11.4296 9.47738 11.3846 9.61366L11.1709 10.2685C11.1271 10.4023 11.0532 10.5243 10.9548 10.6251C10.8564 10.7259 10.7362 10.8027 10.6035 10.8497L9.93721 11.0657C9.80253 11.1132 9.68589 11.2013 9.60332 11.3179C9.52075 11.4344 9.47629 11.5737 9.47607 11.7165C9.47622 11.8606 9.52173 12.0009 9.60615 12.1176C9.69056 12.2344 9.80959 12.3215 9.94635 12.3668L10.6001 12.5794C10.7363 12.6243 10.86 12.7006 10.9612 12.8021C11.0625 12.9037 11.1384 13.0276 11.1829 13.1639L11.3995 13.8285C11.4468 13.9628 11.5346 14.079 11.6509 14.1611ZM10.8675 11.7645L10.7132 11.7142L10.8749 11.6594C11.1343 11.5695 11.3695 11.421 11.5621 11.2253C11.7547 11.0297 11.8995 10.7922 11.9852 10.5314L12.0355 10.3771L12.0864 10.5325C12.1734 10.7955 12.3207 11.0346 12.5166 11.2305C12.7124 11.4265 12.9514 11.5739 13.2144 11.6611L13.3818 11.7182L13.2269 11.7679C12.964 11.8556 12.7252 12.0034 12.5294 12.1995C12.3336 12.3956 12.1862 12.6346 12.0989 12.8977L12.0486 13.0519L11.9984 12.8965C11.911 12.6328 11.7631 12.3932 11.5667 12.1967C11.3703 12.0003 11.1306 11.8525 10.8669 11.7651" fill="currentColor" fill-opacity="0.5"/>
</svg>
