<svg xmlns="http://www.w3.org/2000/svg" width="24" height="25" viewBox="0 0 24 25" fill="none">
<path d="M17.5 17.6699L22 22.1699M20 11.1699C20 8.78297 19.0518 6.49379 17.364 4.80596C15.6761 3.11813 13.3869 2.16992 11 2.16992C8.61305 2.16992 6.32387 3.11813 4.63604 4.80596C2.94821 6.49379 2 8.78297 2 11.1699C2 13.5569 2.94821 15.8461 4.63604 17.5339C6.32387 19.2217 8.61305 20.1699 11 20.1699C13.3869 20.1699 15.6761 19.2217 17.364 17.5339C19.0518 15.8461 20 13.5569 20 11.1699Z" stroke="#5C99F4" stroke-width="1.5" stroke-linecap="round" stroke-linejoin="round"/>
<path d="M6.5 14.1699L8.342 8.64392C8.38824 8.50602 8.47664 8.38612 8.59471 8.30118C8.71278 8.21624 8.85455 8.17054 9 8.17054C9.14545 8.17054 9.28722 8.21624 9.40529 8.30118C9.52336 8.38612 9.61176 8.50602 9.658 8.64392L11.5 14.1699M14.5 8.16992V14.1699M7.5 12.1699H10.5" stroke="#5C99F4" stroke-width="1.5" stroke-linecap="round" stroke-linejoin="round"/>
</svg>