<svg xmlns="http://www.w3.org/2000/svg" width="320" height="93" viewBox="0 0 320 93" fill="none">
<path d="M153.716 89.1699V80.5699M166.629 89.1699V80.5699M142.954 69.82H134.345M142.954 56.9201H134.345M186 69.82H177.391M186 56.9201H177.391M160.173 16.0702C162.178 16.0702 163.181 16.0702 163.973 15.7391C165.027 15.3037 165.864 14.4686 166.302 13.4171C166.629 12.6259 166.629 11.624 166.629 9.62025C166.629 7.61646 166.629 6.61456 166.298 5.82337C165.862 4.77105 165.026 3.93443 163.973 3.49708C163.181 3.17028 162.178 3.17027 160.173 3.17027C158.167 3.17027 157.164 3.17028 156.372 3.49708C155.318 3.93248 154.481 4.77185 154.043 5.82337C153.716 6.61456 153.716 7.61646 153.716 9.62025C153.716 11.624 153.716 12.6259 154.047 13.4171C154.483 14.4695 155.319 15.3061 156.372 15.7434C157.164 16.0702 158.167 16.0702 160.173 16.0702ZM160.173 16.0702V46.1701M10.1986 15.7356C10.1986 21.7727 10.1986 24.7956 11.6493 26.9628C12.2775 27.9022 13.085 28.7088 14.0254 29.3364C16.1949 30.7855 19.221 30.7855 25.2647 30.7855L294.477 31.1166C300.521 31.1166 303.547 31.1166 305.716 29.6675C306.655 29.0397 307.464 28.2313 308.092 27.2939C309.543 25.1267 309.543 22.1039 309.543 16.0667M309.543 16.0667C311.549 16.0667 312.552 16.0667 313.344 15.7356C314.398 15.3002 315.235 14.4651 315.673 13.4136C316 12.6224 316 11.6205 316 9.6167C316 7.61291 316 6.611 315.669 5.81981C315.233 4.76749 314.397 3.93086 313.344 3.49351C312.552 3.16672 311.549 3.16672 309.543 3.16672C307.537 3.16672 306.534 3.16672 305.742 3.49351C304.689 3.92892 303.851 4.76829 303.413 5.81981C303.086 6.611 303.086 7.61291 303.086 9.6167C303.086 11.6205 303.086 12.6224 303.418 13.4136C303.854 14.4659 304.69 15.3025 305.742 15.7399C306.534 16.0667 307.537 16.0667 309.543 16.0667ZM309.801 15.7349C309.801 21.772 309.801 24.7949 308.351 26.9621C307.722 27.9015 306.915 28.7081 305.975 29.3357C303.805 30.7848 300.779 30.7848 294.735 30.7848L25.5229 31.1159C19.4793 31.1159 16.4531 31.1159 14.2836 29.6668C13.3452 29.039 12.536 28.2306 11.9075 27.2932C10.4569 25.126 10.4569 22.1032 10.4569 16.066M10.4569 16.066C8.45093 16.066 7.44797 16.066 6.65592 15.7349C5.60248 15.2995 4.76498 14.4644 4.32716 13.4129C4.00001 12.6217 4 11.6198 4 9.616C4 7.61221 4 6.6103 4.33145 5.81911C4.76732 4.76679 5.60329 3.93016 6.65592 3.49281C7.44797 3.16601 8.45093 3.16602 10.4569 3.16602C12.4628 3.16602 13.4658 3.16601 14.2578 3.49281C15.3113 3.92822 16.1488 4.76759 16.5866 5.81911C16.9138 6.6103 16.9137 7.61221 16.9137 9.616C16.9137 11.6198 16.9137 12.6217 16.5823 13.4129C16.1464 14.4652 15.3105 15.3018 14.2578 15.7392C13.4658 16.066 12.4628 16.066 10.4569 16.066ZM165.911 80.5699H154.435C149.024 80.5699 146.312 80.5699 144.633 78.893C142.954 77.2074 142.954 74.507 142.954 69.0976V57.6339C142.954 52.2288 142.954 49.5241 144.633 47.8428C146.316 46.1658 149.024 46.1658 154.435 46.1658H165.911C171.321 46.1658 174.029 46.1658 175.712 47.8428C177.391 49.5241 177.391 52.2288 177.391 57.6339V69.1019C177.391 74.507 177.391 77.2117 175.712 78.8886C174.029 80.5699 171.321 80.5699 165.911 80.5699Z" stroke="url(#paint0_linear_2045_9048)" stroke-width="6.25" stroke-linecap="round" stroke-linejoin="round"/>
<defs>
<linearGradient id="paint0_linear_2045_9048" x1="169.814" y1="-8.18392" x2="170.33" y2="94.4997" gradientUnits="userSpaceOnUse">
<stop stop-color="#88BBF3" stop-opacity="0.5"/>
<stop offset="1" stop-color="#5C99F4"/>
</linearGradient>
</defs>
</svg>