<svg width="17" height="16" viewBox="0 0 17 16" fill="none" xmlns="http://www.w3.org/2000/svg">
<path d="M2.16602 7.99935C2.16602 5.01402 2.16602 3.52068 3.09335 2.59335C4.02068 1.66602 5.51335 1.66602 8.50002 1.66602C11.4853 1.66602 12.978 1.66602 13.9053 2.59335C14.8327 3.52068 14.8327 5.01335 14.8327 7.99935C14.8327 10.9847 14.8327 12.478 13.9053 13.4053C12.978 14.3327 11.4853 14.3327 8.49935 14.3327C5.51402 14.3327 4.02135 14.3327 3.09335 13.4053C2.16668 12.4773 2.16602 10.9853 2.16602 7.99935Z" stroke="currentColor" stroke-linecap="round" stroke-linejoin="round"/>
<path d="M5.16602 11.3327L7.96202 8.53735M7.96202 8.53735L5.16602 4.66602H7.01735L9.03735 7.46202L11.8327 4.66602M7.96202 8.53735L9.98068 11.3327H11.8327L9.03735 7.46135" stroke="currentColor" stroke-linecap="round" stroke-linejoin="round"/>
</svg>
