<svg xmlns="http://www.w3.org/2000/svg" width="24" height="24" viewBox="0 0 24 24" fill="none">
  <path d="M2 7.0002H4.865C5.592 7.0002 6.289 6.6402 6.803 6.0002C7.536 5.0862 8.622 4.7662 9.607 5.1752L11 5.7542M2 15.9672H3.62C4.78 15.9672 5.36 15.9672 5.908 16.1212L5.988 16.1452C6.533 16.3102 7.015 16.6212 7.98 17.2432C9.868 18.4602 10.812 19.0682 11.84 18.9942L11.986 18.9802C13.01 18.8582 13.812 18.0822 15.416 16.5302L17 15.0002" stroke="#5C99F4" stroke-width="1.5" stroke-linecap="round" stroke-linejoin="round"/>
  <path d="M21.9995 7.23423H19.4825C18.4165 7.23423 17.6645 6.65423 16.8995 5.88323C16.4262 5.39302 15.7882 5.09524 15.1085 5.04723C14.3655 5.00223 13.5045 4.93723 12.7835 5.13623C11.9805 5.35623 11.4505 5.96123 10.8895 6.59223L9.4425 8.22223C8.8525 8.88623 8.8525 9.96523 9.4425 10.6302C9.9525 11.2042 10.7515 11.2932 11.3515 10.8422C11.7835 10.5182 12.2735 9.99523 12.7825 9.83023C13.3555 9.64523 13.7105 10.0622 14.0345 10.5002L16.3545 13.6342C17.2165 14.7982 17.6465 15.3792 18.2345 15.6902C18.8245 16.0002 19.4965 16.0002 20.8415 16.0002H21.9995" stroke="#5C99F4" stroke-width="1.5" stroke-linecap="round" stroke-linejoin="round"/>
</svg>