<svg width="" height="" viewBox="0 0 20 20" fill="none" xmlns="http://www.w3.org/2000/svg">
<path d="M1 1V17C1 17.5304 1.21071 18.0391 1.58579 18.4142C1.96086 18.7893 2.46957 19 3 19H19" stroke="#007AFF" stroke-width="2" stroke-linecap="round" stroke-linejoin="round"/>
<path d="M16 3H14C13.4477 3 13 3.44772 13 4V14C13 14.5523 13.4477 15 14 15H16C16.5523 15 17 14.5523 17 14V4C17 3.44772 16.5523 3 16 3Z" stroke="#007AFF" stroke-width="2" stroke-linecap="round" stroke-linejoin="round"/>
<path d="M8 6H6C5.44772 6 5 6.44772 5 7V14C5 14.5523 5.44772 15 6 15H8C8.55228 15 9 14.5523 9 14V7C9 6.44772 8.55228 6 8 6Z" stroke="#007AFF" stroke-width="2" stroke-linecap="round" stroke-linejoin="round"/>
</svg>
