<svg width="" height="" viewBox="0 0 18 18" fill="none" xmlns="http://www.w3.org/2000/svg">
<g id="Group">
<path id="Vector" fill-rule="evenodd" clip-rule="evenodd" d="M9.00035 8.99992L-2.99951 8.92594L-2.98865 8.48477L9.00035 8.99992Z" fill="#FEFEFF"/>
<path id="_1" fill-rule="evenodd" clip-rule="evenodd" d="M9.00056 9.00003L-2.99048 8.55818L-2.97215 8.19031L9.00056 9.00003Z" fill="#FDFEFF"/>
<path id="_2" fill-rule="evenodd" clip-rule="evenodd" d="M8.99997 8.99981L-2.97681 8.26407L-2.94966 7.89688L8.99997 8.99981Z" fill="#FCFDFF"/>
<path id="_3" fill-rule="evenodd" clip-rule="evenodd" d="M9.00047 8.99993L-2.95459 7.9703L-2.91862 7.60379L9.00047 8.99993Z" fill="#FBFCFF"/>
<path id="_4" fill-rule="evenodd" clip-rule="evenodd" d="M9.00034 9.00006L-2.92554 7.67723L-2.88074 7.31207L9.00034 9.00006Z" fill="#FAFCFF"/>
<path id="_5" fill-rule="evenodd" clip-rule="evenodd" d="M9.00026 8.99988L-2.88965 7.3852L-2.83603 7.02072L9.00026 8.99988Z" fill="#F9FBFF"/>
<path id="_6" fill-rule="evenodd" clip-rule="evenodd" d="M9.00027 9.00006L-2.84619 7.09352L-2.78375 6.73108L9.00027 9.00006Z" fill="#F8FAFF"/>
<path id="_7" fill-rule="evenodd" clip-rule="evenodd" d="M9.00034 8.99991L-2.7959 6.80356L-2.72463 6.44247L9.00034 8.99991Z" fill="#F7FAFF"/>
<path id="_8" fill-rule="evenodd" clip-rule="evenodd" d="M8.99997 8.99978L-2.73926 6.51497L-2.65849 6.15524L8.99997 8.99978Z" fill="#F6F9FF"/>
<path id="_9" fill-rule="evenodd" clip-rule="evenodd" d="M9.00043 9.00005L-2.67432 6.22746L-2.58472 5.87045L9.00043 9.00005Z" fill="#F5F8FF"/>
<path id="_10" fill-rule="evenodd" clip-rule="evenodd" d="M9.00026 8.99998L-2.60254 5.94164L-2.5048 5.58667L9.00026 8.99998Z" fill="#F4F8FF"/>
<path id="_11" fill-rule="evenodd" clip-rule="evenodd" d="M9.00034 8.99996L-2.52441 5.65792L-2.41718 5.30566L9.00034 8.99996Z" fill="#F3F7FF"/>
<path id="_12" fill-rule="evenodd" clip-rule="evenodd" d="M9.00027 8.99999L-2.43896 5.37628L-2.3229 5.02673L9.00027 8.99999Z" fill="#F2F6FF"/>
<path id="_13" fill-rule="evenodd" clip-rule="evenodd" d="M9.00049 9.00005L-2.34644 5.09671L-2.22223 4.74988L9.00049 9.00005Z" fill="#F1F6FF"/>
<path id="_14" fill-rule="evenodd" clip-rule="evenodd" d="M9.00033 8.99981L-2.24683 4.81887L-2.11447 4.47543L9.00033 8.99981Z" fill="#F0F5FF"/>
<path id="_15" fill-rule="evenodd" clip-rule="evenodd" d="M9.00065 8.99997L-2.14062 4.54414L-2.00013 4.2041L9.00065 8.99997Z" fill="#EFF4FF"/>
<path id="_16" fill-rule="evenodd" clip-rule="evenodd" d="M9.00053 8.99982L-2.02808 4.27182L-1.87876 3.93585L9.00053 8.99982Z" fill="#EEF3FF"/>
<path id="_17" fill-rule="evenodd" clip-rule="evenodd" d="M9.00045 9.00006L-1.90869 4.00329L-1.75123 3.67072L9.00045 9.00006Z" fill="#EDF3FF"/>
<path id="_18" fill-rule="evenodd" clip-rule="evenodd" d="M9.00062 9.00004L-1.78296 3.7372L-1.61735 3.40802L9.00062 9.00004Z" fill="#ECF2FF"/>
<path id="_19" fill-rule="evenodd" clip-rule="evenodd" d="M9.00011 9.00005L-1.65112 3.47388L-1.47737 3.14944L9.00011 9.00005Z" fill="#EBF1FF"/>
<path id="_20" fill-rule="evenodd" clip-rule="evenodd" d="M9.00037 8.9998L-1.51172 3.21435L-1.3305 2.89331L9.00037 8.9998Z" fill="#EAF1FF"/>
<path id="_21" fill-rule="evenodd" clip-rule="evenodd" d="M9.00015 8.99995L-1.3667 2.95794L-1.17734 2.64233L9.00015 8.99995Z" fill="#E9F0FF"/>
<path id="_22" fill-rule="evenodd" clip-rule="evenodd" d="M9.00016 8.9998L-1.21533 2.7053L-1.0185 2.39377L9.00016 8.9998Z" fill="#E8EFFF"/>
<path id="_23" fill-rule="evenodd" clip-rule="evenodd" d="M8.99992 9.00008L-1.05811 2.4565L-0.853131 2.15039L8.99992 9.00008Z" fill="#E7EFFF"/>
<path id="_24" fill-rule="evenodd" clip-rule="evenodd" d="M9.00017 9.00008L-0.894287 2.21147L-0.682525 1.9108L9.00017 9.00008Z" fill="#E6EEFF"/>
<path id="_25" fill-rule="evenodd" clip-rule="evenodd" d="M9.00016 8.99982L-0.724609 1.97094L-0.505381 1.67502L9.00016 8.99982Z" fill="#E5EDFF"/>
<path id="_26" fill-rule="evenodd" clip-rule="evenodd" d="M9.00059 8.99997L-0.549072 1.73422L-0.322378 1.44373L9.00059 8.99997Z" fill="#E4EDFF"/>
<path id="_27" fill-rule="evenodd" clip-rule="evenodd" d="M9.00028 8.99988L-0.368164 1.50201L-0.134683 1.21762L9.00028 8.99988Z" fill="#E3ECFF"/>
<path id="_28" fill-rule="evenodd" clip-rule="evenodd" d="M9.00069 8.99984L-0.18042 1.27459L0.0598487 0.995636L9.00069 8.99984Z" fill="#E2EBFF"/>
<path id="_29" fill-rule="evenodd" clip-rule="evenodd" d="M9.00051 8.9999L0.0114746 1.05135L0.258531 0.778503L9.00051 8.9999Z" fill="#E1EBFF"/>
<path id="_30" fill-rule="evenodd" clip-rule="evenodd" d="M9.00051 9.00002L0.208984 0.833603L0.462828 0.566864L9.00051 9.00002Z" fill="#E0EAFF"/>
<path id="_31" fill-rule="evenodd" clip-rule="evenodd" d="M9.00045 8.99991L0.411865 0.620372L0.672496 0.359741L9.00045 8.99991Z" fill="#DFE9FF"/>
<path id="_32" fill-rule="evenodd" clip-rule="evenodd" d="M9.00063 8.99989L0.621094 0.411307L0.887154 0.158142L9.00063 8.99989Z" fill="#DEE9FF"/>
<path id="_33" fill-rule="evenodd" clip-rule="evenodd" d="M9.00016 8.99994L0.83374 0.208421L1.10659 -0.0386353L9.00016 8.99994Z" fill="#DDE8FF"/>
<path id="_34" fill-rule="evenodd" clip-rule="evenodd" d="M9.00055 9.00012L1.052 0.0110816L1.33096 -0.229187L9.00055 9.00012Z" fill="#DCE7FF"/>
<path id="_35" fill-rule="evenodd" clip-rule="evenodd" d="M9.00015 9.00001L1.2749 -0.1811L1.55929 -0.414581L9.00015 9.00001Z" fill="#DBE7FF"/>
<path id="_36" fill-rule="evenodd" clip-rule="evenodd" d="M9.0008 9.00003L1.50293 -0.368406L1.79342 -0.594421L9.0008 9.00003Z" fill="#DAE6FF"/>
<path id="_37" fill-rule="evenodd" clip-rule="evenodd" d="M9.00061 9.00012L1.73486 -0.54954L2.03079 -0.768768L9.00061 9.00012Z" fill="#D9E5FF"/>
<path id="_38" fill-rule="evenodd" clip-rule="evenodd" d="M9.00056 8.99998L1.97168 -0.724792L2.27235 -0.936554L9.00056 8.99998Z" fill="#D8E5FF"/>
<path id="_39" fill-rule="evenodd" clip-rule="evenodd" d="M9.00052 8.99996L2.21191 -0.894489L2.51802 -1.09879L9.00052 8.99996Z" fill="#D7E4FF"/>
<path id="_40" fill-rule="evenodd" clip-rule="evenodd" d="M9.00062 9.00003L2.45703 -1.05799L2.76857 -1.25482L9.00062 9.00003Z" fill="#D6E3FF"/>
<path id="_41" fill-rule="evenodd" clip-rule="evenodd" d="M9.00006 8.99986L2.70557 -1.21563L3.02117 -1.405L9.00006 8.99986Z" fill="#D5E3FF"/>
<path id="_42" fill-rule="evenodd" clip-rule="evenodd" d="M9.00026 8.99979L2.95825 -1.36706L3.27861 -1.54828L9.00026 8.99979Z" fill="#D4E2FF"/>
<path id="_43" fill-rule="evenodd" clip-rule="evenodd" d="M9.00054 8.99984L3.21509 -1.51225L3.53952 -1.686L9.00054 8.99984Z" fill="#D3E1FF"/>
<path id="_44" fill-rule="evenodd" clip-rule="evenodd" d="M9.0003 9L3.47412 -1.65123L3.8033 -1.81616L9.0003 9Z" fill="#D2E0FF"/>
<path id="_45" fill-rule="evenodd" clip-rule="evenodd" d="M9.00063 8.99994L3.73779 -1.78364L4.07037 -1.94043L9.00063 8.99994Z" fill="#D1E0FF"/>
<path id="_46" fill-rule="evenodd" clip-rule="evenodd" d="M9.00044 8.99996L4.00366 -1.90918L4.34031 -2.0585L9.00044 8.99996Z" fill="#D0DFFF"/>
<path id="_47" fill-rule="evenodd" clip-rule="evenodd" d="M9.00021 9.00013L4.27222 -2.02847L4.61294 -2.16965L9.00021 9.00013Z" fill="#CFDEFF"/>
<path id="_48" fill-rule="evenodd" clip-rule="evenodd" d="M9.00002 9.00006L4.54419 -2.14121L4.8883 -2.27356L9.00002 9.00006Z" fill="#CEDEFF"/>
<path id="_49" fill-rule="evenodd" clip-rule="evenodd" d="M9.00053 9.00008L4.81958 -2.24707L5.16641 -2.37128L9.00053 9.00008Z" fill="#CDDDFF"/>
<path id="_50" fill-rule="evenodd" clip-rule="evenodd" d="M9.00052 8.99993L5.09717 -2.347L5.44671 -2.4617L9.00052 8.99993Z" fill="#CCDCFF"/>
<path id="_51" fill-rule="evenodd" clip-rule="evenodd" d="M9.00067 8.99983L5.37695 -2.4394L5.72921 -2.54596L9.00067 8.99983Z" fill="#CBDCFF"/>
<path id="_52" fill-rule="evenodd" clip-rule="evenodd" d="M9.00049 8.9999L5.65845 -2.52485L6.01342 -2.62259L9.00049 8.9999Z" fill="#CADBFF"/>
<path id="_53" fill-rule="evenodd" clip-rule="evenodd" d="M9.00072 9.00007L5.94238 -2.60273L6.29939 -2.69232L9.00072 9.00007Z" fill="#C9DAFF"/>
<path id="_54" fill-rule="evenodd" clip-rule="evenodd" d="M9.00013 9.00005L6.22754 -2.6747L6.58658 -2.75479L9.00013 9.00005Z" fill="#C8DAFF"/>
<path id="_55" fill-rule="evenodd" clip-rule="evenodd" d="M9.00019 9.0001L6.51538 -2.73913L6.87578 -2.81039L9.00019 9.0001Z" fill="#C7D9FF"/>
<path id="_56" fill-rule="evenodd" clip-rule="evenodd" d="M9.00031 8.99996L6.80396 -2.79628L7.16639 -2.85941L9.00031 8.99996Z" fill="#C6D8FF"/>
<path id="_57" fill-rule="evenodd" clip-rule="evenodd" d="M9.00053 8.99995L7.09399 -2.84652L7.45847 -2.90082L9.00053 8.99995Z" fill="#C5D8FF"/>
<path id="_58" fill-rule="evenodd" clip-rule="evenodd" d="M8.99994 9.00004L7.38525 -2.88987L7.75041 -2.93466L8.99994 9.00004Z" fill="#C4D7FF"/>
<path id="_59" fill-rule="evenodd" clip-rule="evenodd" d="M9.00033 8.9999L7.67749 -2.92597L8.044 -2.96194L9.00033 8.9999Z" fill="#C3D6FF"/>
<path id="_60" fill-rule="evenodd" clip-rule="evenodd" d="M9.00033 8.99991L7.9707 -2.95515L8.33789 -2.9823L9.00033 8.99991Z" fill="#C2D6FF"/>
<path id="_61" fill-rule="evenodd" clip-rule="evenodd" d="M9.00063 9.00004L8.26489 -2.97674L8.63276 -2.99438L9.00063 9.00004Z" fill="#C1D5FF"/>
<path id="_62" fill-rule="evenodd" clip-rule="evenodd" d="M9.0002 8.99995L8.55835 -2.99109L8.92622 -2.99991L9.0002 8.99995Z" fill="#C0D4FF"/>
<path id="_63" fill-rule="evenodd" clip-rule="evenodd" d="M9.00055 8.99997L8.85327 -2.99854H9.22114L9.00055 8.99997Z" fill="#BFD4FF"/>
<path id="_64" fill-rule="evenodd" clip-rule="evenodd" d="M9.00024 8.99997L9.14753 -2.99854L9.5154 -2.98903L9.00024 8.99997Z" fill="#BED3FF"/>
<path id="_65" fill-rule="evenodd" clip-rule="evenodd" d="M9.00024 9.0001L9.44209 -2.99094L9.80928 -2.97261L9.00024 9.0001Z" fill="#BDD2FF"/>
<path id="_66" fill-rule="evenodd" clip-rule="evenodd" d="M9.00024 9L9.73598 -2.97678L10.1032 -2.94963L9.00024 9Z" fill="#BCD2FF"/>
<path id="_67" fill-rule="evenodd" clip-rule="evenodd" d="M9.00024 9.00004L10.0299 -2.95502L10.3964 -2.91904L9.00024 9.00004Z" fill="#BBD1FF"/>
<path id="_68" fill-rule="evenodd" clip-rule="evenodd" d="M9.00024 8.99985L10.3224 -2.92603L10.6882 -2.88123L9.00024 8.99985Z" fill="#BAD0FF"/>
<path id="_69" fill-rule="evenodd" clip-rule="evenodd" d="M9.00024 9.00013L10.6149 -2.88977L10.9794 -2.83615L9.00024 9.00013Z" fill="#B9D0FF"/>
<path id="_70" fill-rule="evenodd" clip-rule="evenodd" d="M9.00024 8.99985L10.9061 -2.84662L11.2692 -2.78418L9.00024 8.99985Z" fill="#B8CFFF"/>
<path id="_71" fill-rule="evenodd" clip-rule="evenodd" d="M9.00024 9.00001L11.1966 -2.79623L11.5577 -2.72497L9.00024 9.00001Z" fill="#B7CEFF"/>
<path id="_72" fill-rule="evenodd" clip-rule="evenodd" d="M9.00024 8.99997L11.4851 -2.73926L11.8448 -2.65849L9.00024 8.99997Z" fill="#B6CDFF"/>
<path id="_73" fill-rule="evenodd" clip-rule="evenodd" d="M9.00024 9.00004L11.7728 -2.67471L12.1298 -2.58512L9.00024 9.00004Z" fill="#B5CDFF"/>
<path id="_74" fill-rule="evenodd" clip-rule="evenodd" d="M9.00024 8.9999L12.0586 -2.60291L12.4129 -2.50517L9.00024 8.9999Z" fill="#B4CCFF"/>
<path id="_75" fill-rule="evenodd" clip-rule="evenodd" d="M9.00024 8.99985L12.3423 -2.5249L12.6945 -2.41766L9.00024 8.99985Z" fill="#B3CBFF"/>
<path id="_76" fill-rule="evenodd" clip-rule="evenodd" d="M9.00024 8.99996L12.624 -2.43927L12.9735 -2.32321L9.00024 8.99996Z" fill="#B2CBFF"/>
<path id="_77" fill-rule="evenodd" clip-rule="evenodd" d="M9.00024 8.99982L12.9036 -2.34711L13.2504 -2.2229L9.00024 8.99982Z" fill="#B1CAFF"/>
<path id="_78" fill-rule="evenodd" clip-rule="evenodd" d="M9.00024 8.99981L13.1812 -2.24734L13.5246 -2.11499L9.00024 8.99981Z" fill="#B0C9FF"/>
<path id="_79" fill-rule="evenodd" clip-rule="evenodd" d="M9.00024 8.99991L13.4554 -2.14136L13.7961 -2.00086L9.00024 8.99991Z" fill="#AFC9FF"/>
<path id="_80" fill-rule="evenodd" clip-rule="evenodd" d="M9.00024 8.99979L13.7276 -2.02881L14.0642 -1.87949L9.00024 8.99979Z" fill="#AEC8FF"/>
<path id="_81" fill-rule="evenodd" clip-rule="evenodd" d="M9.00024 8.99978L13.997 -1.90936L14.3296 -1.7519L9.00024 8.99978Z" fill="#ADC7FF"/>
<path id="_82" fill-rule="evenodd" clip-rule="evenodd" d="M9.00024 8.99986L14.2631 -1.78372L14.5923 -1.61811L9.00024 8.99986Z" fill="#ACC7FF"/>
<path id="_83" fill-rule="evenodd" clip-rule="evenodd" d="M9.00024 9.00008L14.5264 -1.65115L14.8509 -1.4774L9.00024 9.00008Z" fill="#ABC6FF"/>
<path id="_84" fill-rule="evenodd" clip-rule="evenodd" d="M9.00024 9.00007L14.7857 -1.51202L15.1067 -1.3308L9.00024 9.00007Z" fill="#AAC5FF"/>
<path id="_85" fill-rule="evenodd" clip-rule="evenodd" d="M9.00024 8.99981L15.0423 -1.36703L15.3579 -1.17767L9.00024 8.99981Z" fill="#A9C5FF"/>
<path id="_86" fill-rule="evenodd" clip-rule="evenodd" d="M9.00024 9L15.2947 -1.21548L15.6056 -1.01865L9.00024 9Z" fill="#A8C4FF"/>
<path id="_87" fill-rule="evenodd" clip-rule="evenodd" d="M9.00024 8.99995L15.5438 -1.05807L15.8499 -0.8531L9.00024 8.99995Z" fill="#A7C3FF"/>
<path id="_88" fill-rule="evenodd" clip-rule="evenodd" d="M9.00024 9.00001L15.7889 -0.89444L16.0895 -0.682678L9.00024 9.00001Z" fill="#A6C3FF"/>
<path id="_89" fill-rule="evenodd" clip-rule="evenodd" d="M9.00024 8.99986L16.0291 -0.724915L16.325 -0.505686L9.00024 8.99986Z" fill="#A5C2FF"/>
<path id="_90" fill-rule="evenodd" clip-rule="evenodd" d="M9.00024 9.0001L16.266 -0.549561L16.5558 -0.322866L9.00024 9.0001Z" fill="#A4C1FF"/>
<path id="_91" fill-rule="evenodd" clip-rule="evenodd" d="M9.00024 8.99979L16.4981 -0.368652L16.7825 -0.135171L9.00024 8.99979Z" fill="#A3C1FF"/>
<path id="_92" fill-rule="evenodd" clip-rule="evenodd" d="M9.00024 8.9999L16.7255 -0.181213L17.0044 0.0590552L9.00024 8.9999Z" fill="#A2C0FF"/>
<path id="_93" fill-rule="evenodd" clip-rule="evenodd" d="M9.00024 9.00011L16.9488 0.0110779L17.2216 0.258134L9.00024 9.00011Z" fill="#A1BFFF"/>
<path id="_94" fill-rule="evenodd" clip-rule="evenodd" d="M9.00024 9.00008L17.1667 0.208557L17.4334 0.4624L9.00024 9.00008Z" fill="#A0BFFF"/>
<path id="_95" fill-rule="evenodd" clip-rule="evenodd" d="M9.00024 9.00012L17.3798 0.41153L17.6404 0.67216L9.00024 9.00012Z" fill="#9FBEFF"/>
<path id="_96" fill-rule="evenodd" clip-rule="evenodd" d="M9.00024 8.99993L17.5882 0.620392L17.842 0.886452L9.00024 8.99993Z" fill="#9EBDFF"/>
<path id="_97" fill-rule="evenodd" clip-rule="evenodd" d="M9.00024 8.99979L17.7918 0.833374L18.0388 1.10622L9.00024 8.99979Z" fill="#9DBDFF"/>
<path id="_98" fill-rule="evenodd" clip-rule="evenodd" d="M9.00024 9.00012L17.9893 1.05157L18.2295 1.33053L9.00024 9.00012Z" fill="#9CBCFF"/>
<path id="_99" fill-rule="evenodd" clip-rule="evenodd" d="M9.00024 8.99981L18.1814 1.27457L18.4148 1.55895L9.00024 8.99981Z" fill="#9BBBFF"/>
<path id="_100" fill-rule="evenodd" clip-rule="evenodd" d="M9.00024 8.99995L18.3687 1.50208L18.5947 1.79257L9.00024 8.99995Z" fill="#9ABAFF"/>
<path id="_101" fill-rule="evenodd" clip-rule="evenodd" d="M9.00024 8.99982L18.5499 1.73407L18.7691 2.02999L9.00024 8.99982Z" fill="#99BAFF"/>
<path id="_102" fill-rule="evenodd" clip-rule="evenodd" d="M9.00024 9.0001L18.725 1.97122L18.9368 2.2719L9.00024 9.0001Z" fill="#98B9FF"/>
<path id="_103" fill-rule="evenodd" clip-rule="evenodd" d="M9.00024 9.00009L18.8947 2.21149L19.099 2.51759L9.00024 9.00009Z" fill="#97B8FF"/>
<path id="_104" fill-rule="evenodd" clip-rule="evenodd" d="M9.00024 8.99983L19.0583 2.45624L19.2551 2.76777L9.00024 8.99983Z" fill="#96B8FF"/>
<path id="_105" fill-rule="evenodd" clip-rule="evenodd" d="M9.00024 9L19.2157 2.70551L19.4051 3.02111L9.00024 9Z" fill="#95B7FF"/>
<path id="_106" fill-rule="evenodd" clip-rule="evenodd" d="M9.00024 8.99987L19.3671 2.95786L19.5483 3.27821L9.00024 8.99987Z" fill="#94B6FF"/>
<path id="_107" fill-rule="evenodd" clip-rule="evenodd" d="M9.00024 8.99981L19.5123 3.21436L19.6854 3.53879L9.00024 8.99981Z" fill="#93B6FF"/>
<path id="_108" fill-rule="evenodd" clip-rule="evenodd" d="M9.00024 8.99978L19.6508 3.4736L19.8164 3.80278L9.00024 8.99978Z" fill="#92B5FF"/>
<path id="_109" fill-rule="evenodd" clip-rule="evenodd" d="M9.00024 8.99983L19.7838 3.737L19.9406 4.06957L9.00024 8.99983Z" fill="#91B4FF"/>
<path id="_110" fill-rule="evenodd" clip-rule="evenodd" d="M9.00024 8.99995L19.9094 4.00317L20.0587 4.33982L9.00024 8.99995Z" fill="#90B4FF"/>
<path id="_111" fill-rule="evenodd" clip-rule="evenodd" d="M9.00024 9.00009L20.0288 4.27209L20.1693 4.61281L9.00024 9.00009Z" fill="#8FB3FF"/>
<path id="_112" fill-rule="evenodd" clip-rule="evenodd" d="M9.00024 8.99996L20.1415 4.54413L20.2739 4.88824L9.00024 8.99996Z" fill="#8EB2FF"/>
<path id="_113" fill-rule="evenodd" clip-rule="evenodd" d="M9.00024 8.99985L20.2474 4.81891L20.3716 5.16574L9.00024 8.99985Z" fill="#8DB2FF"/>
<path id="_114" fill-rule="evenodd" clip-rule="evenodd" d="M9.00024 8.99981L20.3465 5.09647L20.4619 5.44601L9.00024 8.99981Z" fill="#8CB1FF"/>
<path id="_115" fill-rule="evenodd" clip-rule="evenodd" d="M9.00024 8.99981L20.4388 5.3761L20.546 5.72836L9.00024 8.99981Z" fill="#8BB0FF"/>
<path id="_116" fill-rule="evenodd" clip-rule="evenodd" d="M9.00024 8.99985L20.5243 5.65781L20.6227 6.01278L9.00024 8.99985Z" fill="#8AB0FF"/>
<path id="_117" fill-rule="evenodd" clip-rule="evenodd" d="M9.00024 8.99989L20.603 5.94156L20.6926 6.29857L9.00024 8.99989Z" fill="#89AFFF"/>
<path id="_118" fill-rule="evenodd" clip-rule="evenodd" d="M9.00024 9.00001L20.675 6.22742L20.7551 6.58646L9.00024 9.00001Z" fill="#88AEFF"/>
<path id="_119" fill-rule="evenodd" clip-rule="evenodd" d="M9.00024 8.9998L20.7388 6.51498L20.8107 6.87539L9.00024 8.9998Z" fill="#87AEFF"/>
<path id="_120" fill-rule="evenodd" clip-rule="evenodd" d="M9.00024 8.99994L20.7965 6.80359L20.8596 7.16603L9.00024 8.99994Z" fill="#86ADFF"/>
<path id="_121" fill-rule="evenodd" clip-rule="evenodd" d="M9.00024 9.00011L20.8467 7.09357L20.901 7.45804L9.00024 9.00011Z" fill="#85ACFF"/>
<path id="_122" fill-rule="evenodd" clip-rule="evenodd" d="M9.00024 8.99994L20.8901 7.38525L20.9349 7.75041L9.00024 8.99994Z" fill="#84ACFF"/>
<path id="_123" fill-rule="evenodd" clip-rule="evenodd" d="M9.00024 8.99981L20.9261 7.67697L20.9621 8.04348L9.00024 8.99981Z" fill="#83ABFF"/>
<path id="_124" fill-rule="evenodd" clip-rule="evenodd" d="M9.00024 9.00002L20.9553 7.9704L20.9825 8.33759L9.00024 9.00002Z" fill="#82AAFF"/>
<path id="_125" fill-rule="evenodd" clip-rule="evenodd" d="M9.00024 8.99993L20.977 8.26419L20.9947 8.63206L9.00024 8.99993Z" fill="#81AAFF"/>
<path id="_126" fill-rule="evenodd" clip-rule="evenodd" d="M9.00024 8.99983L20.9913 8.55798L21.0001 8.92585L9.00024 8.99983Z" fill="#80A9FF"/>
<path id="_127" fill-rule="evenodd" clip-rule="evenodd" d="M9.00024 9.00007L20.9981 8.85278V9.22065L9.00024 9.00007Z" fill="#7FA8FF"/>
<path id="_128" fill-rule="evenodd" clip-rule="evenodd" d="M9.00024 8.99985L20.9981 9.14713L20.9892 9.515L9.00024 8.99985Z" fill="#7EA7FF"/>
<path id="_129" fill-rule="evenodd" clip-rule="evenodd" d="M9.00024 8.99985L20.9913 9.4417L20.973 9.80889L9.00024 8.99985Z" fill="#7DA7FF"/>
<path id="_130" fill-rule="evenodd" clip-rule="evenodd" d="M9.00024 8.99985L20.977 9.73559L20.9499 10.1028L9.00024 8.99985Z" fill="#7CA6FF"/>
<path id="_131" fill-rule="evenodd" clip-rule="evenodd" d="M9.00024 8.99985L20.9553 10.0295L20.9193 10.396L9.00024 8.99985Z" fill="#7BA5FF"/>
<path id="_132" fill-rule="evenodd" clip-rule="evenodd" d="M9.00024 8.99985L20.9261 10.322L20.8813 10.6878L9.00024 8.99985Z" fill="#7AA5FF"/>
<path id="_133" fill-rule="evenodd" clip-rule="evenodd" d="M9.00024 8.99985L20.8901 10.6145L20.8358 10.979L9.00024 8.99985Z" fill="#79A4FF"/>
<path id="_134" fill-rule="evenodd" clip-rule="evenodd" d="M9.00024 8.99985L20.8467 10.9057L20.7843 11.2688L9.00024 8.99985Z" fill="#78A3FF"/>
<path id="_135" fill-rule="evenodd" clip-rule="evenodd" d="M9.00024 8.99985L20.7965 11.1962L20.7245 11.5573L9.00024 8.99985Z" fill="#77A3FF"/>
<path id="_136" fill-rule="evenodd" clip-rule="evenodd" d="M9.00024 8.99985L20.7388 11.4847L20.6587 11.8444L9.00024 8.99985Z" fill="#76A2FF"/>
<path id="_137" fill-rule="evenodd" clip-rule="evenodd" d="M9.00024 8.99985L20.675 11.7724L20.5854 12.1294L9.00024 8.99985Z" fill="#75A1FF"/>
<path id="_138" fill-rule="evenodd" clip-rule="evenodd" d="M9.00024 8.99985L20.603 12.0582L20.5053 12.4125L9.00024 8.99985Z" fill="#74A1FF"/>
<path id="_139" fill-rule="evenodd" clip-rule="evenodd" d="M9.00024 8.99985L20.5243 12.3419L20.4178 12.6941L9.00024 8.99985Z" fill="#73A0FF"/>
<path id="_140" fill-rule="evenodd" clip-rule="evenodd" d="M9.00024 8.99985L20.4388 12.6236L20.3234 12.9731L9.00024 8.99985Z" fill="#729FFF"/>
<path id="_141" fill-rule="evenodd" clip-rule="evenodd" d="M9.00024 8.99985L20.3465 12.9032L20.223 13.25L9.00024 8.99985Z" fill="#719FFF"/>
<path id="_142" fill-rule="evenodd" clip-rule="evenodd" d="M9.00024 8.99985L20.2474 13.1808L20.115 13.5242L9.00024 8.99985Z" fill="#709EFF"/>
<path id="_143" fill-rule="evenodd" clip-rule="evenodd" d="M9.00024 8.99985L20.1415 13.455L20.0003 13.7957L9.00024 8.99985Z" fill="#6F9DFF"/>
<path id="_144" fill-rule="evenodd" clip-rule="evenodd" d="M9.00024 8.99985L20.0288 13.7272L19.8795 14.0638L9.00024 8.99985Z" fill="#6E9DFF"/>
<path id="_145" fill-rule="evenodd" clip-rule="evenodd" d="M9.00024 8.99985L19.9094 13.9966L19.7519 14.3292L9.00024 8.99985Z" fill="#6D9CFF"/>
<path id="_146" fill-rule="evenodd" clip-rule="evenodd" d="M9.00024 8.99985L19.7838 14.2627L19.6182 14.5919L9.00024 8.99985Z" fill="#6C9BFF"/>
<path id="_147" fill-rule="evenodd" clip-rule="evenodd" d="M9.00024 8.99985L19.6508 14.526L19.4777 14.8505L9.00024 8.99985Z" fill="#6B9BFF"/>
<path id="_148" fill-rule="evenodd" clip-rule="evenodd" d="M9.00024 8.99985L19.5123 14.7853L19.3311 15.1063L9.00024 8.99985Z" fill="#6A9AFF"/>
<path id="_149" fill-rule="evenodd" clip-rule="evenodd" d="M9.00024 8.99985L19.3671 15.0419L19.1777 15.3575L9.00024 8.99985Z" fill="#6999FF"/>
<path id="_150" fill-rule="evenodd" clip-rule="evenodd" d="M9.00024 8.99985L19.2157 15.2943L19.0189 15.6052L9.00024 8.99985Z" fill="#6899FF"/>
<path id="_151" fill-rule="evenodd" clip-rule="evenodd" d="M9.00024 8.99985L19.0583 15.5434L18.8533 15.8495L9.00024 8.99985Z" fill="#6798FF"/>
<path id="_152" fill-rule="evenodd" clip-rule="evenodd" d="M9.00024 8.99985L18.8947 15.7885L18.6829 16.0891L9.00024 8.99985Z" fill="#6697FF"/>
<path id="_153" fill-rule="evenodd" clip-rule="evenodd" d="M9.00024 8.99985L18.725 16.0287L18.5058 16.3246L9.00024 8.99985Z" fill="#6597FF"/>
<path id="_154" fill-rule="evenodd" clip-rule="evenodd" d="M9.00024 8.99985L18.5499 16.2656L18.3232 16.5554L9.00024 8.99985Z" fill="#6496FF"/>
<path id="_155" fill-rule="evenodd" clip-rule="evenodd" d="M9.00024 8.99985L18.3687 16.4977L18.1352 16.7821L9.00024 8.99985Z" fill="#6395FF"/>
<path id="_156" fill-rule="evenodd" clip-rule="evenodd" d="M9.00024 8.99985L18.1814 16.7251L17.9411 17.0041L9.00024 8.99985Z" fill="#6294FF"/>
<path id="_157" fill-rule="evenodd" clip-rule="evenodd" d="M9.00024 8.99985L17.9893 16.9484L17.7422 17.2212L9.00024 8.99985Z" fill="#6194FF"/>
<path id="_158" fill-rule="evenodd" clip-rule="evenodd" d="M9.00024 8.99985L17.7918 17.1663L17.5379 17.433L9.00024 8.99985Z" fill="#6093FF"/>
<path id="_159" fill-rule="evenodd" clip-rule="evenodd" d="M9.00024 8.99985L17.5882 17.3794L17.3282 17.64L9.00024 8.99985Z" fill="#5F92FF"/>
<path id="_160" fill-rule="evenodd" clip-rule="evenodd" d="M9.00024 8.99985L17.3798 17.5878L17.1137 17.8416L9.00024 8.99985Z" fill="#5E92FF"/>
<path id="_161" fill-rule="evenodd" clip-rule="evenodd" d="M9.00024 8.99985L17.1667 17.7914L16.8938 18.0384L9.00024 8.99985Z" fill="#5D91FF"/>
<path id="_162" fill-rule="evenodd" clip-rule="evenodd" d="M9.00024 8.99985L16.9488 17.9889L16.6698 18.2291L9.00024 8.99985Z" fill="#5C90FF"/>
<path id="_163" fill-rule="evenodd" clip-rule="evenodd" d="M9.00024 8.99985L16.7255 18.181L16.4411 18.4144L9.00024 8.99985Z" fill="#5B90FF"/>
<path id="_164" fill-rule="evenodd" clip-rule="evenodd" d="M9.00024 8.99985L16.4981 18.3683L16.2076 18.5943L9.00024 8.99985Z" fill="#5A8FFF"/>
<path id="_165" fill-rule="evenodd" clip-rule="evenodd" d="M9.00024 8.99985L16.266 18.5495L15.9701 18.7687L9.00024 8.99985Z" fill="#598EFF"/>
<path id="_166" fill-rule="evenodd" clip-rule="evenodd" d="M9.00024 8.99985L16.0291 18.7246L15.7284 18.9364L9.00024 8.99985Z" fill="#588EFF"/>
<path id="_167" fill-rule="evenodd" clip-rule="evenodd" d="M9.00024 8.99985L15.7889 18.8943L15.4821 19.0986L9.00024 8.99985Z" fill="#578DFF"/>
<path id="_168" fill-rule="evenodd" clip-rule="evenodd" d="M9.00024 8.99985L15.5438 19.0579L15.2323 19.2547L9.00024 8.99985Z" fill="#568CFF"/>
<path id="_169" fill-rule="evenodd" clip-rule="evenodd" d="M9.00024 8.99985L15.2947 19.2153L14.9791 19.4047L9.00024 8.99985Z" fill="#558CFF"/>
<path id="_170" fill-rule="evenodd" clip-rule="evenodd" d="M9.00024 8.99985L15.0423 19.3667L14.7219 19.5479L9.00024 8.99985Z" fill="#548BFF"/>
<path id="_171" fill-rule="evenodd" clip-rule="evenodd" d="M9.00024 8.99985L14.7857 19.5119L14.4613 19.685L9.00024 8.99985Z" fill="#538AFF"/>
<path id="_172" fill-rule="evenodd" clip-rule="evenodd" d="M9.00024 8.99985L14.5264 19.6504L14.1972 19.816L9.00024 8.99985Z" fill="#528AFF"/>
<path id="_173" fill-rule="evenodd" clip-rule="evenodd" d="M9.00024 8.99985L14.2631 19.7834L13.9305 19.9402L9.00024 8.99985Z" fill="#5189FF"/>
<path id="_174" fill-rule="evenodd" clip-rule="evenodd" d="M9.00024 8.99985L13.997 19.909L13.6604 20.0583L9.00024 8.99985Z" fill="#5088FF"/>
<path id="_175" fill-rule="evenodd" clip-rule="evenodd" d="M9.00024 8.99985L13.7276 20.0284L13.3875 20.1689L9.00024 8.99985Z" fill="#4F88FF"/>
<path id="_176" fill-rule="evenodd" clip-rule="evenodd" d="M9.00024 8.99985L13.4554 20.1411L13.112 20.2735L9.00024 8.99985Z" fill="#4E87FF"/>
<path id="_177" fill-rule="evenodd" clip-rule="evenodd" d="M9.00024 8.99985L13.1812 20.247L12.8344 20.3712L9.00024 8.99985Z" fill="#4D86FF"/>
<path id="_178" fill-rule="evenodd" clip-rule="evenodd" d="M9.00024 8.99985L12.9036 20.3461L12.554 20.4615L9.00024 8.99985Z" fill="#4C86FF"/>
<path id="_179" fill-rule="evenodd" clip-rule="evenodd" d="M9.00024 8.99985L12.624 20.4384L12.2717 20.5456L9.00024 8.99985Z" fill="#4B85FF"/>
<path id="_180" fill-rule="evenodd" clip-rule="evenodd" d="M9.00024 8.99985L12.3423 20.5239L11.9873 20.6223L9.00024 8.99985Z" fill="#4A84FF"/>
<path id="_181" fill-rule="evenodd" clip-rule="evenodd" d="M9.00024 8.99985L12.0586 20.6027L11.7009 20.6922L9.00024 8.99985Z" fill="#4984FF"/>
<path id="_182" fill-rule="evenodd" clip-rule="evenodd" d="M9.00024 8.99985L11.7728 20.6746L11.4138 20.7547L9.00024 8.99985Z" fill="#4883FF"/>
<path id="_183" fill-rule="evenodd" clip-rule="evenodd" d="M9.00024 8.99985L11.4851 20.7384L11.124 20.8103L9.00024 8.99985Z" fill="#4782FF"/>
<path id="_184" fill-rule="evenodd" clip-rule="evenodd" d="M9.00024 8.99985L11.1966 20.7961L10.8342 20.8592L9.00024 8.99985Z" fill="#4681FF"/>
<path id="_185" fill-rule="evenodd" clip-rule="evenodd" d="M9.00024 8.99985L10.9061 20.8463L10.5423 20.9006L9.00024 8.99985Z" fill="#4581FF"/>
<path id="_186" fill-rule="evenodd" clip-rule="evenodd" d="M9.00024 8.99985L10.6149 20.8898L10.2498 20.9345L9.00024 8.99985Z" fill="#4480FF"/>
<path id="_187" fill-rule="evenodd" clip-rule="evenodd" d="M9.00024 8.99985L10.3224 20.9257L9.95657 20.9617L9.00024 8.99985Z" fill="#437FFF"/>
<path id="_188" fill-rule="evenodd" clip-rule="evenodd" d="M9.00024 8.99985L10.0299 20.9549L9.66268 20.9821L9.00024 8.99985Z" fill="#427FFF"/>
<path id="_189" fill-rule="evenodd" clip-rule="evenodd" d="M9.00024 8.99985L9.73598 20.9766L9.36811 20.9943L9.00024 8.99985Z" fill="#417EFF"/>
<path id="_190" fill-rule="evenodd" clip-rule="evenodd" d="M9.00024 8.99985L9.44209 20.9909L9.07355 20.9997L9.00024 8.99985Z" fill="#407DFF"/>
<path id="_191" fill-rule="evenodd" clip-rule="evenodd" d="M9.00056 8.99985L9.14784 20.9977H8.7793L9.00056 8.99985Z" fill="#3F7DFF"/>
<path id="_192" fill-rule="evenodd" clip-rule="evenodd" d="M9.00026 8.99985L8.85298 20.9977L8.48511 20.9888L9.00026 8.99985Z" fill="#3E7CFF"/>
<path id="_193" fill-rule="evenodd" clip-rule="evenodd" d="M9.00015 8.99985L8.5583 20.9909L8.19043 20.9726L9.00015 8.99985Z" fill="#3D7BFF"/>
<path id="_194" fill-rule="evenodd" clip-rule="evenodd" d="M9.00063 8.99985L8.2649 20.9766L7.89771 20.9495L9.00063 8.99985Z" fill="#3C7BFF"/>
<path id="_195" fill-rule="evenodd" clip-rule="evenodd" d="M9.00038 8.99985L7.97076 20.9549L7.60425 20.9189L9.00038 8.99985Z" fill="#3B7AFF"/>
<path id="_196" fill-rule="evenodd" clip-rule="evenodd" d="M9 8.99985L7.67717 20.9257L7.31201 20.8809L9 8.99985Z" fill="#3A79FF"/>
<path id="_197" fill-rule="evenodd" clip-rule="evenodd" d="M9.00065 8.99985L7.38596 20.8898L7.02148 20.8355L9.00065 8.99985Z" fill="#3979FF"/>
<path id="_198" fill-rule="evenodd" clip-rule="evenodd" d="M9.00042 8.99985L7.09388 20.8463L6.73145 20.7839L9.00042 8.99985Z" fill="#3878FF"/>
<path id="_199" fill-rule="evenodd" clip-rule="evenodd" d="M9.00031 8.99985L6.80395 20.7961L6.44287 20.7241L9.00031 8.99985Z" fill="#3777FF"/>
<path id="_200" fill-rule="evenodd" clip-rule="evenodd" d="M9.0003 8.99985L6.51549 20.7384L6.15576 20.6583L9.0003 8.99985Z" fill="#3677FF"/>
<path id="_201" fill-rule="evenodd" clip-rule="evenodd" d="M9.00021 8.99985L6.22761 20.6746L5.87061 20.585L9.00021 8.99985Z" fill="#3576FF"/>
<path id="_202" fill-rule="evenodd" clip-rule="evenodd" d="M8.99998 8.99985L5.94164 20.6027L5.58667 20.5049L8.99998 8.99985Z" fill="#3475FF"/>
<path id="_203" fill-rule="evenodd" clip-rule="evenodd" d="M8.99996 8.99985L5.65792 20.5239L5.30566 20.4174L8.99996 8.99985Z" fill="#3375FF"/>
<path id="_204" fill-rule="evenodd" clip-rule="evenodd" d="M9.00011 8.99985L5.3764 20.4384L5.02686 20.323L9.00011 8.99985Z" fill="#3274FF"/>
<path id="_205" fill-rule="evenodd" clip-rule="evenodd" d="M9.00018 8.99985L5.09683 20.3461L4.75 20.2226L9.00018 8.99985Z" fill="#3173FF"/>
<path id="_206" fill-rule="evenodd" clip-rule="evenodd" d="M9.00021 8.99985L4.81926 20.247L4.47583 20.1146L9.00021 8.99985Z" fill="#3073FF"/>
<path id="_207" fill-rule="evenodd" clip-rule="evenodd" d="M9.00046 8.99985L4.54463 20.1411L4.20459 19.9999L9.00046 8.99985Z" fill="#2F72FF"/>
<path id="_208" fill-rule="evenodd" clip-rule="evenodd" d="M9.00049 8.99985L4.27249 20.0284L3.93652 19.8791L9.00049 8.99985Z" fill="#2E71FF"/>
<path id="_209" fill-rule="evenodd" clip-rule="evenodd" d="M9.00025 8.99985L4.00347 19.909L3.6709 19.7515L9.00025 8.99985Z" fill="#2D71FF"/>
<path id="_210" fill-rule="evenodd" clip-rule="evenodd" d="M9.00046 8.99985L3.73763 19.7834L3.40845 19.6178L9.00046 8.99985Z" fill="#2C70FF"/>
<path id="_211" fill-rule="evenodd" clip-rule="evenodd" d="M9.00002 8.99985L3.47384 19.6504L3.14941 19.4773L9.00002 8.99985Z" fill="#2B6FFF"/>
<path id="_212" fill-rule="evenodd" clip-rule="evenodd" d="M9.00053 8.99985L3.21508 19.5119L2.89404 19.3307L9.00053 8.99985Z" fill="#2A6EFF"/>
<path id="_213" fill-rule="evenodd" clip-rule="evenodd" d="M9.00044 8.99985L2.95843 19.3667L2.64282 19.1773L9.00044 8.99985Z" fill="#296EFF"/>
<path id="_214" fill-rule="evenodd" clip-rule="evenodd" d="M9.00007 8.99985L2.70558 19.2153L2.39404 19.0185L9.00007 8.99985Z" fill="#286DFF"/>
<path id="_215" fill-rule="evenodd" clip-rule="evenodd" d="M9.00008 8.99985L2.4565 19.0579L2.15039 18.8529L9.00008 8.99985Z" fill="#276CFF"/>
<path id="_216" fill-rule="evenodd" clip-rule="evenodd" d="M9.00017 8.99985L2.21156 18.8943L1.91089 18.6825L9.00017 8.99985Z" fill="#266CFF"/>
<path id="_217" fill-rule="evenodd" clip-rule="evenodd" d="M9.00034 8.99985L1.97146 18.7246L1.67554 18.5054L9.00034 8.99985Z" fill="#256BFF"/>
<path id="_218" fill-rule="evenodd" clip-rule="evenodd" d="M9.00034 8.99985L1.73459 18.5495L1.44409 18.3228L9.00034 8.99985Z" fill="#246AFF"/>
<path id="_219" fill-rule="evenodd" clip-rule="evenodd" d="M9.00052 8.99985L1.50265 18.3683L1.21826 18.1348L9.00052 8.99985Z" fill="#236AFF"/>
<path id="_220" fill-rule="evenodd" clip-rule="evenodd" d="M9.0003 8.99985L1.27505 18.181L0.996094 17.9407L9.0003 8.99985Z" fill="#2269FF"/>
<path id="_221" fill-rule="evenodd" clip-rule="evenodd" d="M9.00069 8.99985L1.05214 17.9889L0.779297 17.7418L9.00069 8.99985Z" fill="#2168FF"/>
<path id="_222" fill-rule="evenodd" clip-rule="evenodd" d="M9.00054 8.99985L0.834122 17.7914L0.567383 17.5375L9.00054 8.99985Z" fill="#2068FF"/>
<path id="_223" fill-rule="evenodd" clip-rule="evenodd" d="M9.00028 8.99985L0.620738 17.5878L0.360107 17.3278L9.00028 8.99985Z" fill="#1F67FF"/>
<path id="_224" fill-rule="evenodd" clip-rule="evenodd" d="M9.0002 8.99985L0.411612 17.3794L0.158447 17.1133L9.0002 8.99985Z" fill="#1E66FF"/>
<path id="_225" fill-rule="evenodd" clip-rule="evenodd" d="M9.00025 8.99985L0.208726 17.1663L-0.0383301 16.8934L9.00025 8.99985Z" fill="#1D66FF"/>
<path id="_226" fill-rule="evenodd" clip-rule="evenodd" d="M9.00054 8.99985L0.0115089 16.9484L-0.22876 16.6694L9.00054 8.99985Z" fill="#1C65FF"/>
<path id="_227" fill-rule="evenodd" clip-rule="evenodd" d="M9.00004 8.99985L-0.181069 16.7251L-0.414551 16.4407L9.00004 8.99985Z" fill="#1B64FF"/>
<path id="_228" fill-rule="evenodd" clip-rule="evenodd" d="M9.00046 8.99985L-0.367979 16.4977L-0.593994 16.2072L9.00046 8.99985Z" fill="#1A64FF"/>
<path id="_229" fill-rule="evenodd" clip-rule="evenodd" d="M9.00009 8.99985L-0.549571 16.2656L-0.768799 15.9697L9.00009 8.99985Z" fill="#1963FF"/>
<path id="_230" fill-rule="evenodd" clip-rule="evenodd" d="M9.00001 8.99985L-0.724761 16.0287L-0.936523 15.728L9.00001 8.99985Z" fill="#1862FF"/>
<path id="_231" fill-rule="evenodd" clip-rule="evenodd" d="M9.00012 8.99985L-0.894337 15.7885L-1.09863 15.4817L9.00012 8.99985Z" fill="#1762FF"/>
<path id="_232" fill-rule="evenodd" clip-rule="evenodd" d="M8.99997 8.99985L-1.05805 15.5434L-1.25488 15.2319L8.99997 8.99985Z" fill="#1661FF"/>
<path id="_233" fill-rule="evenodd" clip-rule="evenodd" d="M9.00031 8.99985L-1.21518 15.2943L-1.40454 14.9787L9.00031 8.99985Z" fill="#1560FF"/>
<path id="_234" fill-rule="evenodd" clip-rule="evenodd" d="M9.00046 8.99985L-1.36639 15.0419L-1.54761 14.7215L9.00046 8.99985Z" fill="#1460FF"/>
<path id="_235" fill-rule="evenodd" clip-rule="evenodd" d="M9.0003 8.99985L-1.51179 14.7853L-1.68555 14.4609L9.0003 8.99985Z" fill="#135FFF"/>
<path id="_236" fill-rule="evenodd" clip-rule="evenodd" d="M9 8.99985L-1.65123 14.526L-1.81616 14.1968L9 8.99985Z" fill="#125EFF"/>
<path id="_237" fill-rule="evenodd" clip-rule="evenodd" d="M9.00067 8.99985L-1.78291 14.2627L-1.9397 13.9301L9.00067 8.99985Z" fill="#115EFF"/>
<path id="_238" fill-rule="evenodd" clip-rule="evenodd" d="M9.00012 8.99985L-1.90903 13.9966L-2.05835 13.66L9.00012 8.99985Z" fill="#105DFF"/>
<path id="_239" fill-rule="evenodd" clip-rule="evenodd" d="M9.0001 8.99985L-2.0285 13.7272L-2.16968 13.3871L9.0001 8.99985Z" fill="#0F5CFF"/>
<path id="_240" fill-rule="evenodd" clip-rule="evenodd" d="M9.00043 8.99985L-2.14084 13.455L-2.27319 13.1116L9.00043 8.99985Z" fill="#0E5BFF"/>
<path id="_241" fill-rule="evenodd" clip-rule="evenodd" d="M9.00002 8.99985L-2.24713 13.1808L-2.37134 12.834L9.00002 8.99985Z" fill="#0D5BFF"/>
<path id="_242" fill-rule="evenodd" clip-rule="evenodd" d="M9.00069 8.99985L-2.34623 12.9032L-2.46094 12.5537L9.00069 8.99985Z" fill="#0C5AFF"/>
<path id="_243" fill-rule="evenodd" clip-rule="evenodd" d="M9.00062 8.99985L-2.43861 12.6236L-2.54517 12.2713L9.00062 8.99985Z" fill="#0B59FF"/>
<path id="_244" fill-rule="evenodd" clip-rule="evenodd" d="M9.00066 8.99985L-2.52409 12.3419L-2.62183 11.9869L9.00066 8.99985Z" fill="#0A59FF"/>
<path id="_245" fill-rule="evenodd" clip-rule="evenodd" d="M9.00001 8.99985L-2.60279 12.0582L-2.69238 11.7005L9.00001 8.99985Z" fill="#0958FF"/>
<path id="_246" fill-rule="evenodd" clip-rule="evenodd" d="M9.00044 8.99985L-2.67431 11.7724L-2.75439 11.4134L9.00044 8.99985Z" fill="#0857FF"/>
<path id="_247" fill-rule="evenodd" clip-rule="evenodd" d="M9.00019 8.99985L-2.73904 11.4847L-2.8103 11.1236L9.00019 8.99985Z" fill="#0757FF"/>
<path id="_248" fill-rule="evenodd" clip-rule="evenodd" d="M8.99999 8.99985L-2.79625 11.1962L-2.85938 10.8338L8.99999 8.99985Z" fill="#0656FF"/>
<path id="_249" fill-rule="evenodd" clip-rule="evenodd" d="M9.00062 8.99985L-2.84585 10.9057L-2.90015 10.5419L9.00062 8.99985Z" fill="#0555FF"/>
<path id="_250" fill-rule="evenodd" clip-rule="evenodd" d="M9.00013 8.99985L-2.88977 10.6145L-2.93457 10.2494L9.00013 8.99985Z" fill="#0455FF"/>
<path id="_251" fill-rule="evenodd" clip-rule="evenodd" d="M9.00042 8.99985L-2.92545 10.322L-2.96143 9.95617L9.00042 8.99985Z" fill="#0354FF"/>
<path id="_252" fill-rule="evenodd" clip-rule="evenodd" d="M9.00076 8.99985L-2.9543 10.0295L-2.98145 9.66228L9.00076 8.99985Z" fill="#0253FF"/>
<path id="_253" fill-rule="evenodd" clip-rule="evenodd" d="M9.00053 8.99985L-2.97625 9.73559L-2.9939 9.36772L9.00053 8.99985Z" fill="#0153FF"/>
<path id="_254" fill-rule="evenodd" clip-rule="evenodd" d="M9.00035 8.99985L-2.99069 9.4417L-2.99951 9.07315L9.00035 8.99985Z" fill="#0052FF"/>
<path id="_255" fill-rule="evenodd" clip-rule="evenodd" d="M9.00045 9.00007L-2.99805 9.14735V8.85278L9.00045 9.00007Z" fill="white"/>
</g>
</svg>
