<svg width="" height="" viewBox="0 0 25 25" fill="none" xmlns="http://www.w3.org/2000/svg">
<g clip-path="url(#clip0_2005_107)">
<mask id="mask0_2005_107" style="mask-type:luminance" maskUnits="userSpaceOnUse" x="0" y="0" width="25" height="25">
<path d="M0.184372 0.402718H24.1844V24.4027H0.184372V0.402718Z" fill="white"/>
</mask>
<g mask="url(#mask0_2005_107)">
<path d="M24.1844 0.402718H0.184372V24.4027H24.1844V0.402718Z" fill="#F0B90B"/>
<path d="M7.81937 6.85172L12.1844 4.40272L16.5484 6.85172L14.9484 7.75872L12.1844 6.21172L9.42437 7.75872L7.81937 6.85172ZM16.5494 9.94472L14.9494 9.03872L12.1844 10.5847L9.42437 9.03872L7.81937 9.94472V11.7547L10.5754 13.3007V16.3897L12.1844 17.2957L13.7884 16.3897V13.2997L16.5484 11.7537L16.5494 9.94472ZM16.5494 14.8477V13.0327L14.9494 13.9397V15.7487L16.5494 14.8477ZM17.6904 15.4877L14.9304 17.0297V18.8427L19.2954 16.3897V11.4917L17.6904 12.3937V15.4877ZM16.0864 8.39772L17.6864 9.30472V11.1147L19.2954 10.2117V8.39872L17.6904 7.49172L16.0864 8.40272V8.39772ZM10.5754 17.6877V19.4957L12.1844 20.4027L13.7884 19.4957V17.6927L12.1844 18.5927L10.5794 17.6857L10.5754 17.6877ZM7.81937 14.8427L9.41937 15.7497V13.9397L7.81937 13.0337V14.8467V14.8427ZM10.5754 8.39872L12.1844 9.30472L13.7884 8.39872L12.1844 7.49172L10.5794 8.40272L10.5754 8.39872ZM6.67737 9.30472L8.28237 8.39872L6.68237 7.49172L5.07237 8.40272V10.2157L6.67737 11.1187V9.30472ZM6.67737 12.3947L5.07337 11.4917V16.3897L9.43737 18.8427V17.0247L6.68237 15.4827V12.3897L6.67737 12.3947Z" fill="white"/>
</g>
</g>
<defs>
<clipPath id="clip0_2005_107">
<rect width="24" height="24" fill="white" transform="translate(0.184372 0.402718)"/>
</clipPath>
</defs>
</svg>
