<svg xmlns="http://www.w3.org/2000/svg" width="24" height="24" viewBox="0 0 24 24" fill="none">
<path d="M12 13C13.1046 13 14 12.1046 14 11C14 9.89543 13.1046 9 12 9C10.8954 9 10 9.89543 10 11C10 12.1046 10.8954 13 12 13Z" stroke="currentColor" stroke-width="1.5" stroke-linecap="round" stroke-linejoin="round"/>
<path d="M4.00001 17.001C2.69898 15.2711 1.9969 13.1645 2.00001 11C2.00001 5.477 6.47701 1 12 1C17.523 1 22 5.477 22 11C22 13.252 21.256 15.33 20 17.001" stroke="currentColor" stroke-width="1.5" stroke-linecap="round" stroke-linejoin="round"/>
<path d="M7.528 15.0002C6.75579 14.1369 6.24997 13.0685 6.07158 11.924C5.8932 10.7796 6.04989 9.60796 6.52274 8.5506C6.99558 7.49324 7.76437 6.59535 8.73629 5.9653C9.70822 5.33526 10.8417 5 12 5C13.1583 5 14.2918 5.33526 15.2637 5.9653C16.2356 6.59535 17.0044 7.49324 17.4773 8.5506C17.9501 9.60796 18.1068 10.7796 17.9284 11.924C17.75 13.0685 17.2442 14.1369 16.472 15.0002M9.952 17.8762C10.722 16.7582 11.108 16.1992 11.608 16.0562C11.864 15.9815 12.136 15.9815 12.392 16.0562C12.892 16.1992 13.278 16.7582 14.049 17.8762C15.074 19.3632 15.587 20.1072 15.488 20.7272C15.4391 21.0396 15.2953 21.3293 15.076 21.5572C14.646 22.0002 13.764 22.0002 12 22.0002C10.236 22.0002 9.354 22.0002 8.924 21.5562C8.7049 21.3286 8.56107 21.0392 8.512 20.7272C8.413 20.1072 8.926 19.3632 9.952 17.8762Z" stroke="currentColor" stroke-width="1.5" stroke-linecap="round" stroke-linejoin="round"/>
</svg>