<svg width="22" height="19" viewBox="0 0 22 19" fill="none" xmlns="http://www.w3.org/2000/svg">
<path d="M19.6234 0.5H1.6225C1.19079 0.5 0.785075 0.683296 0.471101 0.984173C0.17021 1.29813 0 1.7032 0 2.14798V16.852C0 17.2968 0.17021 17.7019 0.471101 18.0158C0.785075 18.3167 1.19079 18.5 1.6225 18.5H19.6234C20.0551 18.5 20.4608 18.3167 20.7748 18.0158C21.0757 17.7019 21.2459 17.2968 21.2459 16.852V2.14798C21.2459 1.7032 21.0757 1.29813 20.7748 0.984173C20.4608 0.683296 20.0551 0.5 19.6234 0.5ZM1.6225 11.9592H3.27056C3.47988 11.9592 3.68943 11.8677 3.84642 11.7107C3.99033 11.5537 4.08181 11.3576 4.08181 11.1352C4.08181 10.9128 3.99033 10.7167 3.84642 10.5597C3.68943 10.4027 3.47988 10.3112 3.27056 10.3112H1.6225V8.68879H3.27056C3.47988 8.68879 3.68943 8.59729 3.84642 8.44031C3.99033 8.28333 4.08181 8.08719 4.08181 7.8648C4.08181 7.64241 3.99033 7.44626 3.84642 7.28928C3.68943 7.1323 3.47988 7.04081 3.27056 7.04081H1.6225V5.41838H3.27056C3.47988 5.41838 3.68943 5.32689 3.84642 5.16991C3.99033 5.01293 4.08181 4.81678 4.08181 4.59439C4.08181 4.37201 3.99033 4.17586 3.84642 4.01888C3.68943 3.8619 3.47988 3.7704 3.27056 3.7704H1.6225V2.14798H5.71709V16.852H1.6225V11.9592ZM19.6234 16.852H7.35237V2.14798H19.6234V16.852Z" fill="#5C99F4"/>
</svg>
