<svg width="17" height="17" viewBox="0 0 17 17" fill="none" xmlns="http://www.w3.org/2000/svg">
<g clip-path="url(#clip0_1234_10715)">
<path d="M6.75977 10.8704C6.75977 8.98503 6.75977 8.04169 7.34577 7.45636C7.9311 6.87036 8.87443 6.87036 10.7598 6.87036H11.4264C13.3118 6.87036 14.2551 6.87036 14.8404 7.45636C15.4264 8.04169 15.4264 8.98503 15.4264 10.8704V11.537C15.4264 13.4224 15.4264 14.3657 14.8404 14.951C14.2551 15.537 13.3118 15.537 11.4264 15.537H10.7598C8.87443 15.537 7.9311 15.537 7.34577 14.951C6.75977 14.3657 6.75977 13.4224 6.75977 11.537V10.8704Z" stroke="currentColor" stroke-width="1.03125" stroke-linecap="round" stroke-linejoin="round"/>
<path d="M12.0938 6.87028C12.0918 4.89895 12.0624 3.87761 11.4884 3.17828C11.3777 3.04338 11.254 2.91968 11.1191 2.80895C10.3804 2.20361 9.28575 2.20361 7.09375 2.20361C4.90242 2.20361 3.80642 2.20361 3.06842 2.80895C2.93352 2.91968 2.80981 3.04338 2.69908 3.17828C2.09375 3.91695 2.09375 5.01161 2.09375 7.20361C2.09375 9.39495 2.09375 10.4909 2.69908 11.2289C2.80981 11.3638 2.93352 11.4876 3.06842 11.5983C3.76842 12.1716 4.78842 12.2023 6.76042 12.2036" stroke="currentColor" stroke-width="1.03125" stroke-linecap="round" stroke-linejoin="round"/>
</g>
<defs>
<clipPath id="clip0_1234_10715">
<rect width="16" height="16" fill="white" transform="translate(0.759766 0.870361)"/>
</clipPath>
</defs>
</svg>
