<svg width="17" height="17" viewBox="0 0 17 17" fill="none" xmlns="http://www.w3.org/2000/svg">
<path d="M9.06641 7.59985C9.06641 8.13029 8.85569 8.63899 8.48062 9.01407C8.10555 9.38914 7.59684 9.59985 7.06641 9.59985C6.53597 9.59985 6.02727 9.38914 5.65219 9.01407C5.27712 8.63899 5.06641 8.13029 5.06641 7.59985C5.06641 7.06942 5.27712 6.56071 5.65219 6.18564C6.02727 5.81057 6.53597 5.59985 7.06641 5.59985C7.59684 5.59985 8.10555 5.81057 8.48062 6.18564C8.85569 6.56071 9.06641 7.06942 9.06641 7.59985ZM8.06641 7.59985C8.06641 7.33464 7.96105 7.08028 7.77351 6.89275C7.58598 6.70521 7.33162 6.59985 7.06641 6.59985C6.80119 6.59985 6.54684 6.70521 6.3593 6.89275C6.17176 7.08028 6.06641 7.33464 6.06641 7.59985C6.06641 7.86507 6.17176 8.11942 6.3593 8.30696C6.54684 8.4945 6.80119 8.59985 7.06641 8.59985C7.33162 8.59985 7.58598 8.4945 7.77351 8.30696C7.96105 8.11942 8.06641 7.86507 8.06641 7.59985ZM1.06641 4.84985C1.06641 4.15985 1.62641 3.59985 2.31641 3.59985H11.8164C12.5064 3.59985 13.0664 4.15985 13.0664 4.84985V10.3499C13.0664 11.0399 12.5064 11.5999 11.8164 11.5999H2.31641C1.62641 11.5999 1.06641 11.0399 1.06641 10.3499V4.84985ZM2.31641 4.59985C2.2501 4.59985 2.18651 4.62619 2.13963 4.67308C2.09275 4.71996 2.06641 4.78355 2.06641 4.84985V5.59985H2.56641C2.69901 5.59985 2.82619 5.54718 2.91996 5.45341C3.01373 5.35964 3.06641 5.23246 3.06641 5.09985V4.59985H2.31641ZM2.06641 10.3499C2.06641 10.4879 2.17841 10.5999 2.31641 10.5999H3.06641V10.0999C3.06641 9.96725 3.01373 9.84007 2.91996 9.7463C2.82619 9.65253 2.69901 9.59985 2.56641 9.59985H2.06641V10.3499ZM4.06641 10.0999V10.5999H10.0664V10.0999C10.0664 9.70203 10.2244 9.3205 10.5057 9.03919C10.7871 8.75789 11.1686 8.59985 11.5664 8.59985H12.0664V6.59985H11.5664C11.1686 6.59985 10.7871 6.44182 10.5057 6.16051C10.2244 5.87921 10.0664 5.49768 10.0664 5.09985V4.59985H4.06641V5.09985C4.06641 5.49768 3.90837 5.87921 3.62707 6.16051C3.34576 6.44182 2.96423 6.59985 2.56641 6.59985H2.06641V8.59985H2.56641C2.96423 8.59985 3.34576 8.75789 3.62707 9.03919C3.90837 9.3205 4.06641 9.70203 4.06641 10.0999ZM11.0664 10.5999H11.8164C11.8827 10.5999 11.9463 10.5735 11.9932 10.5266C12.0401 10.4797 12.0664 10.4162 12.0664 10.3499V9.59985H11.5664C11.4338 9.59985 11.3066 9.65253 11.2129 9.7463C11.1191 9.84007 11.0664 9.96725 11.0664 10.0999V10.5999ZM12.0664 5.59985V4.84985C12.0664 4.78355 12.0401 4.71996 11.9932 4.67308C11.9463 4.62619 11.8827 4.59985 11.8164 4.59985H11.0664V5.09985C11.0664 5.23246 11.1191 5.35964 11.2129 5.45341C11.3066 5.54718 11.4338 5.59985 11.5664 5.59985H12.0664ZM4.56641 13.5999C4.24963 13.6 3.94094 13.4998 3.68459 13.3137C3.42824 13.1276 3.2374 12.8651 3.13941 12.5639C3.27807 12.5879 3.42041 12.5999 3.56641 12.5999H11.8164C12.4131 12.5999 12.9854 12.3628 13.4074 11.9408C13.8294 11.5189 14.0664 10.9466 14.0664 10.3499V5.68485C14.359 5.7883 14.6123 5.97994 14.7914 6.23336C14.9705 6.48679 15.0666 6.78953 15.0664 7.09985V10.3499C15.0664 10.7766 14.9823 11.1993 14.819 11.5936C14.6557 11.9879 14.4163 12.3462 14.1145 12.648C13.8127 12.9497 13.4544 13.1891 13.0601 13.3525C12.6658 13.5158 12.2432 13.5999 11.8164 13.5999H4.56641Z" fill="currentColor"/>
</svg>
