<svg width="17" height="16" viewBox="0 0 17 16" fill="none" xmlns="http://www.w3.org/2000/svg">
<g id="fluent:comment-text-20-regular">
<path id="Vector" d="M12.3313 11.0735H8.39533L4.97613 13.5999H4.97133V11.0735H3.69133C2.97453 11.0735 2.41133 10.5031 2.41133 9.8207V4.4527C2.41133 3.7703 2.97453 3.1999 3.69133 3.1999H12.3313C13.0481 3.1999 13.6113 3.7703 13.6113 4.4527V9.8207C13.6113 10.5031 13.0481 11.0735 12.3313 11.0735ZM4.33133 14.0831C4.59533 14.4327 5.09693 14.5039 5.45053 14.2431L8.65933 11.8735H12.3313C13.4801 11.8735 14.4113 10.9543 14.4113 9.8207V4.4527C14.4113 3.3191 13.4801 2.3999 12.3313 2.3999H3.69133C2.54253 2.3999 1.61133 3.3191 1.61133 4.4527V9.8207C1.61133 10.9551 2.54253 11.8735 3.69133 11.8735H4.17133V13.6103C4.17133 13.7807 4.22733 13.9463 4.33133 14.0831ZM7.61133 7.9999H12.0113C12.1174 7.9999 12.2192 7.95776 12.2942 7.88275C12.3692 7.80773 12.4113 7.70599 12.4113 7.5999C12.4113 7.49382 12.3692 7.39207 12.2942 7.31706C12.2192 7.24204 12.1174 7.1999 12.0113 7.1999H7.61133C7.50524 7.1999 7.4035 7.24204 7.32849 7.31706C7.25347 7.39207 7.21133 7.49382 7.21133 7.5999C7.21133 7.70599 7.25347 7.80773 7.32849 7.88275C7.4035 7.95776 7.50524 7.9999 7.61133 7.9999ZM6.01133 7.1999H4.01133C3.90524 7.1999 3.8035 7.24204 3.72849 7.31706C3.65347 7.39207 3.61133 7.49382 3.61133 7.5999C3.61133 7.70599 3.65347 7.80773 3.72849 7.88275C3.8035 7.95776 3.90524 7.9999 4.01133 7.9999H6.01133C6.11741 7.9999 6.21916 7.95776 6.29417 7.88275C6.36919 7.80773 6.41133 7.70599 6.41133 7.5999C6.41133 7.49382 6.36919 7.39207 6.29417 7.31706C6.21916 7.24204 6.11741 7.1999 6.01133 7.1999ZM4.01133 8.7999C3.90524 8.7999 3.8035 8.84204 3.72849 8.91706C3.65347 8.99207 3.61133 9.09382 3.61133 9.1999C3.61133 9.30599 3.65347 9.40773 3.72849 9.48275C3.8035 9.55776 3.90524 9.5999 4.01133 9.5999H8.41133C8.51742 9.5999 8.61916 9.55776 8.69417 9.48275C8.76919 9.40773 8.81133 9.30599 8.81133 9.1999C8.81133 9.09382 8.76919 8.99207 8.69417 8.91706C8.61916 8.84204 8.51742 8.7999 8.41133 8.7999H4.01133ZM10.0113 9.5999C9.90524 9.5999 9.8035 9.55776 9.72849 9.48275C9.65347 9.40773 9.61133 9.30599 9.61133 9.1999C9.61133 9.09382 9.65347 8.99207 9.72849 8.91706C9.8035 8.84204 9.90524 8.7999 10.0113 8.7999H12.0113C12.1174 8.7999 12.2192 8.84204 12.2942 8.91706C12.3692 8.99207 12.4113 9.09382 12.4113 9.1999C12.4113 9.30599 12.3692 9.40773 12.2942 9.48275C12.2192 9.55776 12.1174 9.5999 12.0113 9.5999H10.0113Z" fill="black" fill-opacity="0.5"/>
</g>
</svg>
