<svg width="20" height="15" viewBox="0 0 20 15" fill="none" xmlns="http://www.w3.org/2000/svg">
<path d="M16.2805 1.3869C15.0335 0.814614 13.7177 0.406165 12.3658 0.171733C12.3536 0.169671 12.341 0.171452 12.3298 0.176833C12.3186 0.182214 12.3093 0.19093 12.3033 0.201782C12.1338 0.502268 11.9463 0.895304 11.8153 1.203C10.3581 0.981854 8.87583 0.981854 7.4186 1.203C7.27246 0.860231 7.10713 0.525962 6.9234 0.201782C6.91724 0.191048 6.90796 0.182433 6.89681 0.177069C6.88565 0.171706 6.87313 0.169846 6.8609 0.171733C5.50871 0.40491 4.19258 0.813572 2.94617 1.3869C2.9355 1.39097 2.92658 1.39862 2.92093 1.40853C0.428095 5.13336 -0.255811 8.76684 0.0795313 12.3546C0.0807333 12.3715 0.0915508 12.3883 0.104772 12.3991C1.55639 13.4744 3.18006 14.2954 4.90654 14.827C4.91873 14.8309 4.93183 14.8307 4.94393 14.8266C4.95604 14.8225 4.96652 14.8147 4.97385 14.8042C5.34405 14.2994 5.67338 13.7669 5.95704 13.2068C5.96295 13.1953 5.96497 13.1821 5.96281 13.1694C5.96064 13.1566 5.9544 13.1448 5.94502 13.1359C5.93881 13.13 5.93144 13.1255 5.92338 13.1227C5.40554 12.9237 4.90401 12.6846 4.42336 12.4075C4.40993 12.3999 4.39995 12.3874 4.39547 12.3727C4.391 12.3579 4.39237 12.342 4.39932 12.3282C4.40341 12.3192 4.40959 12.3114 4.41735 12.3054C4.51831 12.2296 4.61927 12.1503 4.71543 12.071C4.72392 12.0641 4.73412 12.0598 4.74491 12.0583C4.75571 12.0568 4.76671 12.0583 4.77673 12.0626C7.92462 13.5001 11.3321 13.5001 14.4416 12.0626C14.4519 12.0581 14.4634 12.0565 14.4746 12.058C14.4858 12.0594 14.4964 12.0639 14.5053 12.071C14.6014 12.1503 14.7024 12.2296 14.8033 12.3054C14.8115 12.3113 14.8181 12.3193 14.8225 12.3284C14.8268 12.3375 14.8289 12.3476 14.8284 12.3577C14.8279 12.3679 14.825 12.3777 14.8197 12.3864C14.8145 12.3951 14.8072 12.4023 14.7985 12.4075C14.319 12.6871 13.8168 12.9259 13.2973 13.1215C13.289 13.1245 13.2815 13.1293 13.2753 13.1355C13.269 13.1417 13.2643 13.1493 13.2613 13.1575C13.2585 13.1656 13.2574 13.1741 13.258 13.1825C13.2586 13.191 13.2609 13.1993 13.2649 13.2068C13.5533 13.7657 13.8839 14.2994 14.2468 14.8042C14.2542 14.8147 14.2647 14.8225 14.2768 14.8266C14.2889 14.8307 14.302 14.8309 14.3142 14.827C16.0435 14.297 17.6698 13.4759 19.1231 12.3991C19.1304 12.3941 19.1365 12.3875 19.1408 12.3798C19.1452 12.3721 19.1478 12.3635 19.1484 12.3546C19.5498 8.20673 18.4765 4.6033 16.3046 1.40974C16.3024 1.40446 16.2991 1.3997 16.295 1.39577C16.2908 1.39184 16.2859 1.38881 16.2805 1.3869ZM6.427 10.1695C5.47866 10.1695 4.6986 9.2993 4.6986 8.23197C4.6986 7.16344 5.46424 6.29323 6.427 6.29323C7.39697 6.29323 8.16982 7.17065 8.15539 8.23197C8.15539 9.2993 7.38976 10.1695 6.427 10.1695ZM12.8165 10.1695C11.8694 10.1695 11.0881 9.2993 11.0881 8.23197C11.0881 7.16344 11.8538 6.29323 12.8165 6.29323C13.7865 6.29323 14.5606 7.17065 14.5449 8.23197C14.5449 9.2993 13.7865 10.1695 12.8165 10.1695Z" fill="#090909"/>
</svg>
