<svg xmlns="http://www.w3.org/2000/svg" width="10" height="10" viewBox="0 0 10 10" fill="none">
<path d="M0.357165 0.267578L9.64283 0.267577C9.7047 0.267573 9.76551 0.283148 9.81931 0.312775C9.8731 0.342402 9.91802 0.385063 9.94969 0.436582C9.98135 0.4881 9.99866 0.546705 9.99992 0.606659C10.0012 0.666613 9.98636 0.725856 9.9569 0.778584L5.31406 9.08624C5.28342 9.14108 5.23807 9.18689 5.18278 9.21881C5.1275 9.25073 5.06435 9.26758 5 9.26758C4.93565 9.26758 4.8725 9.25073 4.81722 9.21881C4.76194 9.18689 4.71658 9.14108 4.68594 9.08624L0.0431034 0.778585C0.0136377 0.725857 -0.00118903 0.666613 7.45831e-05 0.60666C0.0013382 0.546706 0.0186493 0.488101 0.0503122 0.436582C0.0819752 0.385064 0.126904 0.342402 0.180695 0.312776C0.234486 0.283149 0.295295 0.267574 0.357165 0.267578Z" fill="#EF1F1F"/>
</svg>