<svg width="17" height="17" viewBox="0 0 17 17" fill="none" xmlns="http://www.w3.org/2000/svg">
<path d="M14.0664 14.3999H6.73307C4.53307 14.3999 3.43307 14.3999 2.74974 13.7166C2.06641 13.0332 2.06641 11.9332 2.06641 9.73324V2.3999" stroke="currentColor" stroke-opacity="0.5" stroke-width="0.99585" stroke-linecap="round" stroke-linejoin="round"/>
<path d="M5.39974 7.06657C6.13612 7.06657 6.73307 6.46962 6.73307 5.73324C6.73307 4.99686 6.13612 4.3999 5.39974 4.3999C4.66336 4.3999 4.06641 4.99686 4.06641 5.73324C4.06641 6.46962 4.66336 7.06657 5.39974 7.06657Z" stroke="currentColor" stroke-opacity="0.5" stroke-width="0.99585" stroke-linecap="round" stroke-linejoin="round"/>
<path d="M7.73307 12.4C8.65355 12.4 9.39974 11.6538 9.39974 10.7333C9.39974 9.81284 8.65355 9.06665 7.73307 9.06665C6.8126 9.06665 6.06641 9.81284 6.06641 10.7333C6.06641 11.6538 6.8126 12.4 7.73307 12.4Z" stroke="currentColor" stroke-opacity="0.5" stroke-width="0.99585" stroke-linecap="round" stroke-linejoin="round"/>
<path d="M11.7318 7.73332C13.0204 7.73332 14.0651 6.68865 14.0651 5.39998C14.0651 4.11132 13.0204 3.06665 11.7318 3.06665C10.4431 3.06665 9.39844 4.11132 9.39844 5.39998C9.39844 6.68865 10.4431 7.73332 11.7318 7.73332Z" stroke="currentColor" stroke-opacity="0.5" stroke-width="0.99585" stroke-linecap="round" stroke-linejoin="round"/>
</svg>
