<svg width="19" height="19" viewBox="0 0 19 19" fill="none" xmlns="http://www.w3.org/2000/svg">
<path fill-rule="evenodd" clip-rule="evenodd" d="M7.72844 14.4319C7.69187 14.5772 6.77781 18 1.75 18C1.33579 18 1 17.6642 1 17.25C1 12.2222 4.42281 11.3081 4.56812 11.2716C4.97017 11.1711 5.37752 11.4156 5.47797 11.8177C5.57842 12.2197 5.33392 12.6271 4.93188 12.7275C4.8475 12.7509 2.83 13.3406 2.53562 16.4644C5.65938 16.17 6.25 14.1562 6.27437 14.0625C6.37793 13.661 6.78738 13.4194 7.18891 13.523C7.59044 13.6265 7.83199 14.036 7.72844 14.4375V14.4319ZM16.4472 8.11312L16 8.56031V14.0287C16.0023 14.4282 15.8442 14.8118 15.5613 15.0938L12.3438 18.3094C12.0635 18.5916 11.6821 18.7502 11.2844 18.75C11.1219 18.75 10.9604 18.7237 10.8062 18.6722C10.2664 18.4936 9.8746 18.0241 9.79562 17.4609L9.29219 13.8525L5.1475 9.70781L1.54094 9.20438C0.977097 9.12529 0.506636 8.73381 0.32641 8.19373C0.146184 7.65364 0.287267 7.05809 0.690625 6.65625L3.90625 3.43875C4.18818 3.1558 4.57182 2.99775 4.97125 3H10.4397L10.8869 2.55281C13.3881 0.0525 16.4022 -0.0553124 17.5816 0.0150001C18.3383 0.0609901 18.9418 0.664467 18.9878 1.42125C19.0562 2.59781 18.9484 5.61187 16.4481 8.11312H16.4472ZM1.75 7.71937L5.23281 8.205L8.93969 4.5H4.97125L1.75 7.71937ZM6.56125 9L10 12.4388L15.3859 7.05281C16.8544 5.59422 17.6208 3.57206 17.4878 1.50656C15.4235 1.37855 13.4042 2.14618 11.9462 3.61312L6.56125 9ZM14.5 10.0603L10.7941 13.7663L11.2816 17.25L14.5 14.0287V10.0603Z" fill="currentColor"/>
</svg>
