<svg xmlns="http://www.w3.org/2000/svg" width="16" height="16" viewBox="0 0 16 16" fill="none">
<path d="M2 4.66602H4M4 4.66602C4 4.04468 4 3.73402 4.10133 3.48935C4.16834 3.32747 4.2666 3.18038 4.39048 3.0565C4.51437 2.93261 4.66145 2.83436 4.82333 2.76735C5.068 2.66602 5.37867 2.66602 6 2.66602C6.62133 2.66602 6.932 2.66602 7.17667 2.76735C7.33855 2.83436 7.48563 2.93261 7.60952 3.0565C7.7334 3.18038 7.83166 3.32747 7.89867 3.48935C8 3.73402 8 4.04468 8 4.66602C8 5.28735 8 5.59802 7.89867 5.84268C7.83166 6.00456 7.7334 6.15165 7.60952 6.27553C7.48563 6.39942 7.33855 6.49767 7.17667 6.56468C6.932 6.66602 6.62133 6.66602 6 6.66602C5.37867 6.66602 5.068 6.66602 4.82333 6.56468C4.66145 6.49767 4.51437 6.39942 4.39048 6.27553C4.2666 6.15165 4.16834 6.00456 4.10133 5.84268C4 5.59802 4 5.28735 4 4.66602ZM2 11.3327H6M12 11.3327H14M12 11.3327C12 10.7113 12 10.4007 11.8987 10.156C11.8317 9.99414 11.7334 9.84705 11.6095 9.72317C11.4856 9.59928 11.3385 9.50102 11.1767 9.43402C10.932 9.33268 10.6213 9.33268 10 9.33268C9.37867 9.33268 9.068 9.33268 8.82333 9.43402C8.66145 9.50102 8.51437 9.59928 8.39048 9.72317C8.2666 9.84705 8.16834 9.99414 8.10133 10.156C8 10.4007 8 10.7113 8 11.3327C8 11.954 8 12.2647 8.10133 12.5093C8.16834 12.6712 8.2666 12.8183 8.39048 12.9422C8.51437 13.0661 8.66145 13.1643 8.82333 13.2313C9.068 13.3327 9.37867 13.3327 10 13.3327C10.6213 13.3327 10.932 13.3327 11.1767 13.2313C11.3385 13.1643 11.4856 13.0661 11.6095 12.9422C11.7334 12.8183 11.8317 12.6712 11.8987 12.5093C12 12.2647 12 11.954 12 11.3327ZM10 4.66602H14" stroke="currentColor" stroke-linecap="round" stroke-linejoin="round"/>
</svg>