<svg width="" height="" viewBox="0 0 17 16" fill="none" xmlns="http://www.w3.org/2000/svg">
  <g clip-path="url(#clip0_5508_13303)">
    <path
      d="M8 1.99977C8.13261 1.99977 8.25979 2.05245 8.35355 2.14622C8.44732 2.23999 8.5 2.36716 8.5 2.49977C8.5 2.63238 8.44732 2.75956 8.35355 2.85333C8.25979 2.94709 8.13261 2.99977 8 2.99977H5C4.60218 2.99977 4.22064 3.15781 3.93934 3.43911C3.65804 3.72042 3.5 4.10195 3.5 4.49977V11.4998C3.5 11.8976 3.65804 12.2791 3.93934 12.5604C4.22064 12.8417 4.60218 12.9998 5 12.9998H12C12.3978 12.9998 12.7794 12.8417 13.0607 12.5604C13.342 12.2791 13.5 11.8976 13.5 11.4998V9.49977C13.5 9.36716 13.5527 9.23999 13.6464 9.14622C13.7402 9.05245 13.8674 8.99977 14 8.99977C14.1326 8.99977 14.2598 9.05245 14.3536 9.14622C14.4473 9.23999 14.5 9.36716 14.5 9.49977V11.4998C14.5 12.1628 14.2366 12.7987 13.7678 13.2675C13.2989 13.7364 12.663 13.9998 12 13.9998H5C4.33696 13.9998 3.70107 13.7364 3.23223 13.2675C2.76339 12.7987 2.5 12.1628 2.5 11.4998V4.49977C2.5 3.83673 2.76339 3.20085 3.23223 2.73201C3.70107 2.26316 4.33696 1.99977 5 1.99977H8ZM11.28 1.04977C11.3642 1.00865 11.4582 0.992 11.5514 1.00172C11.6446 1.01145 11.7331 1.04715 11.807 1.10477L16.307 4.60477C16.3672 4.65151 16.416 4.7114 16.4495 4.77986C16.483 4.84832 16.5004 4.92354 16.5004 4.99977C16.5004 5.076 16.483 5.15122 16.4495 5.21969C16.416 5.28815 16.3672 5.34804 16.307 5.39477L11.807 8.89477C11.7331 8.95226 11.6445 8.98785 11.5514 8.99747C11.4583 9.0071 11.3643 8.99037 11.2802 8.94921C11.1961 8.90805 11.1252 8.84409 11.0757 8.76463C11.0262 8.68518 10.9999 8.59341 11 8.49977V7.02477C8.768 7.25477 7.376 8.99777 6.604 10.4238L6.447 10.7238C6.39655 10.8244 6.31361 10.9051 6.2116 10.9528C6.10958 11.0004 5.99448 11.0122 5.88491 10.9863C5.77534 10.9604 5.67773 10.8983 5.60787 10.81C5.53802 10.7217 5.50001 10.6124 5.5 10.4998C5.5 8.42377 6.018 6.55877 7.037 5.19977C7.975 3.94977 9.323 3.15277 11 3.02077V1.49977C10.9998 1.40606 11.026 1.31419 11.0755 1.23462C11.125 1.15506 11.1958 1.091 11.28 1.04977Z"
      fill="black" />
  </g>
  <defs>
    <clipPath id="clip0_5508_13303">
      <rect width="16" height="16" fill="white" transform="translate(0.5)" />
    </clipPath>
  </defs>
</svg>
