<svg width="16" height="16" viewBox="0 0 16 16" fill="none" xmlns="http://www.w3.org/2000/svg">
<g id="hugeicons:atom-01" clip-path="url(#clip0_934_7176)">
<g id="Group">
<path id="Vector" d="M7.99967 10.6667C9.47243 10.6667 10.6663 9.4728 10.6663 8.00004C10.6663 6.52728 9.47243 5.33337 7.99967 5.33337C6.52692 5.33337 5.33301 6.52728 5.33301 8.00004C5.33301 9.4728 6.52692 10.6667 7.99967 10.6667Z" stroke="black" stroke-opacity="0.5" stroke-linecap="round" stroke-linejoin="round"/>
<path id="Vector_2" d="M14.6663 6.00004H14.6597M1.33967 6.00004H1.33301M8.00301 14.6667H7.99634M5.03701 14C4.02674 13.509 3.15725 12.7701 2.50957 11.8524C1.8619 10.9346 1.45714 9.86779 1.33301 8.75138M10.9623 14C11.9726 13.509 12.8421 12.7701 13.4898 11.8524C14.1374 10.9346 14.5422 9.86779 14.6663 8.75138M3.70367 2.83804C4.89568 1.8652 6.38707 1.33386 7.92567 1.33386C9.46428 1.33386 10.9557 1.8652 12.1477 2.83804" stroke="black" stroke-opacity="0.5" stroke-linecap="round" stroke-linejoin="round"/>
</g>
</g>
<defs>
<clipPath id="clip0_934_7176">
<rect width="16" height="16" fill="white"/>
</clipPath>
</defs>
</svg>
