<svg width="25" height="24" viewBox="0 0 25 24" fill="none" xmlns="http://www.w3.org/2000/svg">
<g id="hugeicons:limitation">
<g id="Group">
<path id="Vector" d="M13.3994 10.4984L16.3994 5.99841" stroke="#090909" stroke-width="1.53557" stroke-linecap="round" stroke-linejoin="round"/>
<path id="Vector_2" d="M6.39844 4.99902C6.39844 4.99902 8.71318 2.99899 12.3984 2.99902C16.0837 2.99906 18.3984 4.99902 18.3984 4.99902" stroke="#FFD900" stroke-width="1.53557" stroke-linecap="round" stroke-linejoin="round"/>
<path id="Vector_3" d="M19.8984 6.49927C19.8984 6.49927 22.3984 8.84568 22.3984 12.4993C22.3984 16.1529 21.0174 18.5183 18.8434 20.3193C18.2584 20.8033 17.9664 21.0453 17.5434 20.9923C17.1214 20.9393 16.9124 20.6963 16.3984 19.9993" stroke="#1FEF80" stroke-width="1.53557" stroke-linecap="round" stroke-linejoin="round"/>
<path id="Vector_4" d="M12.3965 13.499C13.2249 13.499 13.8965 12.8275 13.8965 11.999C13.8965 11.1706 13.2249 10.499 12.3965 10.499C11.5681 10.499 10.8965 11.1706 10.8965 11.999C10.8965 12.8275 11.5681 13.499 12.3965 13.499Z" stroke="black" stroke-width="1.53557" stroke-linecap="round" stroke-linejoin="round"/>
<path id="Vector_5" d="M4.89941 6.49927C4.89941 6.49927 2.39941 8.84568 2.39941 12.4993C2.39941 16.1529 3.78041 18.5183 5.95441 20.3193C6.53941 20.8033 6.83141 21.0453 7.25441 20.9923C7.67641 20.9393 7.88541 20.6963 8.39941 19.9993" stroke="#EF1F1F" stroke-width="1.53557" stroke-linecap="round" stroke-linejoin="round"/>
</g>
</g>
</svg>
