<svg xmlns="http://www.w3.org/2000/svg" width="25" height="24" viewBox="0 0 25 24" fill="none">
<path d="M6.95312 17.976C7.08212 19.284 7.37313 20.165 8.03013 20.822C9.20913 22.001 11.1071 22.001 14.9021 22.001C18.6971 22.001 20.5951 22.001 21.7741 20.821C22.9531 19.644 22.9531 17.746 22.9531 13.951C22.9531 10.156 22.9531 8.25795 21.7731 7.07895C21.1171 6.42195 20.2361 6.13095 18.9271 6.00195" stroke="currentColor" stroke-width="1.5" stroke-linecap="round" stroke-linejoin="round"/>
<path d="M2.95312 10C2.95312 6.229 2.95312 4.343 4.12512 3.172C5.29712 2.001 7.18213 2 10.9531 2C14.7241 2 16.6101 2 17.7811 3.172C18.9521 4.344 18.9531 6.229 18.9531 10C18.9531 13.771 18.9531 15.657 17.7811 16.828C16.6091 17.999 14.7241 18 10.9531 18C7.18213 18 5.29612 18 4.12512 16.828C2.95412 15.656 2.95312 13.771 2.95312 10Z" stroke="currentColor" stroke-width="1.5" stroke-linecap="round" stroke-linejoin="round"/>
<path d="M2.95312 11.119C3.57407 11.041 4.1993 11.0019 4.82512 11.002C7.47712 10.953 10.0641 11.676 12.1251 13.042C14.0341 14.31 15.3771 16.053 15.9531 18M13.9531 7H13.9621" stroke="currentColor" stroke-width="1.5" stroke-linecap="round" stroke-linejoin="round"/>
</svg>