<svg width="17" height="17" viewBox="0 0 17 17" fill="none" xmlns="http://www.w3.org/2000/svg">
<g clip-path="url(#clip0_828_5467)">
<path d="M12.3886 14.3999H11.2033C11.0652 14.4024 10.9281 14.3763 10.8006 14.3232C10.3893 14.1392 10.1806 13.8966 10.0826 13.7439C10.0562 13.7014 10.0433 13.6518 10.0456 13.6018C10.048 13.5518 10.0656 13.5037 10.0959 13.4639C10.5726 12.8052 11.6779 12.4072 12.3893 12.4072M12.3906 14.4006H13.5766C13.7139 14.4006 13.8519 14.3799 13.9786 14.3232C14.3906 14.1392 14.5993 13.8966 14.6966 13.7439C14.7232 13.7015 14.7362 13.6519 14.7339 13.6019C14.7316 13.5519 14.7142 13.5038 14.6839 13.4639C14.2073 12.8052 13.1013 12.4072 12.3906 12.4072M3.74394 8.06124H2.55794C2.42061 8.06124 2.28261 8.04124 2.15594 7.98457C1.74394 7.80057 1.53528 7.5579 1.43794 7.4059C1.41139 7.36346 1.39838 7.31394 1.40064 7.26393C1.40291 7.21392 1.42033 7.16577 1.45061 7.1259C1.92728 6.46657 3.03328 6.06857 3.74394 6.06857M3.74594 8.0619H4.93128C5.06928 8.0619 5.20728 8.0419 5.33394 7.98457C5.74528 7.80057 5.95394 7.5579 6.05194 7.4059C6.0784 7.36339 6.0913 7.31384 6.08892 7.26382C6.08653 7.21381 6.06899 7.1657 6.03861 7.1259C5.56194 6.46657 4.45661 6.06857 3.74528 6.06857M7.72528 3.06657C9.60061 3.06657 11.2006 3.06657 11.7833 3.65257C12.3659 4.23857 12.3659 4.8479 12.3659 6.73457L11.0399 6.0679M8.05661 13.7372C6.18128 13.7372 4.58128 13.7372 3.99861 13.1506C3.41594 12.5652 3.41594 11.9552 3.41594 10.0692L4.74194 10.7359M3.74728 2.3999C3.19794 2.3999 2.75261 2.8479 2.75261 3.3999C2.75261 3.95324 3.19794 4.40057 3.74728 4.40057C4.29661 4.40057 4.74194 3.95257 4.74194 3.40057C4.74194 2.84657 4.29661 2.3999 3.74728 2.3999ZM12.3659 8.73524C11.8166 8.73524 11.3713 9.18324 11.3713 9.73524C11.3713 10.2886 11.8166 10.7352 12.3659 10.7352C12.9153 10.7352 13.3599 10.2886 13.3599 9.73524C13.3599 9.18324 12.9153 8.73524 12.3659 8.73524Z" stroke="currentColor" stroke-opacity="0.5" stroke-width="1.05" stroke-linecap="round" stroke-linejoin="round"/>
</g>
<defs>
<clipPath id="clip0_828_5467">
<rect width="16" height="16" fill="currentColor" transform="translate(0.0664062 0.399902)"/>
</clipPath>
</defs>
</svg>
