<svg width="" height="" viewBox="0 0 24 24" fill="none" xmlns="http://www.w3.org/2000/svg">
  <path
    d="M14.9666 2.02812C14.5677 1.66242 14.043 1.46483 13.5019 1.47657C12.9609 1.48831 12.4453 1.70846 12.0626 2.09112L2.13859 12.0166C1.94356 12.2116 1.78886 12.4431 1.68331 12.6979C1.57776 12.9527 1.52344 13.2258 1.52344 13.5016C1.52344 13.7774 1.57776 14.0505 1.68331 14.3053C1.78886 14.5601 1.94356 14.7916 2.13859 14.9866L3.52759 16.3741C4.04809 16.8961 4.79659 16.7701 5.23759 16.4761C5.55493 16.2652 5.9355 16.1706 6.31466 16.2084C6.69383 16.2462 7.04822 16.4141 7.31766 16.6836C7.5871 16.953 7.75498 17.3074 7.79279 17.6866C7.8306 18.0657 7.73602 18.4463 7.52509 18.7636C7.23259 19.2046 7.10659 19.9546 7.62709 20.4751L8.98459 21.8311C9.18335 22.0301 9.42005 22.1871 9.68064 22.2928C9.94123 22.3986 10.2204 22.4509 10.5016 22.4467C10.7828 22.4425 11.0603 22.3819 11.3176 22.2684C11.5749 22.1549 11.8069 21.9909 11.9996 21.7861L21.8966 11.2681C22.0871 11.0657 22.2355 10.8274 22.3333 10.5671C22.431 10.3069 22.4761 10.0298 22.4659 9.75199C22.4557 9.47418 22.3905 9.20115 22.2739 8.94874C22.1574 8.69634 21.9919 8.46958 21.7871 8.28162L20.4566 7.06212C20.3105 6.93161 20.1361 6.83695 19.947 6.78566C19.758 6.73436 19.5596 6.72784 19.3676 6.76662C19.0271 6.82662 18.7046 7.00662 18.4706 7.26162C18.3241 7.42138 18.1476 7.55072 17.9512 7.64227C17.7548 7.73381 17.5422 7.78577 17.3257 7.79517C17.1092 7.80457 16.8929 7.77124 16.6893 7.69706C16.4856 7.62289 16.2986 7.50933 16.1388 7.36287C15.9791 7.21642 15.8497 7.03993 15.7582 6.84349C15.6667 6.64704 15.6147 6.43449 15.6053 6.21797C15.5959 6.00145 15.6292 5.78519 15.7034 5.58155C15.7776 5.37791 15.8911 5.19088 16.0376 5.03112C16.2731 4.77912 16.4246 4.44162 16.4561 4.09662C16.4779 3.90194 16.454 3.70485 16.3863 3.52102C16.3186 3.33719 16.2089 3.17167 16.0661 3.03762L14.9666 2.02812Z"
    fill="currentColor" />
</svg>
