<svg width="" height="" viewBox="0 0 16 16" fill="none" xmlns="http://www.w3.org/2000/svg">
<path d="M13.7754 5.90012C14.1687 4.54012 14.058 3.36012 13.3487 2.65079C11.8494 1.15145 8.23937 2.33079 5.2847 5.28479C4.97556 5.59367 4.68038 5.91621 4.40004 6.25145M11.6 9.74945C11.3258 10.0766 11.0309 10.3986 10.7154 10.7155C7.7607 13.6695 4.1507 14.8488 2.6507 13.3488C1.8907 12.5888 1.8187 11.2855 2.3187 9.80012" stroke="#999999" stroke-linecap="round" stroke-linejoin="round"/>
<path d="M8.44989 6.20004L7.28322 7.58004C7.13989 7.76537 7.06922 7.85737 7.11322 7.9287C7.15722 8.00004 7.28589 8.00004 7.54255 8.00004H8.45789C8.71455 8.00004 8.84322 8.00004 8.88722 8.07137C8.93122 8.1427 8.86055 8.2347 8.71722 8.42004L7.54255 9.80004M6.49989 11.804C6.07489 11.464 5.66915 11.1005 5.28455 10.7154C2.33055 7.7607 1.15122 4.1507 2.65122 2.6507C3.41122 1.8907 4.71455 1.8187 6.19989 2.3187M9.49989 13.574C11.1086 14.1874 12.5379 14.1607 13.3492 13.3494C14.8486 11.8494 13.6692 8.23937 10.7152 5.2847C10.3306 4.89955 9.92488 4.53609 9.49989 4.19604" stroke="#999999" stroke-linecap="round" stroke-linejoin="round"/>
</svg>
