<svg width="" height="" viewBox="0 0 16 16" fill="none" xmlns="http://www.w3.org/2000/svg">
<path d="M5.33398 8.99935H10.6673M5.33398 5.66602H8.00065M4.06665 12.666C3.20043 12.5807 2.54998 12.3202 2.11532 11.8847C1.33398 11.104 1.33398 9.84668 1.33398 7.33268V6.99935C1.33398 4.48535 1.33398 3.22802 2.11532 2.44735C2.89665 1.66668 4.15332 1.66602 6.66732 1.66602H9.33398C11.848 1.66602 13.1053 1.66602 13.886 2.44735C14.6667 3.22868 14.6673 4.48535 14.6673 6.99935V7.33268C14.6673 9.84668 14.6673 11.104 13.886 11.8847C13.1047 12.6653 11.848 12.666 9.33398 12.666C8.96065 12.674 8.66265 12.7027 8.37065 12.7693C7.57132 12.9533 6.83132 13.3627 6.10065 13.7187C5.05865 14.2267 4.53798 14.4807 4.21132 14.2427C3.58598 13.7773 4.19732 12.334 4.33398 11.666" stroke="#999999" stroke-linecap="round" stroke-linejoin="round"/>
</svg>
