<svg width="17" height="16" viewBox="0 0 17 16" fill="none" xmlns="http://www.w3.org/2000/svg">
<g id="fluent:accessibility-checkmark-48-regular">
<path id="Vector" d="M7.17927 3.49992C7.17921 3.74853 7.24866 3.9922 7.37978 4.20342C7.51089 4.41464 7.69845 4.585 7.92127 4.69525L8.08527 4.75492C8.36151 4.8555 8.66436 4.8555 8.9406 4.75492L9.10427 4.69525C9.31723 4.5898 9.49813 4.42935 9.62826 4.23051C9.75839 4.03167 9.83301 3.80166 9.8444 3.5643C9.85579 3.32693 9.80354 3.09084 9.69305 2.88045C9.58256 2.67006 9.41785 2.49302 9.21597 2.36766C9.01409 2.24231 8.78237 2.17318 8.5448 2.16744C8.30723 2.1617 8.07245 2.21956 7.86475 2.33503C7.65705 2.45049 7.48398 2.61937 7.36346 2.82418C7.24295 3.02898 7.17935 3.26228 7.17927 3.49992ZM6.44794 4.15892C6.3442 3.83401 6.31863 3.48919 6.37331 3.15254C6.428 2.81588 6.56139 2.49689 6.76263 2.22151C6.96387 1.94614 7.22728 1.72217 7.53143 1.56782C7.83558 1.41346 8.17187 1.3331 8.51294 1.33325C8.85401 1.3331 9.1903 1.41346 9.49444 1.56782C9.79859 1.72217 10.062 1.94614 10.2632 2.22151C10.4645 2.49689 10.5979 2.81588 10.6526 3.15254C10.7072 3.48919 10.6817 3.83401 10.5779 4.15892L12.6113 3.41892C12.7861 3.35529 12.9718 3.32673 13.1576 3.33485C13.3435 3.34297 13.526 3.38763 13.6946 3.46626C13.8632 3.5449 14.0147 3.65598 14.1404 3.79315C14.266 3.93033 14.3635 4.09092 14.4271 4.26575C14.4907 4.44059 14.5193 4.62624 14.5112 4.81211C14.503 4.99799 14.4584 5.18044 14.3798 5.34905C14.3011 5.51767 14.19 5.66915 14.0529 5.79483C13.9157 5.92052 13.7551 6.01796 13.5803 6.08159L10.8466 7.07659V7.44892C10.5597 7.51677 10.2805 7.61371 10.0133 7.73825V7.01825C10.0132 6.86432 10.0605 6.71409 10.1488 6.58797C10.237 6.46184 10.362 6.36593 10.5066 6.31325L13.2953 5.29859C13.3673 5.27239 13.4334 5.23226 13.4899 5.1805C13.5464 5.12874 13.5922 5.06636 13.6246 4.99691C13.657 4.92747 13.6754 4.85233 13.6787 4.77578C13.6821 4.69922 13.6703 4.62276 13.6441 4.55075C13.6179 4.47874 13.5778 4.4126 13.526 4.3561C13.4743 4.2996 13.4119 4.25385 13.3424 4.22145C13.273 4.18906 13.1978 4.17066 13.1213 4.16731C13.0447 4.16396 12.9683 4.17572 12.8963 4.20192L9.4296 5.46359C9.14256 5.59744 8.82966 5.66673 8.51294 5.66659C8.1961 5.66678 7.88308 5.59749 7.59594 5.46359L4.1296 4.20225C3.98422 4.14934 3.82377 4.15635 3.68356 4.22174C3.54334 4.28713 3.43485 4.40554 3.38194 4.55092C3.32903 4.6963 3.33604 4.85675 3.40142 4.99696C3.46681 5.13718 3.58522 5.24568 3.7306 5.29859L6.51927 6.31325C6.66386 6.36591 6.78875 6.46177 6.877 6.58783C6.96525 6.71389 7.01259 6.86404 7.0126 7.01792V8.67259C7.01223 8.89725 6.96902 9.11978 6.88527 9.32825L5.3886 13.0323C5.35991 13.1033 5.34549 13.1793 5.34617 13.2559C5.34685 13.3325 5.36261 13.4083 5.39256 13.4788C5.4225 13.5493 5.46605 13.6133 5.5207 13.667C5.57536 13.7207 5.64006 13.7631 5.7111 13.7918C5.78215 13.8204 5.85815 13.8349 5.93477 13.8342C6.01138 13.8335 6.08712 13.8177 6.15764 13.7878C6.22817 13.7579 6.29211 13.7143 6.34581 13.6597C6.3995 13.605 6.44191 13.5403 6.4706 13.4693L7.6706 10.4993C7.56471 10.8793 7.51121 11.2721 7.5116 11.6666C7.5116 12.0473 7.5606 12.4163 7.65294 12.7679L7.24327 13.7813C7.10253 14.1297 6.82915 14.4079 6.48327 14.5547C6.13739 14.7016 5.74734 14.705 5.39894 14.5643C5.05053 14.4235 4.7723 14.1501 4.62546 13.8043C4.47862 13.4584 4.47519 13.0683 4.61594 12.7199L6.1126 9.01592C6.1566 8.90692 6.17927 8.79025 6.17927 8.67259V7.07659L3.4456 6.08159C3.27003 6.01852 3.10864 5.9214 2.97069 5.7958C2.83275 5.6702 2.72098 5.51859 2.64178 5.34967C2.56259 5.18076 2.51754 4.99786 2.50922 4.81149C2.5009 4.62512 2.52947 4.43894 2.5933 4.26364C2.65713 4.08834 2.75495 3.92737 2.88115 3.78998C3.00735 3.65258 3.15944 3.54147 3.3287 3.46301C3.49796 3.38455 3.68105 3.3403 3.86745 3.33279C4.05386 3.32528 4.23992 3.35467 4.41494 3.41925L6.44794 4.15892ZM15.5116 11.6666C15.5116 13.6916 13.8699 15.3333 11.8449 15.3333C9.81994 15.3333 8.17827 13.6916 8.17827 11.6666C8.17827 9.64159 9.81994 7.99992 11.8449 7.99992C13.8699 7.99992 15.5116 9.64159 15.5116 11.6666ZM14.0806 10.0976C14.0181 10.0351 13.9333 9.99999 13.8449 9.99999C13.7565 9.99999 13.6718 10.0351 13.6093 10.0976L11.1783 12.5286L10.0806 11.4309C10.0177 11.3702 9.93354 11.3366 9.84614 11.3374C9.75874 11.3381 9.67513 11.3732 9.61333 11.435C9.55153 11.4968 9.51647 11.5804 9.51571 11.6678C9.51495 11.7552 9.54855 11.8394 9.60927 11.9023L10.9426 13.2356C11.0051 13.2981 11.0899 13.3332 11.1783 13.3332C11.2667 13.3332 11.3514 13.2981 11.4139 13.2356L14.0806 10.5689C14.1431 10.5064 14.1782 10.4216 14.1782 10.3333C14.1782 10.2449 14.1431 10.1601 14.0806 10.0976Z" fill="black" fill-opacity="0.5"/>
</g>
</svg>
