<svg width="16" height="17" viewBox="0 0 16 17" fill="none" xmlns="http://www.w3.org/2000/svg">
<path d="M8.00065 4.00064L7.64065 4.34731C7.68729 4.3957 7.74321 4.43419 7.80507 4.46048C7.86692 4.48677 7.93344 4.50032 8.00065 4.50032C8.06786 4.50032 8.13438 4.48677 8.19624 4.46048C8.25809 4.43419 8.31401 4.3957 8.36065 4.34731L8.00065 4.00064ZM6.28465 12.5486C5.27398 11.752 4.16932 10.974 3.29265 9.98731C2.43398 9.01931 1.83398 7.89064 1.83398 6.42531H0.833984C0.833984 8.20264 1.57398 9.55864 2.54532 10.6513C3.49865 11.7246 4.71465 12.5846 5.66532 13.334L6.28465 12.5486ZM1.83398 6.42531C1.83398 4.99198 2.64398 3.78931 3.74998 3.28331C4.82465 2.79198 6.26865 2.92198 7.64065 4.34731L8.36065 3.65464C6.73398 1.96331 4.84332 1.68398 3.33398 2.37398C1.85798 3.04931 0.833984 4.61731 0.833984 6.42531H1.83398ZM5.66532 13.334C6.00732 13.6033 6.37398 13.89 6.74532 14.1073C7.11665 14.3246 7.54065 14.5006 8.00065 14.5006V13.5006C7.79398 13.5006 7.55132 13.4206 7.24998 13.244C6.94798 13.068 6.63532 12.8253 6.28465 12.5486L5.66532 13.334ZM10.336 13.334C11.2867 12.584 12.5027 11.7253 13.456 10.6513C14.4273 9.55797 15.1673 8.20264 15.1673 6.42531H14.1673C14.1673 7.89064 13.5673 9.01931 12.7087 9.98731C11.832 10.974 10.7273 11.752 9.71665 12.5486L10.336 13.334ZM15.1673 6.42531C15.1673 4.61731 14.144 3.04931 12.6673 2.37398C11.158 1.68398 9.26865 1.96331 7.64065 3.65398L8.36065 4.34731C9.73265 2.92264 11.1767 2.79198 12.2513 3.28331C13.3573 3.78931 14.1673 4.99131 14.1673 6.42531H15.1673ZM9.71665 12.5486C9.36598 12.8253 9.05332 13.068 8.75132 13.244C8.44932 13.42 8.20732 13.5006 8.00065 13.5006V14.5006C8.46065 14.5006 8.88465 14.324 9.25598 14.1073C9.62798 13.89 9.99398 13.6033 10.336 13.334L9.71665 12.5486Z" fill="#999999"/>
</svg>
