<svg width="19" height="21" viewBox="0 0 19 21" fill="none" xmlns="http://www.w3.org/2000/svg">
<path d="M15.7641 6.09263C15.7641 6.09263 15.8162 6.04055 15.9204 5.93638C16.0245 5.83222 16.0766 5.63132 16.0766 5.3337C16.0766 5.03609 15.9725 4.78311 15.7641 4.57478C15.5558 4.36644 15.3028 4.26228 15.0052 4.26228C14.7076 4.26228 14.4546 4.36644 14.2463 4.57478C14.0379 4.78311 13.9338 5.03609 13.9338 5.3337C13.9338 5.63132 14.0379 5.8843 14.2463 6.09263C14.4546 6.30097 14.7076 6.40513 15.0052 6.40513C15.3028 6.40513 15.5558 6.30097 15.7641 6.09263ZM18.5766 2.11942C18.5766 3.9721 18.2957 5.57366 17.734 6.92411C17.1722 8.27455 16.2292 9.6157 14.9047 10.9475C14.3021 11.5428 13.5766 12.1975 12.7284 12.9118L12.5052 17.1417C12.4903 17.2608 12.4308 17.3575 12.3266 17.4319L8.04091 19.9319C7.98883 19.9617 7.9293 19.9766 7.86234 19.9766C7.77305 19.9766 7.68749 19.9431 7.60564 19.8761L6.89136 19.1618C6.79463 19.0577 6.76487 18.9386 6.80207 18.8047L7.75073 15.7243L4.61457 12.5882L1.53421 13.5368C1.51189 13.5443 1.47841 13.548 1.43377 13.548C1.3296 13.548 1.24403 13.5145 1.17707 13.4475L0.462785 12.7333C0.336297 12.5919 0.317696 12.4468 0.406981 12.298L2.90698 8.01228C2.98139 7.90811 3.07811 7.84859 3.19716 7.8337L7.42707 7.61049C8.14136 6.76228 8.79612 6.03683 9.39136 5.43415C10.7902 4.04278 12.122 3.08296 13.3869 2.55469C14.6518 2.02641 16.2552 1.76228 18.1972 1.76228C18.3013 1.76228 18.3906 1.79762 18.465 1.8683C18.5394 1.93899 18.5766 2.02269 18.5766 2.11942Z" fill="url(#paint0_linear_3001_4447)"/>
<defs>
<linearGradient id="paint0_linear_3001_4447" x1="0.351562" y1="10.8694" x2="18.5766" y2="10.8694" gradientUnits="userSpaceOnUse">
<stop stop-color="#88BBF3"/>
<stop offset="1" stop-color="#5C99F4"/>
</linearGradient>
</defs>
</svg>
