<svg width="16" height="17" viewBox="0 0 16 17" fill="none" xmlns="http://www.w3.org/2000/svg">
<path d="M14.6694 4.78097C14.836 4.94764 14.9194 5.15002 14.9194 5.38811C14.9194 5.62621 14.836 5.82859 14.6694 5.99526L8.20508 12.4595L6.99079 13.6738C6.82413 13.8405 6.62175 13.9238 6.38365 13.9238C6.14555 13.9238 5.94317 13.8405 5.77651 13.6738L4.56222 12.4595L1.33008 9.2274C1.16341 9.06073 1.08008 8.85835 1.08008 8.62026C1.08008 8.38216 1.16341 8.17978 1.33008 8.01311L2.54436 6.79883C2.71103 6.63216 2.91341 6.54883 3.15151 6.54883C3.3896 6.54883 3.59198 6.63216 3.75865 6.79883L6.38365 9.43276L12.2408 3.56668C12.4075 3.40002 12.6098 3.31668 12.8479 3.31668C13.086 3.31668 13.2884 3.40002 13.4551 3.56668L14.6694 4.78097Z" fill="url(#paint0_linear_3001_4453)"/>
<defs>
<linearGradient id="paint0_linear_3001_4453" x1="1.08008" y1="8.62026" x2="14.9194" y2="8.62026" gradientUnits="userSpaceOnUse">
<stop stop-color="#88BBF3"/>
<stop offset="1" stop-color="#5C99F4"/>
</linearGradient>
</defs>
</svg>
