<svg width="16" height="17" viewBox="0 0 16 17" fill="none" xmlns="http://www.w3.org/2000/svg">
<path d="M5.33398 9.33333H10.6673M5.33398 6H8.00065M4.06665 13C3.20043 12.9147 2.54998 12.6542 2.11532 12.2187C1.33398 11.438 1.33398 10.1807 1.33398 7.66667V7.33333C1.33398 4.81933 1.33398 3.562 2.11532 2.78133C2.89665 2.00067 4.15332 2 6.66732 2H9.33398C11.848 2 13.1053 2 13.886 2.78133C14.6667 3.56267 14.6673 4.81933 14.6673 7.33333V7.66667C14.6673 10.1807 14.6673 11.438 13.886 12.2187C13.1047 12.9993 11.848 13 9.33398 13C8.96065 13.008 8.66265 13.0367 8.37065 13.1033C7.57132 13.2873 6.83132 13.6967 6.10065 14.0527C5.05865 14.5607 4.53798 14.8147 4.21132 14.5767C3.58598 14.1113 4.19732 12.668 4.33398 12" stroke="#999999" stroke-linecap="round" stroke-linejoin="round"/>
</svg>
