<svg width="15" height="21" viewBox="0 0 15 21" fill="none" xmlns="http://www.w3.org/2000/svg">
<path d="M14.2935 15.9487C14.2935 16.7597 14.061 17.4554 13.596 18.0357C13.131 18.6161 12.5711 18.9062 11.9163 18.9062H2.38504C1.73028 18.9062 1.17039 18.6161 0.705357 18.0357C0.240327 17.4554 0.0078125 16.7597 0.0078125 15.9487C0.0078125 15.3162 0.0394345 14.7191 0.102679 14.1574C0.165923 13.5956 0.28311 13.0301 0.454241 12.4609C0.625372 11.8917 0.843006 11.4044 1.10714 10.9989C1.37128 10.5934 1.72098 10.2623 2.15625 10.0056C2.59152 9.74888 3.09189 9.62054 3.65737 9.62054C4.63207 10.5729 5.7965 11.0491 7.15067 11.0491C8.50484 11.0491 9.66927 10.5729 10.644 9.62054C11.2094 9.62054 11.7098 9.74888 12.1451 10.0056C12.5804 10.2623 12.9301 10.5934 13.1942 10.9989C13.4583 11.4044 13.676 11.8917 13.8471 12.4609C14.0182 13.0301 14.1354 13.5956 14.1987 14.1574C14.2619 14.7191 14.2935 15.3162 14.2935 15.9487ZM10.1808 3.01897C10.1808 3.01897 10.3901 3.22824 10.8086 3.64676C11.2271 4.06529 11.4364 4.86607 11.4364 6.04911C11.4364 7.23214 11.0179 8.24219 10.1808 9.07924C9.34375 9.9163 8.33371 10.3348 7.15067 10.3348C5.96763 10.3348 4.95759 9.9163 4.12054 9.07924C3.28348 8.24219 2.86496 7.23214 2.86496 6.04911C2.86496 4.86607 3.28348 3.85603 4.12054 3.01897C4.95759 2.18192 5.96763 1.76339 7.15067 1.76339C8.33371 1.76339 9.34375 2.18192 10.1808 3.01897Z" fill="url(#paint0_linear_3001_4043)"/>
<defs>
<linearGradient id="paint0_linear_3001_4043" x1="0.0078125" y1="10.3348" x2="14.2935" y2="10.3348" gradientUnits="userSpaceOnUse">
<stop stop-color="#88BBF3"/>
<stop offset="1" stop-color="#5C99F4"/>
</linearGradient>
</defs>
</svg>
