<svg width="16" height="17" viewBox="0 0 16 17" fill="none" xmlns="http://www.w3.org/2000/svg">
<path fill-rule="evenodd" clip-rule="evenodd" d="M5.50065 14.1667C5.22732 14.1667 5.00065 13.94 5.00065 13.6667V3C5.00065 2.72667 5.22732 2.5 5.50065 2.5C5.77398 2.5 6.00065 2.72667 6.00065 3V13.6667C6.00065 13.94 5.77398 14.1667 5.50065 14.1667ZM2.83398 14.1667C2.56065 14.1667 2.33398 13.94 2.33398 13.6667V6.33333C2.33398 6.06 2.56065 5.83333 2.83398 5.83333C3.10732 5.83333 3.33398 6.06 3.33398 6.33333V13.6667C3.33398 13.94 3.10732 14.1667 2.83398 14.1667ZM7.66732 13.6667C7.66732 13.94 7.89398 14.1667 8.16732 14.1667C8.44065 14.1667 8.66732 13.94 8.66732 13.6667V7.66667C8.66732 7.39333 8.44065 7.16667 8.16732 7.16667C7.89398 7.16667 7.66732 7.39333 7.66732 7.66667V13.6667ZM10.834 14.1667C10.5607 14.1667 10.334 13.94 10.334 13.6667V5C10.334 4.72667 10.5607 4.5 10.834 4.5C11.1073 4.5 11.334 4.72667 11.334 5V13.6667C11.334 13.94 11.1073 14.1667 10.834 14.1667ZM13.0007 13.6667C13.0007 13.94 13.2273 14.1667 13.5007 14.1667C13.774 14.1667 14.0007 13.94 14.0007 13.6667V9.66667C14.0007 9.39333 13.774 9.16667 13.5007 9.16667C13.2273 9.16667 13.0007 9.39333 13.0007 9.66667V13.6667Z" fill="#999999"/>
</svg>
