<svg width="24" height="24" viewBox="0 0 24 24" fill="none" xmlns="http://www.w3.org/2000/svg">
<g id="hugeicons:bubble-chat-translate">
<g id="Group">
<path id="Vector" d="M22 11.567C22 16.85 17.522 21.133 12 21.133C11.3487 21.1337 10.7037 21.0743 10.065 20.955C9.606 20.868 9.377 20.825 9.217 20.85C9.057 20.874 8.829 20.995 8.375 21.236C7.08134 21.925 5.5928 22.1565 4.151 21.893C4.70175 21.2122 5.07521 20.4054 5.238 19.545C5.338 19.015 5.09 18.5 4.718 18.123C3.034 16.411 2 14.105 2 11.567C2 6.284 6.478 2 12 2C17.522 2 22 6.284 22 11.567Z" stroke="#334155" stroke-width="1.5" stroke-linecap="round" stroke-linejoin="round"/>
<path id="Vector_2" d="M8 8.241H12M12 8.241H14.571M12 8.241V7M16 8.241H14.571M14.571 8.241C14.102 9.939 13.121 11.544 12 12.954M12 12.954C11.072 14.122 10.049 15.156 9.143 16M12 12.954C11.429 12.276 10.629 11.178 10.4 10.682M12 12.954L13.714 14.759" stroke="#334155" stroke-width="1.5" stroke-linecap="round" stroke-linejoin="round"/>
</g>
</g>
</svg>
