<svg xmlns="http://www.w3.org/2000/svg" width="17" height="15" viewBox="0 0 17 15" fill="none">
<path fill-rule="evenodd" clip-rule="evenodd" d="M4.301 0.656037C5.20936 0.428956 6.16825 0.535137 7.00114 0.951563L7.34439 1.12318C7.75885 1.3304 8.12315 1.61363 8.42092 1.95319C8.46262 2.00074 8.53738 2.00074 8.57908 1.95319C8.87685 1.61363 9.24115 1.3304 9.65561 1.12318L9.99886 0.951563C10.8318 0.535137 11.7906 0.428956 12.699 0.656037C13.572 0.874264 14.3339 1.38395 14.8627 2.08903L15.0553 2.34588C15.6706 3.16613 16 4.15896 16 5.17536V5.46223C16 5.91706 15.9442 6.37036 15.8338 6.81209L15.7666 7.08078C15.5139 8.09161 15.0612 9.0438 14.4332 9.88098L14.0419 10.4028C13.7272 10.8223 13.3829 11.2193 13.0115 11.5907L12.6146 11.9876C11.6621 12.94 10.5609 13.7342 9.35236 14.3384C8.81719 14.606 8.18281 14.606 7.64764 14.3384C6.43914 13.7342 5.33786 12.94 4.38544 11.9876L3.98849 11.5907C3.61709 11.2193 3.27281 10.8223 2.95814 10.4028L2.56675 9.88098C1.93884 9.0438 1.48611 8.09161 1.23339 7.08078L1.16621 6.81209C1.05578 6.37036 1 5.91706 1 5.46223V5.17536C1 4.15896 1.32944 3.16613 1.94465 2.34588L2.1373 2.08903C2.66613 1.38395 3.42805 0.874264 4.301 0.656037ZM6.42056 1.96311C5.85999 1.68284 5.22215 1.61375 4.6191 1.7645C4.03787 1.90981 3.51507 2.2531 3.14454 2.74712L2.95189 3.00397C2.48501 3.62645 2.22951 4.38837 2.22951 5.17536V5.46223C2.22951 5.82961 2.27457 6.19541 2.36356 6.55132L2.43073 6.82001C2.64855 7.69124 3.03785 8.50807 3.57399 9.22288L3.96537 9.74471C4.24739 10.1207 4.55551 10.4759 4.88731 10.8077L5.28426 11.2046C6.14673 12.0671 7.14105 12.7833 8.22822 13.3268C8.40072 13.4131 8.59928 13.4131 8.77178 13.3268C9.85895 12.7833 10.8533 12.0671 11.7157 11.2046L12.1127 10.8077C12.4445 10.4759 12.7526 10.1207 13.0346 9.74471L13.426 9.22288C13.9621 8.50807 14.3515 7.69124 14.5693 6.82001L14.6364 6.55132C14.7254 6.19541 14.7705 5.82961 14.7705 5.46223V5.17536C14.7705 4.38837 14.515 3.62645 14.0481 3.00397L13.8555 2.74712C13.4849 2.2531 12.9621 1.90981 12.3809 1.7645C11.7779 1.61375 11.14 1.68284 10.5794 1.96311L10.2362 2.13472C9.7923 2.35666 9.42422 2.72088 9.19478 3.17974C8.78499 3.99928 8.21238 3.99401 7.80522 3.17974C7.57578 2.72088 7.2077 2.35666 6.76381 2.13472L6.42056 1.96311Z" fill="currentColor"/>
<path d="M3.98849 11.5907L4.38544 11.9876C5.33786 12.94 6.43914 13.7342 7.64764 14.3384C8.18281 14.606 8.81719 14.606 9.35236 14.3384C10.5609 13.7342 11.6621 12.94 12.6146 11.9876L13.0115 11.5907C13.3829 11.2193 13.7272 10.8223 14.0419 10.4028L14.4332 9.88098C15.0612 9.0438 15.5139 8.09161 15.7666 7.08078L15.8338 6.81209C15.9442 6.37036 16 5.91706 16 5.46223V5.17536C16 4.15896 15.6706 3.16613 15.0553 2.34588L14.8627 2.08903C14.3339 1.38395 13.572 0.874264 12.699 0.656037C11.7906 0.428956 10.8318 0.535137 9.99886 0.951563L9.65561 1.12318C9.24115 1.3304 8.87685 1.61363 8.57908 1.95319C8.53738 2.00074 8.46262 2.00074 8.42092 1.95319C8.12315 1.61363 7.75885 1.3304 7.34439 1.12318L7.00114 0.951563C6.16825 0.535137 5.20936 0.428956 4.301 0.656037C3.42805 0.874264 2.66613 1.38395 2.1373 2.08903M3.98849 11.5907L4.4379 11.1992M3.98849 11.5907C3.61709 11.2193 3.27281 10.8223 2.95814 10.4028L2.56675 9.88098C1.93884 9.0438 1.48611 8.09161 1.23339 7.08078L1.16621 6.81209C1.05578 6.37036 1 5.91706 1 5.46223V5.17536C1 4.15896 1.32944 3.16613 1.94465 2.34588L2.1373 2.08903M2.1373 2.08903L2.64092 2.41807M12.3809 1.7645C12.9621 1.90981 13.4849 2.2531 13.8555 2.74712L14.0481 3.00397C14.515 3.62645 14.7705 4.38837 14.7705 5.17536V5.46223C14.7705 5.82961 14.7254 6.19541 14.6364 6.55132L14.5693 6.82001C14.3515 7.69124 13.9621 8.50807 13.426 9.22288L13.0346 9.74471C12.7526 10.1207 12.4445 10.4759 12.1127 10.8077L11.7157 11.2046C10.8533 12.0671 9.85895 12.7833 8.77178 13.3268C8.59928 13.4131 8.40072 13.4131 8.22822 13.3268C7.14105 12.7833 6.14673 12.0671 5.28426 11.2046L4.88731 10.8077C4.55551 10.4759 4.24739 10.1207 3.96537 9.74471L3.57399 9.22288C3.03785 8.50807 2.64855 7.69124 2.43073 6.82001L2.36356 6.55132C2.27457 6.19541 2.22951 5.82961 2.22951 5.46223V5.17536C2.22951 4.38837 2.48501 3.62645 2.95189 3.00397L3.14454 2.74712C3.51507 2.2531 4.03787 1.90981 4.6191 1.7645C5.22215 1.61375 5.85999 1.68284 6.42056 1.96311L6.76381 2.13472C7.2077 2.35666 7.57578 2.72088 7.80522 3.17974C8.21238 3.99401 8.78499 3.99928 9.19478 3.17974C9.42422 2.72088 9.7923 2.35666 10.2362 2.13472L10.5794 1.96311C11.14 1.68284 11.7779 1.61375 12.3809 1.7645ZM12.3809 1.7645L12.54 1.21027" stroke="currentColor" stroke-width="0.5"/>
</svg>