<svg width="18" height="18" viewBox="0 0 18 18" fill="none" xmlns="http://www.w3.org/2000/svg">
<path d="M9.96875 8.2501L12.0687 5.1001" stroke="#090909" stroke-width="1.05729" stroke-linecap="round" stroke-linejoin="round"/>
<path d="M5.06836 4.40024C5.06836 4.40024 6.68868 3.00022 9.26836 3.00024C11.848 3.00027 13.4684 4.40024 13.4684 4.40024" stroke="#FFD900" stroke-width="1.05729" stroke-linecap="round" stroke-linejoin="round"/>
<path d="M14.5184 5.45044C14.5184 5.45044 16.2684 7.09293 16.2684 9.65044C16.2684 12.208 15.3017 13.8637 13.7799 15.1244C13.3704 15.4632 13.166 15.6326 12.8699 15.5955C12.5745 15.5584 12.4282 15.3883 12.0684 14.9004" stroke="#1FEF80" stroke-width="1.05729" stroke-linecap="round" stroke-linejoin="round"/>
<path d="M9.2668 10.3505C9.8467 10.3505 10.3168 9.88039 10.3168 9.30049C10.3168 8.72059 9.8467 8.25049 9.2668 8.25049C8.6869 8.25049 8.2168 8.72059 8.2168 9.30049C8.2168 9.88039 8.6869 10.3505 9.2668 10.3505Z" stroke="black" stroke-width="1.05729" stroke-linecap="round" stroke-linejoin="round"/>
<path d="M4.0168 5.45044C4.0168 5.45044 2.2668 7.09293 2.2668 9.65044C2.2668 12.208 3.2335 13.8637 4.7553 15.1244C5.1648 15.4632 5.3692 15.6326 5.6653 15.5955C5.9607 15.5584 6.107 15.3883 6.4668 14.9004" stroke="#EF1F1F" stroke-width="1.05729" stroke-linecap="round" stroke-linejoin="round"/>
</svg>
