<?xml version="1.0" encoding="UTF-8"?>
<svg width="" height="" id="Layer_1" data-name="Layer 1" xmlns="http://www.w3.org/2000/svg" viewBox="0 0 1920 1920">
  <defs>
    <style>
      .cls-1 {
        fill: #fff;
      }
    </style>
  </defs>
  <path class="cls-1"
    d="M743.14,1204.2l311.62-539.74c6.91-11.97,6.95-26.7.1-38.7l-61.19-107.22c-14.96-25.91-52.36-25.91-67.33,0l-487.3,844.03c-14.96,25.91,3.74,58.31,33.66,58.31h974.6c29.92,0,48.62-32.39,33.66-58.31l-46.56-80.64c-6.94-12.03-19.78-19.44-33.66-19.44h-623.94c-29.92,0-48.62-32.39-33.66-58.31Z" />
  <path class="cls-1"
    d="M1244.98,1072.18l-167.66,290.4c-14.96,25.91,3.74,58.31,33.66,58.31h335.32c29.92,0,48.62-32.39,33.66-58.31l-167.66-290.4c-14.96-25.91-52.36-25.91-67.33,0Z" />
</svg>
