<svg width="49" height="14" viewBox="0 0 49 14" fill="none" xmlns="http://www.w3.org/2000/svg">
<path d="M0.188 13.5V0.899999H2.564V11.34H8.324V13.5H0.188ZM10.0159 13.5V4.572H12.2839V13.5H10.0159ZM11.1499 3.528C10.7419 3.528 10.3939 3.396 10.1059 3.132C9.82986 2.868 9.69186 2.52 9.69186 2.088C9.69186 1.656 9.82986 1.308 10.1059 1.044C10.3939 0.779999 10.7419 0.647999 11.1499 0.647999C11.5699 0.647999 11.9179 0.779999 12.1939 1.044C12.4699 1.308 12.6079 1.656 12.6079 2.088C12.6079 2.52 12.4699 2.868 12.1939 3.132C11.9179 3.396 11.5699 3.528 11.1499 3.528ZM14.7971 13.5V4.572H17.0291V5.742H17.3531C17.4971 5.43 17.7671 5.136 18.1631 4.86C18.5591 4.572 19.1591 4.428 19.9631 4.428C20.6591 4.428 21.2651 4.59 21.7811 4.914C22.3091 5.226 22.7171 5.664 23.0051 6.228C23.2931 6.78 23.4371 7.428 23.4371 8.172V13.5H21.1691V8.352C21.1691 7.68 21.0011 7.176 20.6651 6.84C20.3411 6.504 19.8731 6.336 19.2611 6.336C18.5651 6.336 18.0251 6.57 17.6411 7.038C17.2571 7.494 17.0651 8.136 17.0651 8.964V13.5H14.7971ZM25.8889 13.5V0.899999H28.1569V7.866H28.4809L31.4329 4.572H34.3849L30.2629 8.892L34.5289 13.5H31.6129L28.4809 9.954H28.1569V13.5H25.8889ZM39.7521 13.752C38.8641 13.752 38.0661 13.572 37.3581 13.212C36.6501 12.852 36.0921 12.33 35.6841 11.646C35.2761 10.962 35.0721 10.14 35.0721 9.18V8.892C35.0721 7.932 35.2761 7.11 35.6841 6.426C36.0921 5.742 36.6501 5.22 37.3581 4.86C38.0661 4.5 38.8641 4.32 39.7521 4.32C40.6401 4.32 41.4381 4.5 42.1461 4.86C42.8541 5.22 43.4121 5.742 43.8201 6.426C44.2281 7.11 44.4321 7.932 44.4321 8.892V9.18C44.4321 10.14 44.2281 10.962 43.8201 11.646C43.4121 12.33 42.8541 12.852 42.1461 13.212C41.4381 13.572 40.6401 13.752 39.7521 13.752ZM39.7521 11.736C40.4481 11.736 41.0241 11.514 41.4801 11.07C41.9361 10.614 42.1641 9.966 42.1641 9.126V8.946C42.1641 8.106 41.9361 7.464 41.4801 7.02C41.0361 6.564 40.4601 6.336 39.7521 6.336C39.0561 6.336 38.4801 6.564 38.0241 7.02C37.5681 7.464 37.3401 8.106 37.3401 8.946V9.126C37.3401 9.966 37.5681 10.614 38.0241 11.07C38.4801 11.514 39.0561 11.736 39.7521 11.736ZM46.5256 13.5V0.899999H48.7936V13.5H46.5256Z" fill="currentColor"/>
</svg>
