<?xml version="1.0" encoding="UTF-8"?>
<svg id="Layer_1" data-name="Layer 1" xmlns="http://www.w3.org/2000/svg" viewBox="0 0 6573.33 1920">
  <defs>
    <style>
      .cls-1 {
        fill: #fff;
      }
    </style>
  </defs>
  <g>
    <path class="cls-1" d="M2833.57,1392.28h-484v-144.06h95.35v-437.36h-95.35v-144.06h384.51v144.06h-137.84v437.36h235.26c1.04,0,2.07-1.03,2.07-2.07v-188.63h151.31v392.8h-151.31v-58.04Z"/>
    <path class="cls-1" d="M3036.7,1262.73h84.98v-259.1h-84.98v-129.55h214.54v388.65h83.95v129.55h-298.48v-129.55ZM3064.68,620.16h203.14l-96.39,194.84h-11.4l-95.35-194.84Z"/>
    <path class="cls-1" d="M3383.9,1262.73h78.77v-259.1h-78.77v-129.55h195.88v57c35.24-41.46,89.13-67.37,154.42-67.37,130.59,0,214.54,93.28,214.54,235.26v163.75h65.29v129.55h-271.54v-129.55h75.66v-145.1c0-74.62-45.6-124.37-114-124.37-64.26,0-111.93,52.86-111.93,124.37v145.1h74.62v129.55h-282.94v-129.55Z"/>
    <path class="cls-1" d="M4058.62,1262.73h78.77v-466.38h-80.84v-129.55h210.39v413.53h72.55l74.62-89.13h-38.35v-117.11h245.63v129.55h-72.55l-97.42,120.22,112.97,138.88h81.87v129.55h-272.57v-117.11h40.42l-76.69-89.13h-70.48v89.13h59.08v117.11h-267.39v-129.55Z"/>
    <path class="cls-1" d="M4689.81,1133.18c0-155.46,119.19-269.47,283.97-269.47s283.98,111.93,283.98,269.47-119.19,269.46-283.98,269.46-283.97-111.93-283.97-269.46ZM5115.77,1133.18c0-80.84-60.11-139.92-141.99-139.92s-141.99,59.08-141.99,139.92,60.11,139.91,141.99,139.91,141.99-59.08,141.99-139.91Z"/>
    <path class="cls-1" d="M5281.6,1262.73h83.95v-466.38h-88.09v-129.55h217.64v595.93h88.09v129.55h-301.59v-129.55Z"/>
  </g>
  <g>
    <path class="cls-1" d="M2037.33,1333.15l-46.56-80.64c-6.94-12.03-19.78-19.44-33.66-19.44h-623.94c-29.92,0-48.62-32.39-33.66-58.31l311.62-539.74c6.91-11.97,6.95-26.7.1-38.7l-61.19-107.22c-14.96-25.91-52.36-25.91-67.33,0l-487.3,844.03c-14.96,25.91,3.74,58.31,33.66,58.31h974.6c29.92,0,48.62-32.39,33.66-58.31"/>
    <path class="cls-1" d="M2036.33,1333.15l-167.66-290.4c-14.96-25.91-52.36-25.91-67.33,0l-167.66,290.4c-14.96,25.91,3.74,58.31,33.66,58.31h335.32c29.92,0,48.62-32.39,33.66-58.31"/>
  </g>
</svg>