<svg width="41" height="40" viewBox="0 0 41 40" fill="none" xmlns="http://www.w3.org/2000/svg">
<path d="M20.1882 10.0007V3.33398H13.5215M25.1882 18.334V21.6673M3.52148 20.0007H6.85482M33.5215 20.0007H36.8548M15.1882 18.334V21.6673M33.5215 26.6673C33.5215 27.5514 33.1703 28.3992 32.5452 29.0243C31.9201 29.6495 31.0722 30.0007 30.1882 30.0007H14.9015C14.0175 30.0008 13.1698 30.3522 12.5448 30.9773L8.87482 34.6473C8.70933 34.8128 8.49849 34.9255 8.26897 34.9711C8.03944 35.0167 7.80154 34.9933 7.58533 34.9038C7.36912 34.8142 7.18432 34.6626 7.05429 34.468C6.92427 34.2734 6.85485 34.0447 6.85482 33.8106V13.334C6.85482 12.4499 7.20601 11.6021 7.83113 10.977C8.45625 10.3518 9.3041 10.0007 10.1882 10.0007H30.1882C31.0722 10.0007 31.9201 10.3518 32.5452 10.977C33.1703 11.6021 33.5215 12.4499 33.5215 13.334V26.6673Z" stroke="#007AFF" stroke-width="3.33333" stroke-linecap="round" stroke-linejoin="round"/>
</svg>
