<svg width="" height="" viewBox="0 0 24 24" fill="none" xmlns="http://www.w3.org/2000/svg">
  <path
    d="M10 7.00391L9.484 8.39791C8.808 10.2259 8.47 11.1399 7.803 11.8069C7.136 12.4739 6.222 12.8119 4.394 13.4879L3 14.0039L4.394 14.5199C6.222 15.1959 7.136 15.5349 7.803 16.2009C8.47 16.8669 8.808 17.7819 9.484 19.6099L10 21.0039L10.516 19.6099C11.192 17.7819 11.531 16.8679 12.197 16.2009C12.863 15.5339 13.778 15.1959 15.606 14.5199L17 14.0039L15.606 13.4879C13.778 12.8119 12.864 12.4739 12.197 11.8069C11.53 11.1399 11.192 10.2259 10.516 8.39791L10 7.00391ZM18 3.00391L17.779 3.60091C17.489 4.38491 17.344 4.77691 17.059 5.06191C16.773 5.34791 16.381 5.49291 15.597 5.78191L15 6.00391L15.598 6.22491C16.381 6.51491 16.773 6.65991 17.058 6.94491C17.344 7.23091 17.489 7.62291 17.778 8.40691L18 9.00391L18.221 8.40691C18.511 7.62291 18.656 7.23091 18.941 6.94591C19.227 6.65991 19.619 6.51491 20.403 6.22591L21 6.00391L20.402 5.78291C19.619 5.49291 19.227 5.34791 18.942 5.06291C18.656 4.77691 18.511 4.38491 18.222 3.60091L18 3.00391Z"
    stroke="currentColor" stroke-width="1.5" stroke-linecap="round" stroke-linejoin="round" />
</svg>
