<svg width="16" height="17" viewBox="0 0 16 17" fill="none" xmlns="http://www.w3.org/2000/svg">
<path d="M7.62135 5.78937L5.79335 5.85604C5.52202 5.86604 5.30668 6.08937 5.30668 6.36137V8.10471M8.97335 9.45604L5.61068 6.11071M14.666 6.16671V7.50004M6.66602 1.83337H9.33268M1.33268 9.83337V7.16671M6.99935 15.1667H5.66602M14.626 4.16671C14.5233 3.45604 14.324 2.95271 13.9353 2.56404C13.5467 2.17537 13.0433 1.97604 12.3327 1.87337M3.66602 1.87337C2.95535 1.97604 2.45202 2.17537 2.06335 2.56404C1.67535 2.95271 1.47535 3.45604 1.37268 4.16671M1.37268 12.8334C1.47535 13.544 1.67535 14.0474 2.06335 14.436C2.45202 14.824 2.95535 15.024 3.66602 15.1267M14.666 11.8334C14.666 10.576 14.666 9.94804 14.2753 9.55737C13.8847 9.16671 13.2567 9.16671 11.9993 9.16671H11.3327C10.0753 9.16671 9.44735 9.16671 9.05668 9.55737C8.66602 9.94804 8.66602 10.576 8.66602 11.8334V12.5C8.66602 13.7574 8.66602 14.3854 9.05668 14.776C9.44735 15.1667 10.0753 15.1667 11.3327 15.1667H11.9993C13.2567 15.1667 13.8847 15.1667 14.2753 14.776C14.666 14.3854 14.666 13.7574 14.666 12.5V11.8334Z" stroke="#007AFF" stroke-linecap="round" stroke-linejoin="round"/>
</svg>
