<svg xmlns="http://www.w3.org/2000/svg" width="16" height="16" viewBox="0 0 16 16" fill="none">
<mask id="path-1-inside-1_4001_5378" fill="white">
<path fill-rule="evenodd" clip-rule="evenodd" d="M7.375 10.7803C7.65114 10.7803 7.875 11.0041 7.875 11.2803V13.2382C10.6237 11.6326 12.2775 10.4969 13.2749 9.50521C13.8537 8.92973 14.1721 8.43897 14.357 7.97101C14.5429 7.50048 14.625 6.97476 14.625 6.28027C14.625 3.79499 12.6103 1.78027 10.125 1.78027H6.625C4.13972 1.78027 2.125 3.79499 2.125 6.28027C2.125 8.76555 4.13972 10.7803 6.625 10.7803H7.375ZM7.875 14.6831C14.5391 10.848 15.875 9.27718 15.875 6.28027C15.875 3.10464 13.3006 0.530273 10.125 0.530273H6.625C3.44936 0.530273 0.875 3.10464 0.875 6.28027C0.875 9.45591 3.44936 12.0303 6.625 12.0303V14.5389C6.625 14.9214 7.03696 15.1621 7.3693 14.9727C7.54118 14.8748 7.70973 14.7782 7.875 14.6831Z"/>
</mask>
<path fill-rule="evenodd" clip-rule="evenodd" d="M7.375 10.7803C7.65114 10.7803 7.875 11.0041 7.875 11.2803V13.2382C10.6237 11.6326 12.2775 10.4969 13.2749 9.50521C13.8537 8.92973 14.1721 8.43897 14.357 7.97101C14.5429 7.50048 14.625 6.97476 14.625 6.28027C14.625 3.79499 12.6103 1.78027 10.125 1.78027H6.625C4.13972 1.78027 2.125 3.79499 2.125 6.28027C2.125 8.76555 4.13972 10.7803 6.625 10.7803H7.375ZM7.875 14.6831C14.5391 10.848 15.875 9.27718 15.875 6.28027C15.875 3.10464 13.3006 0.530273 10.125 0.530273H6.625C3.44936 0.530273 0.875 3.10464 0.875 6.28027C0.875 9.45591 3.44936 12.0303 6.625 12.0303V14.5389C6.625 14.9214 7.03696 15.1621 7.3693 14.9727C7.54118 14.8748 7.70973 14.7782 7.875 14.6831Z" fill="currentColor"/>
<path d="M7.875 13.2382H5.875V16.7225L8.88372 14.9651L7.875 13.2382ZM13.2749 9.50521L11.8648 8.08693L13.2749 9.50521ZM14.357 7.97101L16.2171 8.70598L16.2171 8.70598L14.357 7.97101ZM7.875 14.6831L8.87259 16.4166H8.87259L7.875 14.6831ZM6.625 12.0303H8.625V10.0303H6.625V12.0303ZM7.3693 14.9727L6.37905 13.2351L7.3693 14.9727ZM13.2749 9.50521L11.8648 8.08693C11.0658 8.88128 9.61209 9.90736 6.86628 11.5112L7.875 13.2382L8.88372 14.9651C11.6354 13.3579 13.4892 12.1125 14.6851 10.9235L13.2749 9.50521ZM14.357 7.97101L12.4969 7.23604C12.4349 7.39311 12.2945 7.65966 11.8648 8.08693L13.2749 9.50521L14.6851 10.9235C15.4129 10.1998 15.9093 9.48484 16.2171 8.70598L14.357 7.97101ZM14.625 6.28027H12.625C12.625 6.8157 12.5616 7.07244 12.4969 7.23605L14.357 7.97101L16.2171 8.70598C16.5243 7.92851 16.625 7.13381 16.625 6.28027H14.625ZM10.125 1.78027V3.78027C11.5057 3.78027 12.625 4.89956 12.625 6.28027H14.625H16.625C16.625 2.69042 13.7149 -0.219727 10.125 -0.219727V1.78027ZM6.625 1.78027V3.78027H10.125V1.78027V-0.219727H6.625V1.78027ZM2.125 6.28027H4.125C4.125 4.89956 5.24429 3.78027 6.625 3.78027V1.78027V-0.219727C3.03515 -0.219727 0.125 2.69042 0.125 6.28027H2.125ZM6.625 10.7803V8.78027C5.24429 8.78027 4.125 7.66098 4.125 6.28027H2.125H0.125C0.125 9.87012 3.03515 12.7803 6.625 12.7803V10.7803ZM7.375 10.7803V8.78027H6.625V10.7803V12.7803H7.375V10.7803ZM15.875 6.28027H13.875C13.875 6.88084 13.8078 7.29159 13.6833 7.63269C13.5619 7.96548 13.3474 8.3375 12.9139 8.8006C11.9768 9.80168 10.2265 11.0223 6.87741 12.9497L7.875 14.6831L8.87259 16.4166C12.1876 14.5088 14.4373 13.0265 15.8342 11.5341C16.5677 10.7505 17.1037 9.92822 17.441 9.00376C17.7753 8.0876 17.875 7.17816 17.875 6.28027H15.875ZM10.125 0.530273V2.53027C12.1961 2.53027 13.875 4.20921 13.875 6.28027H15.875H17.875C17.875 2.00007 14.4052 -1.46973 10.125 -1.46973V0.530273ZM6.625 0.530273V2.53027H10.125V0.530273V-1.46973H6.625V0.530273ZM0.875 6.28027H2.875C2.875 4.20921 4.55393 2.53027 6.625 2.53027V0.530273V-1.46973C2.34479 -1.46973 -1.125 2.00007 -1.125 6.28027H0.875ZM6.625 12.0303V10.0303C4.55393 10.0303 2.875 8.35134 2.875 6.28027H0.875H-1.125C-1.125 10.5605 2.34479 14.0303 6.625 14.0303V12.0303ZM7.875 14.6831L6.87741 12.9497C6.71473 13.0433 6.54864 13.1384 6.37905 13.2351L7.3693 14.9727L8.35954 16.7104C8.53373 16.6111 8.70473 16.5132 8.87259 16.4166L7.875 14.6831ZM7.875 13.2382H9.875V11.2803H7.875H5.875V13.2382H7.875ZM6.625 14.5389H8.625V12.0303H6.625H4.625V14.5389H6.625ZM7.3693 14.9727L6.37905 13.2351C7.38784 12.6602 8.625 13.3958 8.625 14.5389H6.625H4.625C4.625 16.447 6.68608 17.664 8.35954 16.7104L7.3693 14.9727ZM7.375 10.7803V12.7803C6.54657 12.7803 5.875 12.1087 5.875 11.2803H7.875H9.875C9.875 9.89956 8.75571 8.78027 7.375 8.78027V10.7803Z" fill="currentColor" mask="url(#path-1-inside-1_4001_5378)"/>
</svg>