<svg xmlns="http://www.w3.org/2000/svg" width="24" height="24" viewBox="0 0 24 24" fill="none">
<path d="M12.442 14.553L10.136 17.253C9.14 18.418 8.644 19 8 19C7.356 19 6.859 18.418 5.864 17.253L3.558 14.553C2.52 13.337 2 12.728 2 12C2 11.272 2.52 10.663 3.558 9.447L5.864 6.747C6.86 5.582 7.356 5 8 5C8.644 5 9.141 5.582 10.136 6.747L12.442 9.447C13.48 10.663 14 11.272 14 12C14 12.728 13.48 13.337 12.442 14.553Z" stroke="#5C99F4" stroke-width="1.5" stroke-linecap="round" stroke-linejoin="round"/>
<path d="M13 19L16.512 14.603C17.504 13.361 18 12.74 18 12C18 11.26 17.504 10.639 16.512 9.397L13 5" stroke="#5C99F4" stroke-width="1.5" stroke-linecap="round" stroke-linejoin="round"/>
<path d="M17 19L20.512 14.603C21.504 13.361 22 12.74 22 12C22 11.26 21.504 10.639 20.512 9.397L17 5" stroke="#5C99F4" stroke-width="1.5" stroke-linecap="round" stroke-linejoin="round"/>
</svg>