<svg xmlns="http://www.w3.org/2000/svg" width="24" height="24" viewBox="0 0 24 24" fill="none">
  <path d="M12 5.5C12.3978 5.5 12.7794 5.34196 13.0607 5.06066C13.342 4.77936 13.5 4.39782 13.5 4C13.5 3.60218 13.342 3.22064 13.0607 2.93934C12.7794 2.65804 12.3978 2.5 12 2.5C11.6022 2.5 11.2206 2.65804 10.9393 2.93934C10.658 3.22064 10.5 3.60218 10.5 4C10.5 4.39782 10.658 4.77936 10.9393 5.06066C11.2206 5.34196 11.6022 5.5 12 5.5ZM12 5.5L11 10M12.5 11.5C12.5 11.697 12.4612 11.892 12.3858 12.074C12.3104 12.256 12.1999 12.4214 12.0607 12.5607C11.9214 12.6999 11.756 12.8104 11.574 12.8858C11.392 12.9612 11.197 13 11 13C10.803 13 10.608 12.9612 10.426 12.8858C10.244 12.8104 10.0786 12.6999 9.93934 12.5607C9.80005 12.4214 9.68956 12.256 9.61418 12.074C9.5388 11.892 9.5 11.697 9.5 11.5C9.5 11.1022 9.65804 10.7206 9.93934 10.4393C10.2206 10.158 10.6022 10 11 10M12.5 11.5C12.5 11.1022 12.342 10.7206 12.0607 10.4393C11.7794 10.158 11.3978 10 11 10M12.5 11.5L16.505 11.844M13.5 5L17.5 10M14.5 15.5L10.5 18.5M8 17.5L5 9.5M6.313 6.654L10.5 4.5M21.5 12C21.5 12.3283 21.4353 12.6534 21.3097 12.9567C21.1841 13.26 20.9999 13.5356 20.7678 13.7678C20.5356 13.9999 20.26 14.1841 19.9567 14.3097C19.6534 14.4353 19.3283 14.5 19 14.5C18.6717 14.5 18.3466 14.4353 18.0433 14.3097C17.74 14.1841 17.4644 13.9999 17.2322 13.7678C17.0001 13.5356 16.8159 13.26 16.6903 12.9567C16.5647 12.6534 16.5 12.3283 16.5 12C16.5 11.337 16.7634 10.7011 17.2322 10.2322C17.7011 9.76339 18.337 9.5 19 9.5C19.663 9.5 20.2989 9.76339 20.7678 10.2322C21.2366 10.7011 21.5 11.337 21.5 12ZM6.5 7.5C6.5 8.03043 6.28929 8.53914 5.91421 8.91421C5.53914 9.28929 5.03043 9.5 4.5 9.5C3.96957 9.5 3.46086 9.28929 3.08579 8.91421C2.71071 8.53914 2.5 8.03043 2.5 7.5C2.5 6.96957 2.71071 6.46086 3.08579 6.08579C3.46086 5.71071 3.96957 5.5 4.5 5.5C5.03043 5.5 5.53914 5.71071 5.91421 6.08579C6.28929 6.46086 6.5 6.96957 6.5 7.5ZM10.5 19.5C10.5 20.0304 10.2893 20.5391 9.91421 20.9142C9.53914 21.2893 9.03043 21.5 8.5 21.5C7.96957 21.5 7.46086 21.2893 7.08579 20.9142C6.71071 20.5391 6.5 20.0304 6.5 19.5C6.5 18.9696 6.71071 18.4609 7.08579 18.0858C7.46086 17.7107 7.96957 17.5 8.5 17.5C9.03043 17.5 9.53914 17.7107 9.91421 18.0858C10.2893 18.4609 10.5 18.9696 10.5 19.5Z" stroke="#5C99F4" stroke-width="1.5" stroke-linecap="round" stroke-linejoin="round"/>
</svg>