<svg xmlns="http://www.w3.org/2000/svg" width="24" height="24" viewBox="0 0 24 24" fill="none">
<path d="M7.99986 3.09786C7.99986 3.09786 4.03386 2.74186 3.38786 3.38786C2.74186 4.03386 3.09786 7.99986 3.09786 7.99986M7.99986 20.9019C7.99986 20.9019 4.03386 21.2579 3.38786 20.6119C2.74186 19.9659 3.09786 15.9999 3.09786 15.9999M15.9999 3.09786C15.9999 3.09786 19.9659 2.74186 20.6119 3.38786C21.2579 4.03386 20.9019 7.99986 20.9019 7.99986M15.9999 20.9019C15.9999 20.9019 19.9659 21.2579 20.6119 20.6119C21.2579 19.9659 20.9019 15.9999 20.9019 15.9999M14.0099 9.99786L20.0629 3.94686M9.99686 14.0019L3.63986 20.3809M9.99686 10.0019L3.84586 3.85986M13.9799 14.0019L20.5279 20.4979" stroke="#5C99F4" stroke-width="1.5" stroke-linecap="round" stroke-linejoin="round"/>
</svg>