<svg width="28" height="28" viewBox="0 0 28 28" fill="none" xmlns="http://www.w3.org/2000/svg">
<rect width="28" height="28" rx="14" fill="#88BBF3" fill-opacity="0.1"/>
<path d="M7.687 15.8467C7.545 16.776 8.179 17.4207 8.955 17.742C11.9303 18.9754 16.0703 18.9754 19.0457 17.742C19.8217 17.4207 20.4557 16.7754 20.3137 15.8467C20.227 15.2754 19.7957 14.8 19.4763 14.3354C19.0583 13.7194 19.017 13.048 19.0163 12.3334C19.017 9.57204 16.7717 7.33337 14.0003 7.33337C11.229 7.33337 8.98366 9.57204 8.98366 12.3334C8.98366 13.048 8.94233 13.72 8.52366 14.3354C8.205 14.8 7.77433 15.2754 7.687 15.8467Z" stroke="#5C99F4" stroke-linecap="round" stroke-linejoin="round"/>
<path d="M11.334 18.6667C11.6393 19.8167 12.718 20.6667 14.0007 20.6667C15.284 20.6667 16.3613 19.8167 16.6673 18.6667" stroke="#5C99F4" stroke-linecap="round" stroke-linejoin="round"/>
</svg>
