<svg width="" height="" viewBox="0 0 61 60" fill="none" xmlns="http://www.w3.org/2000/svg">
  <path fill-rule="evenodd" clip-rule="evenodd"
    d="M14.8186 12.765C15.2402 11.935 15.8884 11.2367 16.6906 10.7484C17.4927 10.2601 18.4172 10.001 19.3605 10H41.6357C42.5799 10 43.5054 10.2587 44.3086 10.7471C45.1117 11.2355 45.7607 11.9342 46.1827 12.765L55.1091 30.3275C55.6389 31.3674 55.9157 32.5143 55.9173 33.6775V47.5C55.9173 48.8261 55.3817 50.0979 54.4284 51.0355C53.4751 51.9732 52.1822 52.5 50.834 52.5H10.1673C8.81913 52.5 7.52617 51.9732 6.57286 51.0355C5.61955 50.0979 5.08398 48.8261 5.08398 47.5V33.68C5.08446 32.5161 5.3603 31.3684 5.88969 30.3275L14.8186 12.765ZM41.6357 15H19.3631L10.4723 32.5H19.0632C20.0743 32.5 21.044 32.8951 21.759 33.5983C22.474 34.3016 22.8757 35.2554 22.8757 36.25V38.75C22.8757 39.0815 23.0095 39.3995 23.2479 39.6339C23.4862 39.8683 23.8094 40 24.1465 40H36.8548C37.1919 40 37.5151 39.8683 37.7534 39.6339C37.9918 39.3995 38.1256 39.0815 38.1256 38.75V36.25C38.1256 35.2554 38.5273 34.3016 39.2423 33.5983C39.9573 32.8951 40.927 32.5 41.9381 32.5H50.529L41.6357 15Z"
    fill="black" fill-opacity="0.1" />
</svg>
