<svg width="16" height="16" viewBox="0 0 16 16" fill="none" xmlns="http://www.w3.org/2000/svg">
<path d="M8.34268 1.76973C8.24822 1.68578 8.12625 1.6394 7.99988 1.6394C7.87351 1.6394 7.75153 1.68578 7.65708 1.76973C7.02361 2.33159 6.55814 3.05793 6.31229 3.8682C6.06644 4.67847 6.04982 5.54099 6.26428 6.36013C5.24898 5.76027 4.07215 5.4913 2.89708 5.59053C2.82733 5.59627 2.75941 5.61575 2.69722 5.64786C2.63504 5.67996 2.57982 5.72406 2.53476 5.7776C2.48969 5.83114 2.45567 5.89307 2.43465 5.95983C2.41363 6.02658 2.40603 6.09683 2.41228 6.16653C2.51148 7.25853 3.02348 8.34253 3.73308 9.18253C3.4546 9.16436 3.17516 9.16704 2.89708 9.19053C2.82733 9.19627 2.75941 9.21575 2.69722 9.24786C2.63504 9.27996 2.57982 9.32406 2.53476 9.3776C2.48969 9.43114 2.45567 9.49307 2.43465 9.55982C2.41363 9.62658 2.40603 9.69683 2.41228 9.76653C2.52764 11.0327 3.11213 12.21 4.051 13.0673C4.98986 13.9246 6.21528 14.4 7.48668 14.4001H8.51308C9.78421 14.3998 11.0093 13.9244 11.948 13.0673C12.8867 12.2102 13.4711 11.0332 13.5867 9.76733C13.593 9.69756 13.5855 9.62723 13.5646 9.56038C13.5436 9.49354 13.5096 9.43151 13.4645 9.37788C13.4194 9.32425 13.3642 9.28009 13.3019 9.24793C13.2397 9.21577 13.1717 9.19626 13.1019 9.19053C12.8238 9.16704 12.5444 9.16436 12.2659 9.18253C12.9755 8.34253 13.4875 7.25853 13.5859 6.16653C13.592 6.09691 13.5844 6.02676 13.5634 5.9601C13.5423 5.89344 13.5084 5.83159 13.4634 5.77808C13.4185 5.72457 13.3634 5.68046 13.3013 5.64828C13.2393 5.61609 13.1715 5.59647 13.1019 5.59053C11.9271 5.49147 10.7505 5.76044 9.73548 6.36013C9.95003 5.54107 9.93353 4.67859 9.68783 3.86832C9.44212 3.05806 8.97601 2.33168 8.34268 1.76973ZM8.00028 11.5425C7.31605 10.5934 6.35721 9.87692 5.25308 9.48973L5.22508 9.46893C4.26428 8.81613 3.45148 7.60013 3.24588 6.37293C4.45003 6.34149 5.62351 6.75506 6.54188 7.53453C7.14908 8.04893 7.31628 8.51853 7.46588 8.94093C7.52028 9.09293 7.57228 9.23933 7.64188 9.37853C7.67505 9.44509 7.72613 9.50109 7.78937 9.54023C7.85261 9.57937 7.92551 9.6001 7.99988 9.6001C8.07425 9.6001 8.14715 9.57937 8.21039 9.54023C8.27363 9.50109 8.3247 9.44509 8.35788 9.37853C8.42748 9.23933 8.47948 9.09293 8.53388 8.94013C8.68348 8.51933 8.85068 8.04893 9.45868 7.53453C10.3767 6.75495 11.5499 6.34111 12.7539 6.37213C12.5483 7.60013 11.7355 8.81533 10.7747 9.46893L10.7467 9.48973C9.64283 9.87706 8.68429 10.5935 8.00028 11.5425ZM7.48668 13.6001C6.46331 13.5998 5.47368 13.2342 4.69593 12.5691C3.91818 11.904 3.4034 10.983 3.24428 9.97213C4.13771 9.94921 5.02042 10.1709 5.79703 10.6132C6.57363 11.0555 7.2146 11.7016 7.65068 12.4817C7.68539 12.5439 7.73605 12.5956 7.79744 12.6316C7.85882 12.6677 7.9287 12.6866 7.99988 12.6866C8.07105 12.6866 8.14093 12.6677 8.20232 12.6316C8.2637 12.5956 8.31436 12.5439 8.34908 12.4817C8.78515 11.7016 9.42612 11.0555 10.2027 10.6132C10.9793 10.1709 11.862 9.94921 12.7555 9.97213C12.5963 10.9832 12.0814 11.9042 11.3035 12.5693C10.5256 13.2345 9.53578 13.6 8.51228 13.6001H7.48668ZM7.99948 7.85293C7.3054 7.1442 6.91668 6.19172 6.91668 5.19973C6.91668 4.20775 7.3054 3.25526 7.99948 2.54653C8.69355 3.25526 9.08227 4.20775 9.08227 5.19973C9.08227 6.19172 8.69355 7.1442 7.99948 7.85293Z" fill="currentColor" fill-opacity="0.5"/>
</svg>
