<svg width="24" height="25" viewBox="0 0 24 25" fill="none" xmlns="http://www.w3.org/2000/svg">
<path d="M2 5.16602H8.757C9.1511 5.16597 9.54135 5.24357 9.90545 5.39439C10.2696 5.54522 10.6004 5.7663 10.879 6.04502L14 9.16602M5 14.166H2M8.5 8.16602L10.5 10.166C10.6313 10.2973 10.7355 10.4532 10.8066 10.6248C10.8776 10.7964 10.9142 10.9803 10.9142 11.166C10.9142 11.3517 10.8776 11.5356 10.8066 11.7072C10.7355 11.8788 10.6313 12.0347 10.5 12.166C10.3687 12.2973 10.2128 12.4015 10.0412 12.4726C9.86962 12.5436 9.68572 12.5802 9.5 12.5802C9.31428 12.5802 9.13038 12.5436 8.9588 12.4726C8.78722 12.4015 8.63132 12.2973 8.5 12.166L7 10.666C6.14 11.526 4.777 11.623 3.803 10.893L3.5 10.666" stroke="currentColor" stroke-width="1.5" stroke-linecap="round" stroke-linejoin="round"/>
<path d="M5 11.666V16.166C5 18.052 5 18.994 5.586 19.58C6.172 20.166 7.114 20.166 9 20.166H18C19.886 20.166 20.828 20.166 21.414 19.58C22 18.994 22 18.052 22 16.166V13.166C22 11.28 22 10.338 21.414 9.75202C20.828 9.16602 19.886 9.16602 18 9.16602H9.5" stroke="currentColor" stroke-width="1.5" stroke-linecap="round" stroke-linejoin="round"/>
<path d="M15.25 14.666C15.25 15.1301 15.0656 15.5753 14.7374 15.9035C14.4092 16.2316 13.9641 16.416 13.5 16.416C13.0359 16.416 12.5908 16.2316 12.2626 15.9035C11.9344 15.5753 11.75 15.1301 11.75 14.666C11.75 14.2019 11.9344 13.7568 12.2626 13.4286C12.5908 13.1004 13.0359 12.916 13.5 12.916C13.9641 12.916 14.4092 13.1004 14.7374 13.4286C15.0656 13.7568 15.25 14.2019 15.25 14.666Z" stroke="currentColor" stroke-width="1.5" stroke-linecap="round" stroke-linejoin="round"/>
</svg>
