<svg width="19" height="20" viewBox="0 0 19 20" fill="none" xmlns="http://www.w3.org/2000/svg">
<path fill-rule="evenodd" clip-rule="evenodd" d="M18.3103 5.54445L14.1216 1.35477C13.8402 1.07339 13.4587 0.915305 13.0608 0.915305C12.6629 0.915305 12.2813 1.07339 12 1.35477L0.439687 12.916C0.157107 13.1964 -0.00127172 13.5783 0 13.9763V18.166C0 18.9944 0.671573 19.666 1.5 19.666H5.68969C6.08773 19.6673 6.46966 19.5089 6.75 19.2263L18.3103 7.66602C18.5917 7.3847 18.7498 7.00312 18.7498 6.60523C18.7498 6.20735 18.5917 5.82577 18.3103 5.54445ZM5.68969 18.166H1.5V13.9763L9.75 5.72633L13.9397 9.91602L5.68969 18.166ZM15 8.85477L10.8103 4.66602L13.0603 2.41602L17.25 6.60477L15 8.85477Z" fill="currentColor"/>
</svg>
