<svg width="17" height="16" viewBox="0 0 17 16" fill="none" xmlns="http://www.w3.org/2000/svg">
<path d="M3.41195 8.33063C3.3388 8.7484 3.31575 9.1734 3.34328 9.59663C3.37861 10.1306 3.39661 10.398 3.65661 10.5746C3.91528 10.7513 4.21061 10.6533 4.80061 10.4573L5.34061 10.2773C6.65195 9.84263 7.30728 9.62463 7.33128 9.18463C7.35528 8.74463 6.72795 8.45597 5.47261 7.87797L4.95461 7.63797C4.38928 7.37797 4.10661 7.24797 3.82928 7.39463C3.55195 7.5413 3.50528 7.80463 3.41195 8.33063ZM12.8806 8.21197L12.5659 8.28797C11.0806 8.65063 10.3373 8.83197 10.0739 8.46797C9.80995 8.10463 10.2573 7.5153 11.1519 6.33797L11.3399 6.0913C11.7173 5.59397 11.9066 5.3453 12.2313 5.33397C12.5566 5.32197 12.7346 5.52197 13.0906 5.92197C13.3142 6.17308 13.5102 6.4433 13.6786 6.73263C13.9453 7.1893 14.0779 7.4173 13.9486 7.69997C13.8193 7.98263 13.5066 8.05863 12.8806 8.21197ZM12.6253 12.7333C12.7662 12.5466 12.8953 12.35 13.0126 12.1433C13.2653 11.6986 13.3913 11.4766 13.3046 11.1806L13.2933 11.1446C13.1919 10.8553 12.9286 10.7586 12.4026 10.5653C11.0313 10.062 10.3459 9.80997 10.0893 10.1686L10.0606 10.212C9.83128 10.5926 10.2519 11.2473 11.0933 12.5566C11.4159 13.0586 11.5773 13.31 11.8546 13.332L11.8893 13.3333C12.1673 13.3366 12.3199 13.1353 12.6253 12.7333ZM8.66528 13.3846V13.186C8.66528 11.6253 8.66528 10.8446 8.27528 10.69C7.88528 10.536 7.45261 11.1453 6.58861 12.3633L6.47728 12.5193C6.12328 13.0193 5.94595 13.2686 6.01261 13.5813C6.07928 13.8946 6.29928 14.008 6.73928 14.2326C6.98639 14.3593 7.2435 14.4611 7.51061 14.538C7.97995 14.6733 8.21461 14.7406 8.43995 14.5426C8.66528 14.3453 8.66528 14.0253 8.66528 13.3846ZM8.66528 2.58797V4.37597C8.66528 6.2513 8.66528 7.1893 8.14728 7.3193C7.62861 7.44997 7.09861 6.64597 6.03861 5.03863L5.08728 3.59597C4.76328 3.10397 4.60061 2.85863 4.68928 2.5873C4.77728 2.31663 5.02728 2.20463 5.52728 1.98197C6.08266 1.73467 6.66441 1.55149 7.26128 1.43597C7.84795 1.3233 8.14195 1.2673 8.40395 1.46063C8.66528 1.65397 8.66528 1.96597 8.66528 2.58797Z" stroke="currentColor" stroke-opacity="0.5" stroke-width="1.04163" stroke-linecap="round" stroke-linejoin="round"/>
</svg>
