<svg xmlns="http://www.w3.org/2000/svg" width="25" height="25" viewBox="0 0 25 25" fill="none">
<path d="M13.75 3.17192C13.28 3.17059 12.78 3.16992 12.25 3.16992C7.772 3.16992 5.532 3.16992 4.141 4.56092C2.75 5.95192 2.75 8.19092 2.75 12.6699C2.75 17.1479 2.75 19.3879 4.141 20.7789C5.532 22.1699 7.771 22.1699 12.25 22.1699C16.728 22.1699 18.968 22.1699 20.359 20.7789C21.75 19.3879 21.75 17.1489 21.75 12.6699C21.75 12.1399 21.7493 11.6399 21.748 11.1699" stroke="#5C99F4" stroke-width="1.5" stroke-linecap="round" stroke-linejoin="round"/>
<path d="M7.75 17.6699C10.082 15.2279 14.393 15.1129 16.75 17.6699M19.25 2.16992L19.508 2.86692C19.846 3.78092 20.015 4.23792 20.348 4.57092C20.682 4.90492 21.139 5.07392 22.053 5.41192L22.75 5.66992L22.053 5.92792C21.139 6.26592 20.682 6.43492 20.349 6.76792C20.015 7.10192 19.846 7.55892 19.508 8.47292L19.25 9.16992L18.992 8.47292C18.654 7.55892 18.485 7.10192 18.152 6.76892C17.818 6.43492 17.361 6.26592 16.447 5.92792L15.75 5.66992L16.447 5.41192C17.361 5.07392 17.818 4.90492 18.151 4.57192C18.485 4.23792 18.654 3.78092 18.992 2.86692L19.25 2.16992ZM14.745 10.1699C14.745 11.5499 13.625 12.6699 12.242 12.6699C11.9134 12.6704 11.5878 12.6062 11.2841 12.4808C10.9803 12.3554 10.7042 12.1713 10.4716 11.9391C10.2391 11.7069 10.0546 11.4311 9.92868 11.1276C9.8028 10.824 9.738 10.4986 9.738 10.1699C9.738 8.78992 10.858 7.66992 12.242 7.66992C12.5706 7.66953 12.896 7.7339 13.1996 7.85936C13.5033 7.98482 13.7792 8.16891 14.0117 8.40109C14.2442 8.63328 14.4286 8.90901 14.5544 9.21252C14.6802 9.51603 14.745 9.84136 14.745 10.1699Z" stroke="#5C99F4" stroke-width="1.5" stroke-linecap="round" stroke-linejoin="round"/>
</svg>