<svg width="16" height="16" viewBox="0 0 16 16" fill="none" xmlns="http://www.w3.org/2000/svg">
<g id="hugeicons:text-number-sign">
<path id="Vector" d="M1.33301 13.3334V4.68138C1.33301 3.40338 1.33301 2.66672 1.62567 2.66672C1.97301 2.66672 2.22301 3.10671 2.83301 4.18205L7.16634 11.818C7.77634 12.8934 8.01501 13.3334 8.37301 13.3334C8.66634 13.3334 8.66634 12.5967 8.66634 11.3187V2.66672M10.6663 8.66672H14.6663M11.053 3.05338C11.5697 2.53738 13.763 2.53738 14.2797 3.05338C14.795 3.57005 14.795 5.76338 14.2797 6.28005C13.763 6.79605 11.5697 6.79605 11.053 6.28005C10.5377 5.76338 10.5377 3.57005 11.053 3.05338Z" stroke="black" stroke-opacity="0.5" stroke-linecap="round" stroke-linejoin="round"/>
</g>
</svg>
