<svg width="24" height="24" viewBox="0 0 24 24" fill="none" xmlns="http://www.w3.org/2000/svg">
<path d="M13.0809 10.712L8.29489 4.002C8.23939 3.92404 8.16604 3.86049 8.08098 3.81666C7.99591 3.77282 7.90159 3.74996 7.8059 3.75H5.2799C5.1698 3.75014 5.06186 3.78057 4.9679 3.83797C4.87394 3.89536 4.79759 3.9775 4.7472 4.07539C4.69681 4.17328 4.67432 4.28315 4.6822 4.39296C4.69009 4.50278 4.72804 4.60831 4.79189 4.698L10.9189 13.288M13.0809 10.712L19.2079 19.302C19.2718 19.3917 19.3097 19.4972 19.3176 19.607C19.3255 19.7169 19.303 19.8267 19.2526 19.9246C19.2022 20.0225 19.1258 20.1046 19.0319 20.162C18.9379 20.2194 18.83 20.2499 18.7199 20.25H16.1939C16.0982 20.25 16.0039 20.2272 15.9188 20.1833C15.8337 20.1395 15.7604 20.076 15.7049 19.998L10.9189 13.288M13.0809 10.712L18.9229 3.75M10.9189 13.288L5.0769 20.25" stroke="black" stroke-width="1.5" stroke-linecap="round" stroke-linejoin="round"/>
</svg>
