<svg width="24" height="24" viewBox="0 0 24 24" fill="none" xmlns="http://www.w3.org/2000/svg">
<path d="M21.28 9.21194C21.34 9.4018 21.472 9.56055 21.6478 9.65406C21.8236 9.74756 22.0291 9.76834 22.22 9.71194C22.62 9.59194 22.84 9.17195 22.72 8.77194C22.56 8.24195 22.36 7.72194 22.12 7.22194C22.0787 7.13206 22.0198 7.0513 21.9469 6.98439C21.8741 6.91749 21.7886 6.86577 21.6955 6.83225C21.6024 6.79874 21.5036 6.78411 21.4048 6.7892C21.3059 6.7943 21.2091 6.81903 21.12 6.86194C20.75 7.04194 20.58 7.48194 20.76 7.86194C20.96 8.30194 21.14 8.75194 21.28 9.21194ZM19.25 5.63194C19.4 5.81194 19.62 5.90194 19.83 5.90194C20 5.90194 20.17 5.85194 20.31 5.73194C20.62 5.46194 20.67 4.99194 20.4 4.67194C20.23 4.47194 20.06 4.29194 19.88 4.11194C19.7 3.93194 19.52 3.76195 19.34 3.60194C19.2667 3.53582 19.181 3.48489 19.0879 3.45209C18.9948 3.41929 18.8961 3.40528 18.7975 3.41085C18.6989 3.41643 18.6024 3.4415 18.5136 3.4846C18.4248 3.52769 18.3454 3.58797 18.28 3.66194C18 3.97194 18.03 4.45195 18.34 4.72195C18.5 4.86195 18.66 5.01194 18.82 5.17194C18.97 5.31194 19.11 5.47194 19.25 5.63194ZM16.405 3.29194H16.41H16.4H16.405ZM16.09 3.22194C16.188 3.27194 16.296 3.29194 16.405 3.29194C16.5754 3.29188 16.7408 3.23392 16.874 3.12757C17.0071 3.02122 17.1002 2.87279 17.138 2.7066C17.1758 2.54041 17.156 2.36632 17.0818 2.21286C17.0077 2.0594 16.8837 1.93567 16.73 1.86194C16.19 1.60194 15.7 1.41194 15.21 1.27194C15.019 1.21625 14.8138 1.23869 14.6394 1.33434C14.465 1.42998 14.3357 1.59099 14.28 1.78194C14.2243 1.9729 14.2467 2.17816 14.3424 2.35257C14.438 2.52698 14.599 2.65625 14.79 2.71194C15.2 2.83194 15.62 3.00194 16.09 3.22194ZM12 22.7419C6.07 22.7419 1.25 17.9219 1.25 11.9919C1.25 6.06194 6.07 1.24194 12 1.24194C12.41 1.24194 12.75 1.58194 12.75 1.99194C12.75 2.40194 12.41 2.74194 12 2.74194C6.9 2.74194 2.75 6.89194 2.75 11.9919C2.75 17.0919 6.9 21.2419 12 21.2419C17.1 21.2419 21.25 17.0919 21.25 11.9919C21.25 11.5819 21.59 11.2419 22 11.2419C22.41 11.2419 22.75 11.5819 22.75 11.9919C22.75 17.9219 17.93 22.7419 12 22.7419ZM16 12.7419H12C11.59 12.7419 11.25 12.4019 11.25 11.9919V5.99194C11.25 5.58194 11.59 5.24194 12 5.24194C12.41 5.24194 12.75 5.58194 12.75 5.99194V11.2419H16C16.41 11.2419 16.75 11.5819 16.75 11.9919C16.75 12.4019 16.41 12.7419 16 12.7419Z" fill="currentColor"  />
</svg>
