<svg xmlns="http://www.w3.org/2000/svg" width="14" height="22" viewBox="0 0 14 22" fill="none">
<path d="M7.00036 12.0002V17.0002M1.00036 21.0002H13.0004M8.03736 1.86725L9.09236 3.99625C9.23636 4.29225 9.62036 4.57625 9.94436 4.63125L11.8584 4.95125C13.0824 5.15725 13.3704 6.05225 12.4884 6.93625L11.0004 8.43625C10.7484 8.69025 10.6104 9.18025 10.6884 9.53125L11.1144 11.3872C11.4504 12.8572 10.6764 13.4262 9.38636 12.6572L7.59336 11.5872C7.26936 11.3932 6.73536 11.3932 6.40536 11.5872L4.61136 12.6572C3.32736 13.4262 2.54736 12.8512 2.88336 11.3872L3.30936 9.53025C3.38736 9.18025 3.24936 8.69025 2.99736 8.43625L1.50936 6.93625C0.633359 6.05225 0.91536 5.15725 2.13936 4.95125L4.05336 4.63125C4.37136 4.57625 4.75536 4.29225 4.89936 3.99625L5.95536 1.86625C6.53136 0.71125 7.46736 0.71125 8.03736 1.86625M3.00036 20.0002C3.00036 18.5862 3.00036 17.8793 3.44036 17.4403C3.87836 17.0003 4.58536 17.0002 6.00036 17.0002H8.00036C9.41436 17.0002 10.1214 17.0003 10.5604 17.4403C11.0004 17.8793 11.0004 18.5862 11.0004 20.0002V21.0002H3.00036V20.0002Z" stroke="#5C99F4" stroke-width="1.5" stroke-linecap="round" stroke-linejoin="round"/>
</svg>