<svg width="32" height="32" viewBox="0 0 32 32" fill="none" xmlns="http://www.w3.org/2000/svg">
<path d="M4.68945 13.7417C4.17211 12.3097 3.91345 11.5937 4.02278 11.135C4.14411 10.6323 4.50145 10.2417 4.95745 10.111C5.37478 9.99099 6.02411 10.2803 7.32145 10.8577C8.46811 11.367 9.04145 11.6217 9.58145 11.6083C10.1761 11.5923 10.7468 11.355 11.2014 10.9323C11.6148 10.5497 11.8908 9.94032 12.4441 8.72166L13.6641 6.03366C14.6828 3.78966 15.1921 2.66699 15.9988 2.66699C16.8054 2.66699 17.3148 3.78966 18.3334 6.03366L19.5534 8.72166C20.1068 9.94032 20.3841 10.5497 20.7961 10.9323C21.2508 11.3537 21.8228 11.5923 22.4161 11.6083C22.9548 11.6217 23.5294 11.367 24.6761 10.8563C25.9748 10.2803 26.6228 9.99099 27.0401 10.111C27.4961 10.2417 27.8534 10.6323 27.9734 11.135C28.0841 11.5937 27.8254 12.3083 27.3068 13.7417L25.0841 19.8963C24.1321 22.5297 23.6574 23.8457 22.6614 24.5897C21.6654 25.3337 20.3788 25.3337 17.8068 25.3337H14.1908C11.6174 25.3337 10.3321 25.3337 9.33745 24.5897C8.34145 23.8457 7.86545 22.5297 6.91345 19.8963L4.68945 13.7417ZM9.33211 29.3337H22.6654H9.33211Z" fill="url(#paint0_linear_5146_10236)"/>
<path d="M9.33211 29.3337H22.6654M4.68945 13.7417C4.17211 12.3097 3.91345 11.5937 4.02278 11.135C4.14411 10.6323 4.50145 10.2417 4.95745 10.111C5.37478 9.99099 6.02411 10.2803 7.32145 10.8577C8.46811 11.367 9.04145 11.6217 9.58145 11.6083C10.1761 11.5923 10.7468 11.355 11.2014 10.9323C11.6148 10.5497 11.8908 9.94032 12.4441 8.72166L13.6641 6.03366C14.6828 3.78966 15.1921 2.66699 15.9988 2.66699C16.8054 2.66699 17.3148 3.78966 18.3334 6.03366L19.5534 8.72166C20.1068 9.94032 20.3841 10.5497 20.7961 10.9323C21.2508 11.3537 21.8228 11.5923 22.4161 11.6083C22.9548 11.6217 23.5294 11.367 24.6761 10.8563C25.9748 10.2803 26.6228 9.99099 27.0401 10.111C27.4961 10.2417 27.8534 10.6323 27.9734 11.135C28.0841 11.5937 27.8254 12.3083 27.3068 13.7417L25.0841 19.8963C24.1321 22.5297 23.6574 23.8457 22.6614 24.5897C21.6654 25.3337 20.3788 25.3337 17.8068 25.3337H14.1908C11.6174 25.3337 10.3321 25.3337 9.33745 24.5897C8.34145 23.8457 7.86545 22.5297 6.91345 19.8963L4.68945 13.7417Z" stroke="url(#paint1_linear_5146_10236)" stroke-width="1.875" stroke-linecap="round" stroke-linejoin="round"/>
<path d="M12.8253 22V20.4489L16.4496 17.093C16.7578 16.7947 17.0163 16.5263 17.2251 16.2876C17.4373 16.049 17.598 15.8153 17.7074 15.5866C17.8168 15.3546 17.8714 15.1044 17.8714 14.8359C17.8714 14.5376 17.8035 14.2808 17.6676 14.0653C17.5317 13.8466 17.3461 13.6792 17.1108 13.5632C16.8755 13.4439 16.6087 13.3842 16.3104 13.3842C15.9988 13.3842 15.727 13.4472 15.495 13.5732C15.263 13.6991 15.084 13.8797 14.9581 14.1151C14.8321 14.3504 14.7692 14.6304 14.7692 14.9553H12.7259C12.7259 14.2891 12.8767 13.7107 13.1783 13.2202C13.4799 12.7296 13.9025 12.3501 14.446 12.0817C14.9896 11.8132 15.616 11.679 16.3253 11.679C17.0545 11.679 17.6892 11.8082 18.2294 12.0668C18.773 12.322 19.1955 12.6766 19.4972 13.1307C19.7988 13.5848 19.9496 14.1051 19.9496 14.6918C19.9496 15.0762 19.8733 15.4557 19.7209 15.8303C19.5717 16.2048 19.3049 16.6207 18.9205 17.0781C18.536 17.5322 17.9941 18.0774 17.2947 18.7138L15.8082 20.1705V20.2401H20.0838V22H12.8253Z" fill="white"/>
<defs>
<linearGradient id="paint0_linear_5146_10236" x1="15.9984" y1="2.66699" x2="15.9984" y2="29.3337" gradientUnits="userSpaceOnUse">
<stop stop-color="#E2E8F0"/>
<stop offset="1" stop-color="#64748B"/>
</linearGradient>
<linearGradient id="paint1_linear_5146_10236" x1="15.9984" y1="2.66699" x2="15.9984" y2="29.3337" gradientUnits="userSpaceOnUse">
<stop stop-color="#E2E8F0"/>
<stop offset="1" stop-color="#64748B"/>
</linearGradient>
</defs>
</svg>
