<svg width="32" height="32" viewBox="0 0 32 32" fill="none" xmlns="http://www.w3.org/2000/svg">
<path d="M4.69042 13.7417C4.17309 12.3097 3.91442 11.5937 4.02376 11.135C4.14509 10.6323 4.50242 10.2417 4.95842 10.111C5.37576 9.99099 6.02509 10.2803 7.32242 10.8577C8.46909 11.367 9.04242 11.6217 9.58242 11.6083C10.1771 11.5923 10.7478 11.355 11.2024 10.9323C11.6158 10.5497 11.8918 9.94032 12.4451 8.72166L13.6651 6.03366C14.6838 3.78966 15.1931 2.66699 15.9998 2.66699C16.8064 2.66699 17.3158 3.78966 18.3344 6.03366L19.5544 8.72166C20.1078 9.94032 20.3851 10.5497 20.7971 10.9323C21.2518 11.3537 21.8238 11.5923 22.4171 11.6083C22.9558 11.6217 23.5304 11.367 24.6771 10.8563C25.9758 10.2803 26.6238 9.99099 27.0411 10.111C27.4971 10.2417 27.8544 10.6323 27.9744 11.135C28.0851 11.5937 27.8264 12.3083 27.3078 13.7417L25.0851 19.8963C24.1331 22.5297 23.6584 23.8457 22.6624 24.5897C21.6664 25.3337 20.3798 25.3337 17.8078 25.3337H14.1918C11.6184 25.3337 10.3331 25.3337 9.33842 24.5897C8.34242 23.8457 7.86642 22.5297 6.91442 19.8963L4.69042 13.7417ZM9.33309 29.3337H22.6664H9.33309Z" fill="url(#paint0_linear_441_2064)"/>
<path d="M9.33309 29.3337H22.6664M4.69042 13.7417C4.17309 12.3097 3.91442 11.5937 4.02376 11.135C4.14509 10.6323 4.50242 10.2417 4.95842 10.111C5.37576 9.99099 6.02509 10.2803 7.32242 10.8577C8.46909 11.367 9.04242 11.6217 9.58242 11.6083C10.1771 11.5923 10.7478 11.355 11.2024 10.9323C11.6158 10.5497 11.8918 9.94032 12.4451 8.72166L13.6651 6.03366C14.6838 3.78966 15.1931 2.66699 15.9998 2.66699C16.8064 2.66699 17.3158 3.78966 18.3344 6.03366L19.5544 8.72166C20.1078 9.94032 20.3851 10.5497 20.7971 10.9323C21.2518 11.3537 21.8238 11.5923 22.4171 11.6083C22.9558 11.6217 23.5304 11.367 24.6771 10.8563C25.9758 10.2803 26.6238 9.99099 27.0411 10.111C27.4971 10.2417 27.8544 10.6323 27.9744 11.135C28.0851 11.5937 27.8264 12.3083 27.3078 13.7417L25.0851 19.8963C24.1331 22.5297 23.6584 23.8457 22.6624 24.5897C21.6664 25.3337 20.3798 25.3337 17.8078 25.3337H14.1918C11.6184 25.3337 10.3331 25.3337 9.33842 24.5897C8.34242 23.8457 7.86642 22.5297 6.91442 19.8963L4.69042 13.7417Z" stroke="url(#paint1_linear_441_2064)" stroke-width="1.875" stroke-linecap="round" stroke-linejoin="round"/>
<path d="M16.5888 22.1392C15.8464 22.1392 15.1851 22.0116 14.6051 21.7564C14.0284 21.4979 13.5727 21.1432 13.2379 20.6925C12.9065 20.2384 12.7358 19.7147 12.7259 19.1214H14.8935C14.9067 19.37 14.9879 19.5888 15.1371 19.7777C15.2895 19.9633 15.4917 20.1075 15.7436 20.2102C15.9955 20.313 16.2789 20.3643 16.5938 20.3643C16.9219 20.3643 17.2119 20.3063 17.4638 20.1903C17.7157 20.0743 17.9129 19.9136 18.0554 19.7081C18.1979 19.5026 18.2692 19.2656 18.2692 18.9972C18.2692 18.7254 18.1929 18.4851 18.0405 18.2763C17.8913 18.0642 17.6759 17.8984 17.3942 17.7791C17.1158 17.6598 16.7843 17.6001 16.3999 17.6001H15.4503V16.0192H16.3999C16.7247 16.0192 17.0114 15.9628 17.2599 15.8501C17.5118 15.7375 17.7074 15.5817 17.8466 15.3828C17.9858 15.1806 18.0554 14.9453 18.0554 14.6768C18.0554 14.4216 17.9941 14.1979 17.8714 14.0057C17.7521 13.8101 17.5831 13.6577 17.3643 13.5483C17.1489 13.4389 16.897 13.3842 16.6087 13.3842C16.317 13.3842 16.0502 13.4373 15.8082 13.5433C15.5663 13.6461 15.3724 13.7936 15.2266 13.9858C15.0807 14.178 15.0028 14.4034 14.9929 14.6619H12.9297C12.9396 14.0753 13.107 13.5582 13.4318 13.1108C13.7566 12.6634 14.1941 12.3137 14.7443 12.0618C15.2978 11.8066 15.9226 11.679 16.6186 11.679C17.3213 11.679 17.9361 11.8066 18.4631 12.0618C18.9901 12.317 19.3994 12.6617 19.6911 13.0959C19.986 13.5268 20.1319 14.0107 20.1286 14.5476C20.1319 15.1177 19.9545 15.5933 19.5966 15.9744C19.242 16.3556 18.7796 16.5975 18.2095 16.7003V16.7798C18.9586 16.8759 19.5286 17.1361 19.9197 17.5604C20.3142 17.9813 20.5097 18.5083 20.5064 19.1413C20.5097 19.7214 20.3423 20.2367 20.0043 20.6875C19.6695 21.1383 19.2071 21.4929 18.6172 21.7514C18.0272 22.0099 17.3511 22.1392 16.5888 22.1392Z" fill="white"/>
<defs>
<linearGradient id="paint0_linear_441_2064" x1="15.9993" y1="2.66699" x2="15.9993" y2="29.3337" gradientUnits="userSpaceOnUse">
<stop stop-color="#BEE8E5"/>
<stop offset="1" stop-color="#007AFF"/>
</linearGradient>
<linearGradient id="paint1_linear_441_2064" x1="15.9993" y1="2.66699" x2="15.9993" y2="29.3337" gradientUnits="userSpaceOnUse">
<stop stop-color="#BEE8E5"/>
<stop offset="1" stop-color="#007AFF"/>
</linearGradient>
</defs>
</svg>
