<svg width="32" height="32" viewBox="0 0 32 32" fill="none" xmlns="http://www.w3.org/2000/svg">
<path d="M4.69042 13.7417C4.17309 12.3097 3.91442 11.5937 4.02376 11.135C4.14509 10.6323 4.50242 10.2417 4.95842 10.111C5.37576 9.99099 6.02509 10.2803 7.32242 10.8577C8.46909 11.367 9.04242 11.6217 9.58242 11.6083C10.1771 11.5923 10.7478 11.355 11.2024 10.9323C11.6158 10.5497 11.8918 9.94032 12.4451 8.72166L13.6651 6.03366C14.6838 3.78966 15.1931 2.66699 15.9998 2.66699C16.8064 2.66699 17.3158 3.78966 18.3344 6.03366L19.5544 8.72166C20.1078 9.94032 20.3851 10.5497 20.7971 10.9323C21.2518 11.3537 21.8238 11.5923 22.4171 11.6083C22.9558 11.6217 23.5304 11.367 24.6771 10.8563C25.9758 10.2803 26.6238 9.99099 27.0411 10.111C27.4971 10.2417 27.8544 10.6323 27.9744 11.135C28.0851 11.5937 27.8264 12.3083 27.3078 13.7417L25.0851 19.8963C24.1331 22.5297 23.6584 23.8457 22.6624 24.5897C21.6664 25.3337 20.3798 25.3337 17.8078 25.3337H14.1918C11.6184 25.3337 10.3331 25.3337 9.33842 24.5897C8.34242 23.8457 7.86642 22.5297 6.91442 19.8963L4.69042 13.7417ZM9.33309 29.3337H22.6664H9.33309Z" fill="url(#paint0_linear_441_1980)"/>
<path d="M9.33309 29.3337H22.6664M4.69042 13.7417C4.17309 12.3097 3.91442 11.5937 4.02376 11.135C4.14509 10.6323 4.50242 10.2417 4.95842 10.111C5.37576 9.99099 6.02509 10.2803 7.32242 10.8577C8.46909 11.367 9.04242 11.6217 9.58242 11.6083C10.1771 11.5923 10.7478 11.355 11.2024 10.9323C11.6158 10.5497 11.8918 9.94032 12.4451 8.72166L13.6651 6.03366C14.6838 3.78966 15.1931 2.66699 15.9998 2.66699C16.8064 2.66699 17.3158 3.78966 18.3344 6.03366L19.5544 8.72166C20.1078 9.94032 20.3851 10.5497 20.7971 10.9323C21.2518 11.3537 21.8238 11.5923 22.4171 11.6083C22.9558 11.6217 23.5304 11.367 24.6771 10.8563C25.9758 10.2803 26.6238 9.99099 27.0411 10.111C27.4971 10.2417 27.8544 10.6323 27.9744 11.135C28.0851 11.5937 27.8264 12.3083 27.3078 13.7417L25.0851 19.8963C24.1331 22.5297 23.6584 23.8457 22.6624 24.5897C21.6664 25.3337 20.3798 25.3337 17.8078 25.3337H14.1918C11.6184 25.3337 10.3331 25.3337 9.33842 24.5897C8.34242 23.8457 7.86642 22.5297 6.91442 19.8963L4.69042 13.7417Z" stroke="url(#paint1_linear_441_1980)" stroke-width="1.875" stroke-linecap="round" stroke-linejoin="round"/>
<path d="M17.255 11.8182V22H15.1023V13.8615H15.0426L12.7109 15.3232V13.4141L15.2315 11.8182H17.255Z" fill="white"/>
<defs>
<linearGradient id="paint0_linear_441_1980" x1="15.9993" y1="2.66699" x2="15.9993" y2="29.3337" gradientUnits="userSpaceOnUse">
<stop stop-color="#FFD900"/>
<stop offset="1" stop-color="#FF9500"/>
</linearGradient>
<linearGradient id="paint1_linear_441_1980" x1="15.9993" y1="2.66699" x2="15.9993" y2="29.3337" gradientUnits="userSpaceOnUse">
<stop stop-color="#FFD900"/>
<stop offset="1" stop-color="#FF9500"/>
</linearGradient>
</defs>
</svg>
