<svg width="32" height="32" viewBox="0 0 32 32" fill="none" xmlns="http://www.w3.org/2000/svg">
<path d="M4.68945 13.7417C4.17211 12.3097 3.91345 11.5937 4.02278 11.135C4.14411 10.6323 4.50145 10.2417 4.95745 10.111C5.37478 9.99099 6.02411 10.2803 7.32145 10.8577C8.46811 11.367 9.04145 11.6217 9.58145 11.6083C10.1761 11.5923 10.7468 11.355 11.2014 10.9323C11.6148 10.5497 11.8908 9.94032 12.4441 8.72166L13.6641 6.03366C14.6828 3.78966 15.1921 2.66699 15.9988 2.66699C16.8054 2.66699 17.3148 3.78966 18.3334 6.03366L19.5534 8.72166C20.1068 9.94032 20.3841 10.5497 20.7961 10.9323C21.2508 11.3537 21.8228 11.5923 22.4161 11.6083C22.9548 11.6217 23.5294 11.367 24.6761 10.8563C25.9748 10.2803 26.6228 9.99099 27.0401 10.111C27.4961 10.2417 27.8534 10.6323 27.9734 11.135C28.0841 11.5937 27.8254 12.3083 27.3068 13.7417L25.0841 19.8963C24.1321 22.5297 23.6574 23.8457 22.6614 24.5897C21.6654 25.3337 20.3788 25.3337 17.8068 25.3337H14.1908C11.6174 25.3337 10.3321 25.3337 9.33745 24.5897C8.34145 23.8457 7.86545 22.5297 6.91345 19.8963L4.68945 13.7417ZM9.33211 29.3337H22.6654H9.33211Z" fill="url(#paint0_linear_5146_10221)"/>
<path d="M9.33211 29.3337H22.6654M4.68945 13.7417C4.17211 12.3097 3.91345 11.5937 4.02278 11.135C4.14411 10.6323 4.50145 10.2417 4.95745 10.111C5.37478 9.99099 6.02411 10.2803 7.32145 10.8577C8.46811 11.367 9.04145 11.6217 9.58145 11.6083C10.1761 11.5923 10.7468 11.355 11.2014 10.9323C11.6148 10.5497 11.8908 9.94032 12.4441 8.72166L13.6641 6.03366C14.6828 3.78966 15.1921 2.66699 15.9988 2.66699C16.8054 2.66699 17.3148 3.78966 18.3334 6.03366L19.5534 8.72166C20.1068 9.94032 20.3841 10.5497 20.7961 10.9323C21.2508 11.3537 21.8228 11.5923 22.4161 11.6083C22.9548 11.6217 23.5294 11.367 24.6761 10.8563C25.9748 10.2803 26.6228 9.99099 27.0401 10.111C27.4961 10.2417 27.8534 10.6323 27.9734 11.135C28.0841 11.5937 27.8254 12.3083 27.3068 13.7417L25.0841 19.8963C24.1321 22.5297 23.6574 23.8457 22.6614 24.5897C21.6654 25.3337 20.3788 25.3337 17.8068 25.3337H14.1908C11.6174 25.3337 10.3321 25.3337 9.33745 24.5897C8.34145 23.8457 7.86545 22.5297 6.91345 19.8963L4.68945 13.7417Z" stroke="url(#paint1_linear_5146_10221)" stroke-width="1.875" stroke-linecap="round" stroke-linejoin="round"/>
<path d="M17.255 11.8182V22H15.1023V13.8615H15.0426L12.7109 15.3232V13.4141L15.2315 11.8182H17.255Z" fill="white"/>
<defs>
<linearGradient id="paint0_linear_5146_10221" x1="15.9984" y1="2.66699" x2="15.9984" y2="29.3337" gradientUnits="userSpaceOnUse">
<stop stop-color="#FFD900"/>
<stop offset="1" stop-color="#FF9500"/>
</linearGradient>
<linearGradient id="paint1_linear_5146_10221" x1="15.9984" y1="2.66699" x2="15.9984" y2="29.3337" gradientUnits="userSpaceOnUse">
<stop stop-color="#FFD900"/>
<stop offset="1" stop-color="#FF9500"/>
</linearGradient>
</defs>
</svg>
