<svg xmlns="http://www.w3.org/2000/svg" width="20" height="15" viewBox="0 0 20 15" fill="none">
<path d="M4.47855 1.19625C4.28329 1.00099 3.96671 1.00099 3.77145 1.19625L1.18306 3.78464C0.938981 4.02872 0.938981 4.42445 1.18306 4.66852C1.42714 4.9126 1.82286 4.9126 2.06694 4.66852L3.5 3.23547V10.7266C3.5 12.4525 4.89911 13.8516 6.625 13.8516H10.625C10.9702 13.8516 11.25 13.5718 11.25 13.2266C11.25 12.8814 10.9702 12.6016 10.625 12.6016H6.625C5.58947 12.6016 4.75 11.7621 4.75 10.7266V3.23547L6.18306 4.66852C6.42714 4.9126 6.82286 4.9126 7.06694 4.66852C7.31102 4.42445 7.31102 4.02872 7.06694 3.78464L4.47855 1.19625Z" fill="currentColor"/>
<path d="M15.3964 13.8819C15.5917 14.0771 15.9083 14.0771 16.1036 13.8819L18.6919 11.2935C18.936 11.0494 18.936 10.6537 18.6919 10.4096C18.4479 10.1655 18.0521 10.1655 17.8081 10.4096L16.375 11.8427V4.35154C16.375 2.62565 14.9759 1.22654 13.25 1.22654H9.25C8.90482 1.22654 8.625 1.50637 8.625 1.85154C8.625 2.19672 8.90482 2.47654 9.25 2.47654H13.25C14.2855 2.47654 15.125 3.31601 15.125 4.35154V11.8427L13.6919 10.4096C13.4479 10.1655 13.0521 10.1655 12.8081 10.4096C12.564 10.6537 12.564 11.0494 12.8081 11.2935L15.3964 13.8819Z" fill="currentColor"/>
<path d="M4.47855 1.19625C4.28329 1.00099 3.96671 1.00099 3.77145 1.19625L1.18306 3.78464C0.938981 4.02872 0.938981 4.42445 1.18306 4.66852C1.42714 4.9126 1.82286 4.9126 2.06694 4.66852L3.5 3.23547V10.7266C3.5 12.4525 4.89911 13.8516 6.625 13.8516H10.625C10.9702 13.8516 11.25 13.5718 11.25 13.2266C11.25 12.8814 10.9702 12.6016 10.625 12.6016H6.625C5.58947 12.6016 4.75 11.7621 4.75 10.7266V3.23547L6.18306 4.66852C6.42714 4.9126 6.82286 4.9126 7.06694 4.66852C7.31102 4.42445 7.31102 4.02872 7.06694 3.78464L4.47855 1.19625Z" stroke="currentColor" stroke-width="0.4" stroke-linecap="round"/>
<path d="M15.3964 13.8819C15.5917 14.0771 15.9083 14.0771 16.1036 13.8819L18.6919 11.2935C18.936 11.0494 18.936 10.6537 18.6919 10.4096C18.4479 10.1655 18.0521 10.1655 17.8081 10.4096L16.375 11.8427V4.35154C16.375 2.62565 14.9759 1.22654 13.25 1.22654H9.25C8.90482 1.22654 8.625 1.50637 8.625 1.85154C8.625 2.19672 8.90482 2.47654 9.25 2.47654H13.25C14.2855 2.47654 15.125 3.31601 15.125 4.35154V11.8427L13.6919 10.4096C13.4479 10.1655 13.0521 10.1655 12.8081 10.4096C12.564 10.6537 12.564 11.0494 12.8081 11.2935L15.3964 13.8819Z" stroke="currentColor" stroke-width="0.4" stroke-linecap="round"/>
</svg>