<svg width="83" height="83" viewBox="0 0 83 83" fill="none" xmlns="http://www.w3.org/2000/svg">
<path d="M68.2821 44.9599C70.7107 41.4689 72.1768 37.3997 72.5328 33.162C72.8889 28.9243 72.1224 24.6675 70.3103 20.8202C68.4983 16.9729 65.7048 13.6708 62.2109 11.2463C58.717 8.8218 54.6462 7.36047 50.408 7.0094C46.1698 6.65832 41.914 7.4299 38.0688 9.24645C34.2236 11.063 30.9248 13.8604 28.5045 17.3571C26.0841 20.8539 24.6276 24.9265 24.2815 29.165C23.9354 33.4036 24.712 37.6585 26.5331 41.5016" stroke="url(#paint0_linear_1266_10030)" stroke-width="5.1875" stroke-linecap="round" stroke-linejoin="round"/>
<path d="M48.4167 20.7503C44.5952 20.7503 41.5 23.0743 41.5 25.9378C41.5 28.8013 44.5952 31.1253 48.4167 31.1253C52.2381 31.1253 55.3333 33.4493 55.3333 36.3128C55.3333 39.1763 52.2381 41.5003 48.4167 41.5003M48.4167 20.7503C51.4254 20.7503 53.9915 22.1925 54.9391 24.2087M48.4167 20.7503V17.292M48.4167 41.5003C45.4079 41.5003 42.8418 40.0582 41.8943 38.042M48.4167 41.5003V44.9587M10.375 48.417H18.6577C19.6745 48.417 20.6774 48.6452 21.5869 49.0879L28.6488 52.5047C29.5584 52.944 30.5613 53.1722 31.5815 53.1722H35.1851C38.6711 53.1722 41.5 55.9077 41.5 59.2831C41.5 59.4214 41.4066 59.539 41.2718 59.577L32.4841 62.0082C30.9073 62.4438 29.2259 62.2914 27.7531 61.5794L20.2036 57.9274M41.5 57.0628L57.3841 52.1831C58.767 51.7588 60.2485 51.7821 61.6173 52.2498C62.9861 52.7174 64.1722 53.6055 65.0063 54.7872C66.2824 56.551 65.7637 59.0825 63.9031 60.1546L37.9137 75.1534C37.1011 75.6236 36.2012 75.9234 35.2689 76.0346C34.3366 76.1457 33.3915 76.066 32.491 75.8001L10.375 69.2362" stroke="url(#paint1_linear_1266_10030)" stroke-width="5.1875" stroke-linecap="round" stroke-linejoin="round"/>
<defs>
<linearGradient id="paint0_linear_1266_10030" x1="24.2012" y1="25.9433" x2="72.6179" y2="25.9433" gradientUnits="userSpaceOnUse">
<stop stop-color="#88BBF3"/>
<stop offset="1" stop-color="#5C99F4"/>
</linearGradient>
<linearGradient id="paint1_linear_1266_10030" x1="10.375" y1="46.6876" x2="65.7086" y2="46.6876" gradientUnits="userSpaceOnUse">
<stop stop-color="#88BBF3"/>
<stop offset="1" stop-color="#5C99F4"/>
</linearGradient>
</defs>
</svg>
