<svg xmlns="http://www.w3.org/2000/svg" width="15" height="16" viewBox="0 0 15 16" fill="none">
<path fill-rule="evenodd" clip-rule="evenodd" d="M2.98798 6.52945C2.36135 6.52945 1.85337 7.03743 1.85337 7.66406C1.85337 8.29069 2.36135 8.79868 2.98798 8.79868C3.61461 8.79868 4.1226 8.29069 4.1226 7.66406C4.1226 7.03743 3.61461 6.52945 2.98798 6.52945ZM0.71875 7.66406C0.71875 6.4108 1.73472 5.39483 2.98798 5.39483C4.24124 5.39483 5.25721 6.4108 5.25721 7.66406C5.25721 8.91732 4.24124 9.93329 2.98798 9.93329C1.73472 9.93329 0.71875 8.91732 0.71875 7.66406Z" fill="currentColor"/>
<path fill-rule="evenodd" clip-rule="evenodd" d="M12.0649 1.42368C11.4383 1.42368 10.9303 1.93166 10.9303 2.55829C10.9303 3.18492 11.4383 3.69291 12.0649 3.69291C12.6915 3.69291 13.1995 3.18492 13.1995 2.55829C13.1995 1.93166 12.6915 1.42368 12.0649 1.42368ZM9.79567 2.55829C9.79567 1.30503 10.8116 0.289062 12.0649 0.289062C13.3182 0.289062 14.3341 1.30503 14.3341 2.55829C14.3341 3.81155 13.3182 4.82752 12.0649 4.82752C10.8116 4.82752 9.79567 3.81155 9.79567 2.55829Z" fill="currentColor"/>
<path fill-rule="evenodd" clip-rule="evenodd" d="M12.0649 11.6352C11.4383 11.6352 10.9303 12.1432 10.9303 12.7698C10.9303 13.3965 11.4383 13.9044 12.0649 13.9044C12.6915 13.9044 13.1995 13.3965 13.1995 12.7698C13.1995 12.1432 12.6915 11.6352 12.0649 11.6352ZM9.79567 12.7698C9.79567 11.5166 10.8116 10.5006 12.0649 10.5006C13.3182 10.5006 14.3341 11.5166 14.3341 12.7698C14.3341 14.0231 13.3182 15.0391 12.0649 15.0391C10.8116 15.0391 9.79567 14.0231 9.79567 12.7698Z" fill="currentColor"/>
<path fill-rule="evenodd" clip-rule="evenodd" d="M3.97668 8.22023C4.13029 7.94715 4.47618 7.8503 4.74926 8.00391L10.8599 11.4411C11.133 11.5947 11.2298 11.9406 11.0762 12.2137C10.9226 12.4867 10.5767 12.5836 10.3036 12.43L4.19301 8.99281C3.91993 8.83921 3.82308 8.49331 3.97668 8.22023Z" fill="currentColor"/>
<path fill-rule="evenodd" clip-rule="evenodd" d="M11.0762 3.11446C11.2298 3.38754 11.133 3.73344 10.8599 3.88704L4.74926 7.32422C4.47618 7.47782 4.13029 7.38097 3.97668 7.10789C3.82308 6.83481 3.91993 6.48892 4.19301 6.33531L10.3036 2.89814C10.5767 2.74453 10.9226 2.84138 11.0762 3.11446Z" fill="#999999"/>
</svg>