<svg viewBox="0 0 16 14" fill="none" xmlns="http://www.w3.org/2000/svg">
<g id="Frame" clip-path="url(#clip0_119_10316)">
<path id="Vector" d="M15.5763 10.9935L12.9915 13.7455C12.9358 13.8059 12.8681 13.854 12.7927 13.8867C12.7174 13.9194 12.636 13.936 12.5538 13.9355H0.300946C0.242542 13.9352 0.185458 13.9181 0.136499 13.8862C0.08754 13.8544 0.0487721 13.8091 0.024817 13.7559C0.00131075 13.7027 -0.00587509 13.6438 0.00417185 13.5866C0.0144344 13.5291 0.0409403 13.4757 0.0805589 13.4328L2.66224 10.6808C2.7179 10.6203 2.7856 10.5722 2.86098 10.5395C2.93636 10.5068 3.01775 10.4902 3.09991 10.4908H15.3528C15.4115 10.4892 15.4694 10.5051 15.5191 10.5365C15.5688 10.5679 15.608 10.6133 15.6318 10.667C15.6556 10.7207 15.6628 10.7803 15.6527 10.8382C15.6425 10.896 15.6154 10.9496 15.5748 10.992L15.5763 10.9935ZM12.991 5.45032C12.9344 5.39111 12.8665 5.34381 12.7913 5.3112C12.7162 5.27858 12.6353 5.26131 12.5533 5.26039H0.300946C0.242485 5.26074 0.185361 5.27791 0.136396 5.30985C0.0874314 5.34179 0.0486962 5.38715 0.024817 5.44052C0.00134101 5.49366 -0.00584372 5.55258 0.00417185 5.60981C0.0144944 5.66761 0.040817 5.71974 0.0805589 5.7631L2.66224 8.51664C2.71746 8.576 2.78611 8.624 2.86043 8.656C2.9363 8.68903 3.01682 8.70503 3.09991 8.70658H15.3528C15.4109 8.70672 15.4678 8.68976 15.5163 8.65783C15.5649 8.62589 15.603 8.58038 15.6258 8.52697C15.6494 8.47387 15.6567 8.41497 15.6468 8.35774C15.6368 8.3005 15.6102 8.24749 15.5701 8.20542L12.9895 5.45187L12.991 5.45032ZM0.30043 3.47355H12.5533C12.6357 3.47311 12.7171 3.45627 12.7928 3.424C12.8687 3.39097 12.9358 3.34452 12.991 3.28361L15.5768 0.531613C15.6067 0.499734 15.6291 0.461703 15.6427 0.420197C15.6563 0.378691 15.6606 0.334719 15.6553 0.291373C15.65 0.248027 15.6353 0.206362 15.6122 0.169308C15.5891 0.132254 15.5582 0.100713 15.5216 0.076903C15.4719 0.0450844 15.4138 0.0289027 15.3549 0.0304514H3.09991C3.01837 0.0304514 2.9363 0.0479997 2.86043 0.0794836C2.78517 0.111949 2.71763 0.159968 2.66224 0.220387L0.0805589 2.97239C0.0410647 3.015 0.0147781 3.06816 0.0048844 3.12542C-0.0050093 3.18267 0.00191457 3.24157 0.024817 3.29497C0.0487357 3.34815 0.0874237 3.39335 0.136282 3.42519C0.18514 3.45703 0.242114 3.47418 0.30043 3.47458V3.47355Z" fill="url(#paint0_linear_119_10316)"/>
</g>
<defs>
<linearGradient id="paint0_linear_119_10316" x1="1.32185" y1="14.2668" x2="14.0687" y2="-0.204903" gradientUnits="userSpaceOnUse">
<stop offset="0.08" stop-color="#9945FF"/>
<stop offset="0.3" stop-color="#8752F3"/>
<stop offset="0.5" stop-color="#5497D5"/>
<stop offset="0.6" stop-color="#43B4CA"/>
<stop offset="0.72" stop-color="#28E0B9"/>
<stop offset="0.97" stop-color="#19FB9B"/>
</linearGradient>
<clipPath id="clip0_119_10316">
<rect width="16" height="13.9355" fill="white"/>
</clipPath>
</defs>
</svg>
