<svg width="13" height="13" viewBox="0 0 13 13" fill="none" xmlns="http://www.w3.org/2000/svg">
<path id="Star 2" d="M4.3592 0.863894C4.53902 0.024456 5.62338 -0.213099 6.13769 0.474271L8.21711 3.25338C8.36193 3.44693 8.57195 3.58147 8.80832 3.6321L12.2023 4.35916C13.0417 4.53898 13.2793 5.62334 12.5919 6.13765L9.81277 8.21707C9.61922 8.36189 9.48468 8.57191 9.43405 8.80828L8.707 12.2022C8.52717 13.0417 7.44281 13.2792 6.9285 12.5918L4.84909 9.81273C4.70427 9.61918 4.49424 9.48464 4.25788 9.43401L0.863936 8.70695C0.024498 8.52713 -0.213056 7.44277 0.474313 6.92846L3.25342 4.84904C3.44697 4.70422 3.58151 4.4942 3.63215 4.25783L4.3592 0.863894Z" fill="url(#paint0_radial_591_3073)"/>
<defs>
<radialGradient id="paint0_radial_591_3073" cx="0" cy="0" r="1" gradientUnits="userSpaceOnUse" gradientTransform="translate(6.97062 5.4128) rotate(83.6521) scale(6.37262 3.08779)">
<stop stop-color="white"/>
<stop offset="1" stop-color="#D4F5D0"/>
</radialGradient>
</defs>
</svg>
