<svg width="20" height="20" viewBox="0 0 20 20" fill="none" xmlns="http://www.w3.org/2000/svg">
<g id="Star 1">
<path d="M7.50045 2.2411C8.06643 0.620102 10.2774 0.41884 11.1268 1.911L13.0625 5.31172C13.3017 5.73188 13.685 6.05118 14.1414 6.21055L17.8357 7.50045C19.4567 8.06643 19.658 10.2774 18.1658 11.1268L14.7651 13.0625C14.345 13.3017 14.0257 13.685 13.8663 14.1414L12.5764 17.8357C12.0104 19.4567 9.7994 19.658 8.95004 18.1658L7.0143 14.7651C6.77513 14.345 6.39187 14.0257 5.93544 13.8663L2.2411 12.5764C0.620103 12.0104 0.418842 9.7994 1.91101 8.95004L5.31172 7.01429C5.73188 6.77513 6.05119 6.39187 6.21055 5.93544L7.50045 2.2411Z" fill="url(#paint0_radial_591_3067)"/>
<path d="M7.50045 2.2411C8.06643 0.620102 10.2774 0.41884 11.1268 1.911L13.0625 5.31172C13.3017 5.73188 13.685 6.05118 14.1414 6.21055L17.8357 7.50045C19.4567 8.06643 19.658 10.2774 18.1658 11.1268L14.7651 13.0625C14.345 13.3017 14.0257 13.685 13.8663 14.1414L12.5764 17.8357C12.0104 19.4567 9.7994 19.658 8.95004 18.1658L7.0143 14.7651C6.77513 14.345 6.39187 14.0257 5.93544 13.8663L2.2411 12.5764C0.620103 12.0104 0.418842 9.7994 1.91101 8.95004L5.31172 7.01429C5.73188 6.77513 6.05119 6.39187 6.21055 5.93544L7.50045 2.2411Z" fill="#007AFF"/>
</g>
<defs>
<radialGradient id="paint0_radial_591_3067" cx="0" cy="0" r="1" gradientUnits="userSpaceOnUse" gradientTransform="translate(10 8.49988) rotate(86.6335) scale(17.0294 18.1613)">
<stop stop-color="#EFFAFE"/>
<stop offset="1" stop-color="#427CCC"/>
</radialGradient>
</defs>
</svg>
