<svg width="12" height="12" viewBox="0 0 12 12" fill="none" xmlns="http://www.w3.org/2000/svg">
<path id="Star 3" d="M6.85866 0.933224C7.44218 0.303545 8.49567 0.653443 8.58652 1.5071L8.8724 4.19323C8.89799 4.4336 9.00977 4.65657 9.18707 4.82088L11.1684 6.65699C11.7981 7.24051 11.4482 8.294 10.5945 8.38485L7.90841 8.67073C7.66804 8.69631 7.44507 8.8081 7.28076 8.9854L5.44466 10.9667C4.86114 11.5964 3.80765 11.2465 3.71679 10.3929L3.43091 7.70674C3.40533 7.46637 3.29355 7.2434 3.11624 7.07909L1.1349 5.24299C0.505218 4.65946 0.855116 3.60598 1.70878 3.51512L4.39491 3.22924C4.63528 3.20366 4.85825 3.09187 5.02255 2.91457L6.85866 0.933224Z" fill="#D4F5D0"/>
</svg>
