<svg width="80" height="80" viewBox="0 0 80 80" fill="none" xmlns="http://www.w3.org/2000/svg">
<g clip-path="url(#clip0_4842_22829)">
<mask id="mask0_4842_22829" style="mask-type:alpha" maskUnits="userSpaceOnUse" x="7" y="7" width="67" height="67">
<path d="M35.595 46.235L28.4463 39.0863C27.8367 38.4767 27.0608 38.1719 26.1188 38.1719C25.1767 38.1719 24.4008 38.4767 23.7913 39.0863C23.1817 39.6958 22.8769 40.4717 22.8769 41.4138C22.8769 42.3558 23.1817 43.1317 23.7913 43.7413L33.2675 53.2175C33.9325 53.8825 34.7083 54.215 35.595 54.215C36.4817 54.215 37.2575 53.8825 37.9225 53.2175L56.7088 34.4313C57.3183 33.8217 57.6231 33.0458 57.6231 32.1038C57.6231 31.1617 57.3183 30.3858 56.7088 29.7763C56.0992 29.1667 55.3233 28.8619 54.3813 28.8619C53.4392 28.8619 52.6633 29.1667 52.0538 29.7763L35.595 46.235ZM40.25 73.5C35.6504 73.5 31.3279 72.6266 27.2825 70.8799C23.2371 69.1332 19.7181 66.7647 16.7256 63.7744C13.7331 60.7841 11.3646 57.2651 9.6201 53.2175C7.87559 49.1699 7.00222 44.8474 7 40.25C6.99779 35.6526 7.87115 31.3301 9.6201 27.2825C11.3691 23.2349 13.7376 19.7159 16.7256 16.7256C19.7137 13.7353 23.2327 11.3668 27.2825 9.6201C31.3324 7.87337 35.6549 7 40.25 7C44.8452 7 49.1677 7.87337 53.2175 9.6201C57.2674 11.3668 60.7863 13.7353 63.7744 16.7256C66.7625 19.7159 69.1321 23.2349 70.8832 27.2825C72.6344 31.3301 73.5067 35.6526 73.5 40.25C73.4934 44.8474 72.62 49.1699 70.8799 53.2175C69.1398 57.2651 66.7713 60.7841 63.7744 63.7744C60.7775 66.7647 57.2585 69.1343 53.2175 70.8832C49.1765 72.6322 44.854 73.5044 40.25 73.5Z" fill="black"/>
</mask>
<g mask="url(#mask0_4842_22829)">
</g>
<mask id="mask1_4842_22829" style="mask-type:alpha" maskUnits="userSpaceOnUse" x="6" y="6" width="68" height="68">
<path d="M35.3327 46.0003L28.166 38.8337C27.5549 38.2225 26.7771 37.917 25.8327 37.917C24.8882 37.917 24.1105 38.2225 23.4994 38.8337C22.8882 39.4448 22.5827 40.2225 22.5827 41.167C22.5827 42.1114 22.8882 42.8892 23.4994 43.5003L32.9994 53.0003C33.666 53.667 34.4438 54.0003 35.3327 54.0003C36.2216 54.0003 36.9994 53.667 37.666 53.0003L56.4994 34.167C57.1105 33.5559 57.416 32.7781 57.416 31.8337C57.416 30.8892 57.1105 30.1114 56.4994 29.5003C55.8882 28.8892 55.1105 28.5837 54.166 28.5837C53.2216 28.5837 52.4438 28.8892 51.8327 29.5003L35.3327 46.0003ZM39.9994 73.3337C35.3882 73.3337 31.0549 72.4581 26.9994 70.707C22.9438 68.9559 19.416 66.5814 16.416 63.5837C13.416 60.5859 11.0416 57.0581 9.29269 53.0003C7.5438 48.9425 6.66824 44.6092 6.66602 40.0003C6.6638 35.3914 7.53935 31.0581 9.29269 27.0003C11.046 22.9426 13.4205 19.4148 16.416 16.417C19.4116 13.4192 22.9394 11.0448 26.9994 9.29366C31.0594 7.54255 35.3927 6.66699 39.9994 6.66699C44.606 6.66699 48.9394 7.54255 52.9994 9.29366C57.0593 11.0448 60.5871 13.4192 63.5827 16.417C66.5782 19.4148 68.9538 22.9426 70.7094 27.0003C72.4649 31.0581 73.3394 35.3914 73.3327 40.0003C73.326 44.6092 72.4505 48.9425 70.706 53.0003C68.9616 57.0581 66.5871 60.5859 63.5827 63.5837C60.5782 66.5814 57.0505 68.957 52.9994 70.7103C48.9482 72.4637 44.6149 73.3381 39.9994 73.3337Z" fill="black"/>
</mask>
<g mask="url(#mask1_4842_22829)">
<circle cx="40" cy="40.5" r="33.5" fill="#35B888"/>
<g filter="url(#filter0_f_4842_22829)">
<path fill-rule="evenodd" clip-rule="evenodd" d="M20.8262 31.8376C28.0326 32.3209 36.5952 30.2109 41.2931 35.9223C45.908 41.5327 41.8781 49.851 41.7182 57.2367C41.5651 64.3114 44.9756 72.3884 40.3907 77.6114C35.7523 82.8955 27.6595 80.2518 20.8262 81.0367C12.3997 82.0045 2.90017 88.3441 -3.58871 82.6626C-10.1058 76.9563 -6.55747 66.1012 -6.35573 57.2367C-6.1619 48.7195 -8.54731 38.6777 -2.45824 32.988C3.55404 27.3701 12.7653 31.297 20.8262 31.8376Z" fill="#59C9A0"/>
</g>
<g filter="url(#filter1_f_4842_22829)">
<path fill-rule="evenodd" clip-rule="evenodd" d="M85.6679 11.5042C89.9202 17.8047 96.8388 23.8747 95.8595 30.8292C94.8975 37.6608 86.549 38.6689 81.3128 42.4316C76.2971 46.0358 72.8536 53.1584 66.3036 52.0679C59.6768 50.9646 56.3619 42.7807 51.4656 37.4623C45.4277 30.9038 34.9722 26.2794 34.7904 17.8382C34.6079 9.36021 44.4134 6.60967 50.7043 2.10185C56.7487 -2.22933 62.2108 -9.52865 70.043 -7.42241C77.7765 -5.34274 80.9113 4.45655 85.6679 11.5042Z" fill="#D4F5D0"/>
</g>
</g>
</g>
<defs>
<filter id="filter0_f_4842_22829" x="-27.5" y="10" width="91" height="95" filterUnits="userSpaceOnUse" color-interpolation-filters="sRGB">
<feFlood flood-opacity="0" result="BackgroundImageFix"/>
<feBlend mode="normal" in="SourceGraphic" in2="BackgroundImageFix" result="shape"/>
<feGaussianBlur stdDeviation="10" result="effect1_foregroundBlur_4842_22829"/>
</filter>
<filter id="filter1_f_4842_22829" x="14.7871" y="-27.7959" width="101.166" height="99.9766" filterUnits="userSpaceOnUse" color-interpolation-filters="sRGB">
<feFlood flood-opacity="0" result="BackgroundImageFix"/>
<feBlend mode="normal" in="SourceGraphic" in2="BackgroundImageFix" result="shape"/>
<feGaussianBlur stdDeviation="10" result="effect1_foregroundBlur_4842_22829"/>
</filter>
<clipPath id="clip0_4842_22829">
<rect width="80" height="80" fill="white"/>
</clipPath>
</defs>
</svg>
