<svg width="17" height="16" viewBox="0 0 17 16" fill="none" xmlns="http://www.w3.org/2000/svg">
<g id="fluent:money-16-regular">
<path id="Vector" d="M9.01172 7C9.01172 7.53043 8.801 8.03914 8.42593 8.41421C8.05086 8.78929 7.54215 9 7.01172 9C6.48129 9 5.97258 8.78929 5.59751 8.41421C5.22243 8.03914 5.01172 7.53043 5.01172 7C5.01172 6.46957 5.22243 5.96086 5.59751 5.58579C5.97258 5.21071 6.48129 5 7.01172 5C7.54215 5 8.05086 5.21071 8.42593 5.58579C8.801 5.96086 9.01172 6.46957 9.01172 7ZM8.01172 7C8.01172 6.73478 7.90636 6.48043 7.71883 6.29289C7.53129 6.10536 7.27694 6 7.01172 6C6.7465 6 6.49215 6.10536 6.30461 6.29289C6.11708 6.48043 6.01172 6.73478 6.01172 7C6.01172 7.26522 6.11708 7.51957 6.30461 7.70711C6.49215 7.89464 6.7465 8 7.01172 8C7.27694 8 7.53129 7.89464 7.71883 7.70711C7.90636 7.51957 8.01172 7.26522 8.01172 7ZM1.01172 4.25C1.01172 3.56 1.57172 3 2.26172 3H11.7617C12.4517 3 13.0117 3.56 13.0117 4.25V9.75C13.0117 10.44 12.4517 11 11.7617 11H2.26172C1.57172 11 1.01172 10.44 1.01172 9.75V4.25ZM2.26172 4C2.19541 4 2.13183 4.02634 2.08494 4.07322C2.03806 4.12011 2.01172 4.1837 2.01172 4.25V5H2.51172C2.64433 5 2.7715 4.94732 2.86527 4.85355C2.95904 4.75979 3.01172 4.63261 3.01172 4.5V4H2.26172ZM2.01172 9.75C2.01172 9.888 2.12372 10 2.26172 10H3.01172V9.5C3.01172 9.36739 2.95904 9.24021 2.86527 9.14645C2.7715 9.05268 2.64433 9 2.51172 9H2.01172V9.75ZM4.01172 9.5V10H10.0117V9.5C10.0117 9.10218 10.1698 8.72064 10.4511 8.43934C10.7324 8.15804 11.1139 8 11.5117 8H12.0117V6H11.5117C11.1139 6 10.7324 5.84196 10.4511 5.56066C10.1698 5.27936 10.0117 4.89782 10.0117 4.5V4H4.01172V4.5C4.01172 4.89782 3.85368 5.27936 3.57238 5.56066C3.29107 5.84196 2.90954 6 2.51172 6H2.01172V8H2.51172C2.90954 8 3.29107 8.15804 3.57238 8.43934C3.85368 8.72064 4.01172 9.10218 4.01172 9.5ZM11.0117 10H11.7617C11.828 10 11.8916 9.97366 11.9385 9.92678C11.9854 9.87989 12.0117 9.8163 12.0117 9.75V9H11.5117C11.3791 9 11.2519 9.05268 11.1582 9.14645C11.0644 9.24021 11.0117 9.36739 11.0117 9.5V10ZM12.0117 5V4.25C12.0117 4.1837 11.9854 4.12011 11.9385 4.07322C11.8916 4.02634 11.828 4 11.7617 4H11.0117V4.5C11.0117 4.63261 11.0644 4.75979 11.1582 4.85355C11.2519 4.94732 11.3791 5 11.5117 5H12.0117ZM4.51172 13C4.19494 13.0001 3.88625 12.8999 3.6299 12.7138C3.37356 12.5277 3.18271 12.2652 3.08472 11.964C3.22339 11.988 3.36572 12 3.51172 12H11.7617C12.3585 12 12.9308 11.7629 13.3527 11.341C13.7747 10.919 14.0117 10.3467 14.0117 9.75V5.085C14.3043 5.18844 14.5576 5.38008 14.7367 5.63351C14.9158 5.88694 15.0119 6.18967 15.0117 6.5V9.75C15.0117 10.1768 14.9277 10.5994 14.7643 10.9937C14.601 11.388 14.3616 11.7463 14.0598 12.0481C13.758 12.3499 13.3997 12.5893 13.0054 12.7526C12.6111 12.9159 12.1885 13 11.7617 13H4.51172Z" fill="black" fill-opacity="0.5"/>
</g>
</svg>
