<svg xmlns="http://www.w3.org/2000/svg" width="31" height="31" viewBox="0 0 31 31" fill="none">
<path d="M15.5 0.352539C23.7845 0.352539 30.5 7.06804 30.5 15.3525C30.5 23.637 23.7845 30.3525 15.5 30.3525C7.2155 30.3525 0.5 23.637 0.5 15.3525C0.5 7.06804 7.2155 0.352539 15.5 0.352539ZM22.163 9.35254C21.5915 9.36304 20.714 9.66304 16.4945 11.3955C13.5327 12.632 10.5792 13.888 7.634 15.1635C6.914 15.447 6.539 15.723 6.5045 15.993C6.4385 16.512 7.1945 16.6725 8.1455 16.9785C8.921 17.2275 9.965 17.5185 10.508 17.5305C11 17.541 11.549 17.34 12.155 16.9305C16.295 14.1705 18.4295 12.777 18.5645 12.747C18.659 12.726 18.7895 12.699 18.8795 12.777C18.968 12.855 18.959 13.002 18.9485 13.0425C18.8735 13.359 14.987 16.8495 14.7635 17.079L14.6555 17.187C13.8305 18.0015 12.998 18.534 14.435 19.4685C15.734 20.313 16.49 20.8515 17.825 21.7185C18.68 22.2705 19.3505 22.926 20.2325 22.8465C20.639 22.809 21.0575 22.4325 21.272 21.3075C21.7745 18.6525 22.7645 12.8955 22.9925 10.5225C23.0063 10.3257 22.9977 10.1279 22.967 9.93304C22.9485 9.77568 22.8714 9.63107 22.751 9.52804C22.5695 9.38104 22.2875 9.35104 22.163 9.35254Z" fill="currentColor"/>
</svg>