<svg xmlns="http://www.w3.org/2000/svg" width="25" height="24" viewBox="0 0 25 24" fill="none">
<path d="M13.4531 4H22.4531M13.4531 8H22.4531M2.45312 12H22.4531M13.4531 20H22.4531M13.4531 16H22.4531M8.45312 8.5L7.16713 5.5M7.16713 5.5L6.03912 2.868C6.02045 2.81967 5.99805 2.77286 5.97213 2.728C5.93273 2.66777 5.8808 2.61676 5.81987 2.57844C5.75895 2.54013 5.69047 2.51542 5.61912 2.506C5.58112 2.5 5.53913 2.5 5.45312 2.5C5.36812 2.5 5.32513 2.5 5.28713 2.506C5.21586 2.5153 5.14744 2.53986 5.08652 2.578C5.0256 2.61613 4.97362 2.66696 4.93412 2.727C4.9082 2.77186 4.8858 2.81867 4.86713 2.867L3.73913 5.5M7.16713 5.5H3.73913M3.73913 5.5L2.45312 8.5M8.45312 21.5L7.16713 18.5M7.16713 18.5L6.03912 15.868C6.01265 15.773 5.95864 15.6879 5.8839 15.6234C5.80916 15.559 5.71704 15.5182 5.61912 15.506C5.58112 15.5 5.53913 15.5 5.45312 15.5C5.36812 15.5 5.32513 15.5 5.28713 15.506C5.18921 15.5182 5.09709 15.559 5.02235 15.6234C4.94761 15.6879 4.8936 15.773 4.86713 15.868L3.73913 18.5M7.16713 18.5H3.73913M3.73913 18.5L2.45312 21.5" stroke="currentColor" stroke-width="1.5" stroke-linecap="round" stroke-linejoin="round"/>
</svg>