<svg xmlns="http://www.w3.org/2000/svg" width="25" height="24" viewBox="0 0 25 24" fill="none">
<path d="M8.20312 9C9.03155 9 9.70312 8.32843 9.70312 7.5C9.70312 6.67157 9.03155 6 8.20312 6C7.3747 6 6.70312 6.67157 6.70312 7.5C6.70312 8.32843 7.3747 9 8.20312 9Z" stroke="currentColor" stroke-width="1.5" stroke-linecap="round" stroke-linejoin="round"/>
<path d="M3.20312 12C3.20312 7.522 3.20312 5.282 4.59413 3.891C5.98513 2.5 8.22412 2.5 12.7031 2.5C17.1811 2.5 19.4211 2.5 20.8121 3.891C22.2031 5.282 22.2031 7.521 22.2031 12C22.2031 16.478 22.2031 18.718 20.8121 20.109C19.4211 21.5 17.1821 21.5 12.7031 21.5C8.22512 21.5 5.98513 21.5 4.59413 20.109C3.20312 18.718 3.20312 16.479 3.20312 12Z" stroke="currentColor" stroke-width="1.5" stroke-linecap="round" stroke-linejoin="round"/>
<path d="M5.70312 21.0002C10.0751 15.7752 14.9771 8.88416 22.2011 13.5422" stroke="currentColor" stroke-width="1.5" stroke-linecap="round" stroke-linejoin="round"/>
</svg>
