<svg width="24" height="24" viewBox="0 0 24 24" fill="none" xmlns="http://www.w3.org/2000/svg">
<path fill-rule="evenodd" clip-rule="evenodd" d="M21.28 9.21219C21.34 9.40205 21.472 9.5608 21.6478 9.6543C21.8236 9.7478 22.0291 9.76859 22.22 9.71219C22.62 9.59219 22.84 9.17219 22.72 8.77219C22.56 8.24219 22.36 7.72219 22.12 7.22219C22.0787 7.1323 22.0198 7.05154 21.9469 6.98464C21.8741 6.91773 21.7886 6.86601 21.6955 6.8325C21.6024 6.79899 21.5036 6.78435 21.4048 6.78945C21.3059 6.79455 21.2091 6.81927 21.12 6.86219C20.75 7.04219 20.58 7.48219 20.76 7.86219C20.96 8.30219 21.14 8.75219 21.28 9.21219ZM19.25 5.63219C19.4 5.81219 19.62 5.90219 19.83 5.90219C20 5.90219 20.17 5.85219 20.31 5.73219C20.62 5.46219 20.67 4.99219 20.4 4.67219C20.23 4.47219 20.06 4.29219 19.88 4.11219C19.7 3.93219 19.52 3.76219 19.34 3.60219C19.2667 3.53607 19.181 3.48513 19.0879 3.45233C18.9948 3.41953 18.8961 3.40552 18.7975 3.4111C18.6989 3.41668 18.6024 3.44174 18.5136 3.48484C18.4248 3.52794 18.3454 3.58822 18.28 3.66219C18 3.97219 18.03 4.45219 18.34 4.72219C18.5 4.86219 18.66 5.01219 18.82 5.17219C18.97 5.31219 19.11 5.47219 19.25 5.63219ZM16.405 3.29219H16.41H16.4H16.405ZM16.09 3.22219C16.188 3.27219 16.296 3.29219 16.405 3.29219C16.5754 3.29212 16.7408 3.23416 16.874 3.12782C17.0071 3.02147 17.1002 2.87304 17.138 2.70685C17.1758 2.54066 17.156 2.36657 17.0818 2.21311C17.0077 2.05964 16.8837 1.93591 16.73 1.86219C16.19 1.60219 15.7 1.41219 15.21 1.27219C15.019 1.21649 14.8138 1.23894 14.6394 1.33458C14.465 1.43022 14.3357 1.59123 14.28 1.78219C14.2243 1.97314 14.2467 2.1784 14.3424 2.35281C14.438 2.52722 14.599 2.65649 14.79 2.71219C15.2 2.83219 15.62 3.00219 16.09 3.22219ZM12 22.7422C6.07 22.7422 1.25 17.9222 1.25 11.9922C1.25 6.06219 6.07 1.24219 12 1.24219C12.41 1.24219 12.75 1.58219 12.75 1.99219C12.75 2.40219 12.41 2.74219 12 2.74219C6.9 2.74219 2.75 6.89219 2.75 11.9922C2.75 17.0922 6.9 21.2422 12 21.2422C17.1 21.2422 21.25 17.0922 21.25 11.9922C21.25 11.5822 21.59 11.2422 22 11.2422C22.41 11.2422 22.75 11.5822 22.75 11.9922C22.75 17.9222 17.93 22.7422 12 22.7422ZM16 12.7422H12C11.59 12.7422 11.25 12.4022 11.25 11.9922V5.99219C11.25 5.58219 11.59 5.24219 12 5.24219C12.41 5.24219 12.75 5.58219 12.75 5.99219V11.2422H16C16.41 11.2422 16.75 11.5822 16.75 11.9922C16.75 12.4022 16.41 12.7422 16 12.7422Z" fill="black" fill-opacity="0.5"/>
</svg>
