<svg width="24" height="24" viewBox="0 0 24 24" fill="none" xmlns="http://www.w3.org/2000/svg">
<g id="hugeicons:apple-reminder">
<g id="Group">
<path id="Vector" d="M2.5 12C2.5 7.522 2.5 5.282 3.891 3.891C5.282 2.5 7.521 2.5 12 2.5C16.478 2.5 18.718 2.5 20.109 3.891C21.5 5.282 21.5 7.521 21.5 12C21.5 16.478 21.5 18.718 20.109 20.109C18.718 21.5 16.479 21.5 12 21.5C7.522 21.5 5.282 21.5 3.891 20.109C2.5 18.718 2.5 16.479 2.5 12Z" stroke="#334155" stroke-width="1.5" stroke-linecap="round" stroke-linejoin="round"/>
<path id="Vector_2" d="M11 7.5H17M11 12H17M11 16.5H17M8 7.5C8 7.63261 7.94732 7.75979 7.85355 7.85355C7.75979 7.94732 7.63261 8 7.5 8C7.36739 8 7.24021 7.94732 7.14645 7.85355C7.05268 7.75979 7 7.63261 7 7.5C7 7.36739 7.05268 7.24021 7.14645 7.14645C7.24021 7.05268 7.36739 7 7.5 7C7.63261 7 7.75979 7.05268 7.85355 7.14645C7.94732 7.24021 8 7.36739 8 7.5ZM8 12C8 12.1326 7.94732 12.2598 7.85355 12.3536C7.75979 12.4473 7.63261 12.5 7.5 12.5C7.36739 12.5 7.24021 12.4473 7.14645 12.3536C7.05268 12.2598 7 12.1326 7 12C7 11.8674 7.05268 11.7402 7.14645 11.6464C7.24021 11.5527 7.36739 11.5 7.5 11.5C7.63261 11.5 7.75979 11.5527 7.85355 11.6464C7.94732 11.7402 8 11.8674 8 12ZM8 16.5C8 16.6326 7.94732 16.7598 7.85355 16.8536C7.75979 16.9473 7.63261 17 7.5 17C7.36739 17 7.24021 16.9473 7.14645 16.8536C7.05268 16.7598 7 16.6326 7 16.5C7 16.3674 7.05268 16.2402 7.14645 16.1464C7.24021 16.0527 7.36739 16 7.5 16C7.63261 16 7.75979 16.0527 7.85355 16.1464C7.94732 16.2402 8 16.3674 8 16.5Z" stroke="#334155" stroke-width="1.5" stroke-linecap="round" stroke-linejoin="round"/>
</g>
</g>
</svg>
