<svg width="16" height="16" viewBox="0 0 16 16" fill="none" xmlns="http://www.w3.org/2000/svg">
<path d="M9 7C9 7.53043 8.78929 8.03914 8.41421 8.41421C8.03914 8.78929 7.53043 9 7 9C6.46957 9 5.96086 8.78929 5.58579 8.41421C5.21071 8.03914 5 7.53043 5 7C5 6.46957 5.21071 5.96086 5.58579 5.58579C5.96086 5.21071 6.46957 5 7 5C7.53043 5 8.03914 5.21071 8.41421 5.58579C8.78929 5.96086 9 6.46957 9 7ZM8 7C8 6.73478 7.89464 6.48043 7.70711 6.29289C7.51957 6.10536 7.26522 6 7 6C6.73478 6 6.48043 6.10536 6.29289 6.29289C6.10536 6.48043 6 6.73478 6 7C6 7.26522 6.10536 7.51957 6.29289 7.70711C6.48043 7.89464 6.73478 8 7 8C7.26522 8 7.51957 7.89464 7.70711 7.70711C7.89464 7.51957 8 7.26522 8 7ZM1 4.25C1 3.56 1.56 3 2.25 3H11.75C12.44 3 13 3.56 13 4.25V9.75C13 10.44 12.44 11 11.75 11H2.25C1.56 11 1 10.44 1 9.75V4.25ZM2.25 4C2.1837 4 2.12011 4.02634 2.07322 4.07322C2.02634 4.12011 2 4.1837 2 4.25V5H2.5C2.63261 5 2.75979 4.94732 2.85355 4.85355C2.94732 4.75979 3 4.63261 3 4.5V4H2.25ZM2 9.75C2 9.888 2.112 10 2.25 10H3V9.5C3 9.36739 2.94732 9.24021 2.85355 9.14645C2.75979 9.05268 2.63261 9 2.5 9H2V9.75ZM4 9.5V10H10V9.5C10 9.10218 10.158 8.72064 10.4393 8.43934C10.7206 8.15804 11.1022 8 11.5 8H12V6H11.5C11.1022 6 10.7206 5.84196 10.4393 5.56066C10.158 5.27936 10 4.89782 10 4.5V4H4V4.5C4 4.89782 3.84196 5.27936 3.56066 5.56066C3.27936 5.84196 2.89782 6 2.5 6H2V8H2.5C2.89782 8 3.27936 8.15804 3.56066 8.43934C3.84196 8.72064 4 9.10218 4 9.5ZM11 10H11.75C11.8163 10 11.8799 9.97366 11.9268 9.92678C11.9737 9.87989 12 9.8163 12 9.75V9H11.5C11.3674 9 11.2402 9.05268 11.1464 9.14645C11.0527 9.24021 11 9.36739 11 9.5V10ZM12 5V4.25C12 4.1837 11.9737 4.12011 11.9268 4.07322C11.8799 4.02634 11.8163 4 11.75 4H11V4.5C11 4.63261 11.0527 4.75979 11.1464 4.85355C11.2402 4.94732 11.3674 5 11.5 5H12ZM4.5 13C4.18322 13.0001 3.87453 12.8999 3.61818 12.7138C3.36184 12.5277 3.17099 12.2652 3.073 11.964C3.21167 11.988 3.354 12 3.5 12H11.75C12.3467 12 12.919 11.7629 13.341 11.341C13.7629 10.919 14 10.3467 14 9.75V5.085C14.2926 5.18844 14.5459 5.38008 14.725 5.63351C14.9041 5.88694 15.0002 6.18967 15 6.5V9.75C15 10.1768 14.9159 10.5994 14.7526 10.9937C14.5893 11.388 14.3499 11.7463 14.0481 12.0481C13.7463 12.3499 13.388 12.5893 12.9937 12.7526C12.5994 12.9159 12.1768 13 11.75 13H4.5Z" fill="currentColor"/>
</svg>
