<svg width="19" height="15" viewBox="0 0 19 15" fill="none" xmlns="http://www.w3.org/2000/svg">
<path d="M5.66728 14.8294C12.4757 14.8294 16.2001 9.18807 16.2001 4.30446C16.2001 4.1466 16.2001 3.98648 16.1934 3.82862C16.9185 3.30371 17.5443 2.65384 18.0415 1.90945C17.3642 2.2081 16.6464 2.40492 15.9115 2.49355C16.6856 2.03082 17.2654 1.30277 17.5431 0.444709C16.8158 0.875589 16.0197 1.17807 15.1898 1.33889C14.6319 0.744675 13.8935 0.351026 13.0892 0.218917C12.2849 0.0868074 11.4594 0.223612 10.7407 0.608139C10.022 0.992666 9.45014 1.60346 9.11372 2.3459C8.77729 3.08834 8.69508 3.921 8.8798 4.71491C7.408 4.64111 5.96814 4.25876 4.65363 3.59266C3.33911 2.92656 2.17928 1.99159 1.24937 0.848387C0.777295 1.66373 0.633227 2.62818 0.846424 3.54589C1.05962 4.4636 1.6141 5.26577 2.39726 5.7895C1.8104 5.76956 1.23643 5.61197 0.72166 5.32944V5.38019C0.722672 6.23432 1.01856 7.0619 1.55932 7.72305C2.10008 8.38421 2.85253 8.83837 3.68949 9.00878C3.3718 9.0963 3.04363 9.13993 2.71412 9.13845C2.48182 9.13916 2.24998 9.11764 2.02178 9.07418C2.25833 9.80944 2.71894 10.4523 3.33908 10.9127C3.95923 11.3731 4.70785 11.628 5.4801 11.6417C4.16821 12.6721 2.54769 13.2309 0.879523 13.2282C0.585583 13.2295 0.291847 13.2125 0 13.1775C1.6931 14.2569 3.65938 14.83 5.66728 14.8294Z" fill="#090909"/>
</svg>
