<svg xmlns="http://www.w3.org/2000/svg" width="32" height="26" viewBox="0 0 32 26" fill="none">
<path d="M10.1652 25.3535C21.7766 25.3535 28.1285 15.7325 28.1285 7.40377C28.1285 7.13454 28.1285 6.86147 28.1169 6.59224C29.3535 5.69704 30.4208 4.58872 31.2688 3.31921C30.1136 3.82854 28.8895 4.16421 27.6362 4.31535C28.9564 3.52621 29.9452 2.28455 30.4188 0.821173C29.1784 1.55602 27.8208 2.07187 26.4054 2.34615C25.4538 1.33275 24.1947 0.661402 22.8229 0.436097C21.4512 0.210792 20.0434 0.444104 18.8177 1.09989C17.592 1.75568 16.6167 2.79735 16.043 4.06355C15.4692 5.32975 15.329 6.7498 15.644 8.10376C13.1339 7.9779 10.6783 7.32583 8.43651 6.18983C6.19467 5.05384 4.21665 3.4593 2.63074 1.50962C1.82564 2.90015 1.57993 4.54497 1.94353 6.11007C2.30712 7.67517 3.25276 9.04323 4.5884 9.93643C3.58753 9.90242 2.60866 9.63366 1.73075 9.15182V9.23836C1.73248 10.695 2.2371 12.1064 3.15933 13.234C4.08156 14.3616 5.36483 15.1361 6.79222 15.4267C6.25042 15.576 5.69075 15.6504 5.12878 15.6479C4.7326 15.6491 4.33722 15.6124 3.94803 15.5383C4.35146 16.7922 5.137 17.8886 6.19462 18.6738C7.25225 19.459 8.52899 19.8937 9.84602 19.9171C7.60866 21.6743 4.84494 22.6274 1.99998 22.6228C1.49868 22.6249 0.99773 22.596 0.5 22.5362C3.38749 24.3771 6.74087 25.3546 10.1652 25.3535Z" fill="currentColor"/>
</svg>