<svg xmlns="http://www.w3.org/2000/svg" width="33" height="26" viewBox="0 0 33 26" fill="none">
<path d="M27.8671 2.92636C25.7404 1.95036 23.4963 1.25377 21.1908 0.853963C21.1699 0.850445 21.1484 0.853483 21.1293 0.86266C21.1102 0.871837 21.0945 0.886701 21.0842 0.905209C20.7951 1.41767 20.4754 2.08797 20.2519 2.61273C17.7667 2.23558 15.2388 2.23558 12.7536 2.61273C12.5043 2.02816 12.2224 1.45808 11.909 0.905209C11.8985 0.886904 11.8827 0.872211 11.8637 0.863063C11.8447 0.853916 11.8233 0.850744 11.8025 0.853963C9.49637 1.25163 7.25179 1.94858 5.12609 2.92636C5.1079 2.9333 5.09269 2.94635 5.08305 2.96326C0.831656 9.31575 -0.334709 15.5124 0.237199 21.6312C0.239249 21.6599 0.257697 21.6886 0.280246 21.7071C2.7559 23.5409 5.52498 24.9411 8.4694 25.8478C8.49019 25.8543 8.51253 25.8541 8.53317 25.8471C8.55381 25.8401 8.57168 25.8267 8.58419 25.8088C9.21554 24.9479 9.7772 24.0398 10.261 23.0846C10.2711 23.0649 10.2745 23.0425 10.2708 23.0207C10.2671 22.9989 10.2565 22.9789 10.2405 22.9636C10.2299 22.9536 10.2173 22.946 10.2036 22.9411C9.32042 22.6017 8.46508 22.1939 7.64536 21.7214C7.62246 21.7085 7.60543 21.6872 7.5978 21.662C7.59017 21.6368 7.59252 21.6097 7.60436 21.5862C7.61134 21.5709 7.62188 21.5575 7.63511 21.5472C7.8073 21.4181 7.97948 21.2828 8.14347 21.1475C8.15796 21.1358 8.17534 21.1283 8.19376 21.1258C8.21217 21.1233 8.23093 21.1258 8.24801 21.1331C13.6166 23.5848 19.4279 23.5848 24.7309 21.1331C24.7486 21.1255 24.768 21.1228 24.7872 21.1253C24.8063 21.1278 24.8244 21.1355 24.8395 21.1475C25.0035 21.2828 25.1757 21.4181 25.3479 21.5472C25.3618 21.5574 25.373 21.5709 25.3805 21.5865C25.3879 21.6021 25.3914 21.6193 25.3906 21.6365C25.3898 21.6538 25.3847 21.6706 25.3758 21.6854C25.3669 21.7002 25.3545 21.7126 25.3397 21.7214C24.5218 22.1982 23.6654 22.6055 22.7794 22.9391C22.7653 22.9442 22.7524 22.9523 22.7418 22.963C22.7312 22.9736 22.723 22.9864 22.7179 23.0005C22.7132 23.0142 22.7113 23.0288 22.7123 23.0432C22.7134 23.0577 22.7174 23.0717 22.7241 23.0846C23.216 24.0378 23.7797 24.9479 24.3988 25.8088C24.4113 25.8267 24.4292 25.8401 24.4498 25.8471C24.4704 25.8541 24.4928 25.8543 24.5136 25.8478C27.4629 24.9439 30.2365 23.5436 32.715 21.7071C32.7274 21.6985 32.7378 21.6872 32.7452 21.6741C32.7527 21.661 32.7571 21.6463 32.7581 21.6312C33.4427 14.5572 31.6122 8.41176 27.9081 2.96531C27.9044 2.95631 27.8988 2.9482 27.8918 2.94149C27.8847 2.93478 27.8763 2.92963 27.8671 2.92636ZM11.0625 17.9046C9.44513 17.9046 8.11477 16.4205 8.11477 14.6003C8.11477 12.7779 9.42053 11.2939 11.0625 11.2939C12.7167 11.2939 14.0347 12.7902 14.0101 14.6003C14.0101 16.4205 12.7044 17.9046 11.0625 17.9046ZM21.9595 17.9046C20.3442 17.9046 19.0118 16.4205 19.0118 14.6003C19.0118 12.7779 20.3175 11.2939 21.9595 11.2939C23.6137 11.2939 24.9338 12.7902 24.9071 14.6003C24.9071 16.4205 23.6137 17.9046 21.9595 17.9046Z" fill="currentColor"/>
</svg>