<svg width="81" height="80" viewBox="0 0 81 80" fill="none" xmlns="http://www.w3.org/2000/svg">
<mask id="mask0_1234_10319" style="mask-type:alpha" maskUnits="userSpaceOnUse" x="7" y="6" width="67" height="68">
<g clip-path="url(#paint0_diamond_1234_10319_clip_path)" data-figma-skip-parse="true"><g transform="matrix(-0.052 -0.0535 0.0535 -0.052 69.5 70)"><rect x="0" y="0" width="1255.83" height="696.482" fill="url(#paint0_diamond_1234_10319)" opacity="1" shape-rendering="crispEdges"/><rect x="0" y="0" width="1255.83" height="696.482" transform="scale(1 -1)" fill="url(#paint0_diamond_1234_10319)" opacity="1" shape-rendering="crispEdges"/><rect x="0" y="0" width="1255.83" height="696.482" transform="scale(-1 1)" fill="url(#paint0_diamond_1234_10319)" opacity="1" shape-rendering="crispEdges"/><rect x="0" y="0" width="1255.83" height="696.482" transform="scale(-1)" fill="url(#paint0_diamond_1234_10319)" opacity="1" shape-rendering="crispEdges"/></g></g><path d="M64.1654 16.332C51.1654 3.33203 29.832 3.33203 16.832 16.332C3.83203 29.332 3.83203 50.6654 16.832 63.6654C29.832 76.6654 50.832 76.6654 63.832 63.6654C76.832 50.6654 77.1654 29.332 64.1654 16.332ZM49.832 53.9987L40.4987 44.6654L31.1654 53.9987L26.4987 49.332L35.832 39.9987L26.4987 30.6654L31.1654 25.9987L40.4987 35.332L49.832 25.9987L54.4987 30.6654L45.1654 39.9987L54.4987 49.332L49.832 53.9987Z" data-figma-gradient-fill="{&#34;type&#34;:&#34;GRADIENT_DIAMOND&#34;,&#34;stops&#34;:[{&#34;color&#34;:{&#34;r&#34;:0.36078432202339172,&#34;g&#34;:0.60000002384185791,&#34;b&#34;:0.95686274766921997,&#34;a&#34;:1.0},&#34;position&#34;:0.0},{&#34;color&#34;:{&#34;r&#34;:0.83137255907058716,&#34;g&#34;:0.96078431606292725,&#34;b&#34;:0.81568628549575806,&#34;a&#34;:1.0},&#34;position&#34;:0.53800743818283081},{&#34;color&#34;:{&#34;r&#34;:0.017811624333262444,&#34;g&#34;:0.0011643629986792803,&#34;b&#34;:1.0,&#34;a&#34;:1.0},&#34;position&#34;:1.0}],&#34;stopsVar&#34;:[{&#34;color&#34;:{&#34;r&#34;:0.36078432202339172,&#34;g&#34;:0.60000002384185791,&#34;b&#34;:0.95686274766921997,&#34;a&#34;:1.0},&#34;position&#34;:0.0},{&#34;color&#34;:{&#34;r&#34;:0.83137255907058716,&#34;g&#34;:0.96078431606292725,&#34;b&#34;:0.81568628549575806,&#34;a&#34;:1.0},&#34;position&#34;:0.53800743818283081},{&#34;color&#34;:{&#34;r&#34;:0.017811624333262444,&#34;g&#34;:0.0011643629986792803,&#34;b&#34;:1.0,&#34;a&#34;:1.0},&#34;position&#34;:1.0}],&#34;transform&#34;:{&#34;m00&#34;:-104.00002288818359,&#34;m01&#34;:107.00000762939453,&#34;m02&#34;:68.000007629394531,&#34;m10&#34;:-107.00000762939453,&#34;m11&#34;:-104.00003051757812,&#34;m12&#34;:175.50003051757812},&#34;opacity&#34;:1.0,&#34;blendMode&#34;:&#34;NORMAL&#34;,&#34;visible&#34;:true}"/>
</mask>
<g mask="url(#mask0_1234_10319)">
<circle cx="40.5" cy="40.5" r="33.5" fill="#5C99F4"/>
<g filter="url(#filter0_f_1234_10319)">
<path fill-rule="evenodd" clip-rule="evenodd" d="M21.3262 31.8376C28.5326 32.3209 37.0952 30.2109 41.7931 35.9223C46.408 41.5327 42.3781 49.851 42.2182 57.2367C42.0651 64.3114 45.4756 72.3884 40.8907 77.6114C36.2523 82.8955 28.1595 80.2518 21.3262 81.0367C12.8997 82.0045 3.40017 88.3441 -3.08871 82.6626C-9.60582 76.9563 -6.05747 66.1012 -5.85573 57.2367C-5.6619 48.7195 -8.04731 38.6777 -1.95824 32.988C4.05404 27.3701 13.2653 31.297 21.3262 31.8376Z" fill="#D4F5D0"/>
</g>
<g filter="url(#filter1_f_1234_10319)">
<path fill-rule="evenodd" clip-rule="evenodd" d="M86.1679 11.5042C90.4202 17.8047 97.3388 23.8747 96.3595 30.8292C95.3975 37.6608 87.049 38.6689 81.8128 42.4316C76.7971 46.0358 73.3536 53.1584 66.8036 52.0679C60.1768 50.9646 56.8619 42.7807 51.9656 37.4623C45.9277 30.9038 35.4722 26.2794 35.2904 17.8382C35.1079 9.36021 44.9134 6.60967 51.2043 2.10185C57.2487 -2.22933 62.7108 -9.52865 70.543 -7.42241C78.2765 -5.34274 81.4113 4.45655 86.1679 11.5042Z" fill="#0500FF"/>
</g>
</g>
<defs>
<clipPath id="paint0_diamond_1234_10319_clip_path"><path d="M64.1654 16.332C51.1654 3.33203 29.832 3.33203 16.832 16.332C3.83203 29.332 3.83203 50.6654 16.832 63.6654C29.832 76.6654 50.832 76.6654 63.832 63.6654C76.832 50.6654 77.1654 29.332 64.1654 16.332ZM49.832 53.9987L40.4987 44.6654L31.1654 53.9987L26.4987 49.332L35.832 39.9987L26.4987 30.6654L31.1654 25.9987L40.4987 35.332L49.832 25.9987L54.4987 30.6654L45.1654 39.9987L54.4987 49.332L49.832 53.9987Z"/></clipPath><filter id="filter0_f_1234_10319" x="-27" y="10" width="91" height="95" filterUnits="userSpaceOnUse" color-interpolation-filters="sRGB">
<feFlood flood-opacity="0" result="BackgroundImageFix"/>
<feBlend mode="normal" in="SourceGraphic" in2="BackgroundImageFix" result="shape"/>
<feGaussianBlur stdDeviation="10" result="effect1_foregroundBlur_1234_10319"/>
</filter>
<filter id="filter1_f_1234_10319" x="15.2871" y="-27.7959" width="101.166" height="99.9761" filterUnits="userSpaceOnUse" color-interpolation-filters="sRGB">
<feFlood flood-opacity="0" result="BackgroundImageFix"/>
<feBlend mode="normal" in="SourceGraphic" in2="BackgroundImageFix" result="shape"/>
<feGaussianBlur stdDeviation="10" result="effect1_foregroundBlur_1234_10319"/>
</filter>
<linearGradient id="paint0_diamond_1234_10319" x1="0" y1="0" x2="500" y2="500" gradientUnits="userSpaceOnUse">
<stop stop-color="#5C99F4"/>
<stop offset="0.538007" stop-color="#D4F5D0"/>
<stop offset="1" stop-color="#0500FF"/>
</linearGradient>
</defs>
</svg>
