<svg xmlns="http://www.w3.org/2000/svg" width="25" height="25" viewBox="0 0 25 25" fill="none">
<path d="M4.25001 18.1709C2.94898 16.441 2.2469 14.3344 2.25001 12.1699C2.25001 6.64692 6.72701 2.16992 12.25 2.16992C17.773 2.16992 22.25 6.64692 22.25 12.1699C22.25 14.4219 21.506 16.4999 20.25 18.1709" stroke="#5C99F4" stroke-width="1.5" stroke-linecap="round" stroke-linejoin="round"/>
<path d="M7.778 16.1701C7.00579 15.3068 6.49997 14.2384 6.32158 13.094C6.1432 11.9495 6.29989 10.7779 6.77274 9.72053C7.24558 8.66316 8.01437 7.76527 8.98629 7.13522C9.95822 6.50518 11.0917 6.16992 12.25 6.16992C13.4083 6.16992 14.5418 6.50518 15.5137 7.13522C16.4856 7.76527 17.2544 8.66316 17.7273 9.72053C18.2001 10.7779 18.3568 11.9495 18.1784 13.094C18 14.2384 17.4942 15.3068 16.722 16.1701M12.25 12.1701V22.1701M9.25 22.1701H15.25" stroke="#5C99F4" stroke-width="1.5" stroke-linecap="round" stroke-linejoin="round"/>
</svg>