<svg width="16" height="16" viewBox="0 0 16 16" fill="none" xmlns="http://www.w3.org/2000/svg">
<g clip-path="url(#clip0_1417_11971)">
<path d="M2.10468 7.3335C1.50903 8.24467 1.24511 9.33307 1.35726 10.4159C1.46941 11.4987 1.9508 12.5099 2.72055 13.2796C3.4903 14.0494 4.50151 14.5308 5.58431 14.6429C6.66711 14.7551 7.75551 14.4911 8.66668 13.8955M9.33335 12.0002C10.7478 12.0002 12.1044 11.4383 13.1046 10.4381C14.1048 9.43787 14.6667 8.08132 14.6667 6.66683C14.6667 5.25234 14.1048 3.89579 13.1046 2.89559C12.1044 1.8954 10.7478 1.3335 9.33335 1.3335C7.91886 1.3335 6.56231 1.8954 5.56211 2.89559C4.56192 3.89579 4.00002 5.25234 4.00002 6.66683C4.00002 8.08132 4.56192 9.43787 5.56211 10.4381C6.56231 11.4383 7.91886 12.0002 9.33335 12.0002Z" stroke="currentColor" stroke-linecap="round" stroke-linejoin="round"/>
<path d="M10.5146 5.47026C10.3706 4.86226 9.63729 4.3136 8.75662 4.7236C7.87595 5.13426 7.73595 6.4556 9.06795 6.5956C9.66995 6.65893 10.0626 6.52226 10.4213 6.9096C10.7813 7.29693 10.848 8.37493 9.92929 8.6656C9.01062 8.95626 8.10129 8.50226 8.00195 7.8576M9.32462 4.00293V4.58293M9.32462 8.75493V9.33626" stroke="currentColor" stroke-linecap="round" stroke-linejoin="round"/>
</g>
<defs>
<clipPath id="clip0_1417_11971">
<rect width="16" height="16" fill="white"/>
</clipPath>
</defs>
</svg>
