<svg xmlns="http://www.w3.org/2000/svg" width="10" height="10" viewBox="0 0 10 10" fill="none">
  <path
    d="M9.64284 9.26758L0.357165 9.26758C0.295296 9.26758 0.234486 9.25201 0.180695 9.22238C0.126904 9.19275 0.0819756 9.15009 0.0503129 9.09857C0.0186502 9.04706 0.00133898 8.98845 7.52782e-05 8.9285C-0.00118842 8.86854 0.0136388 8.8093 0.0431042 8.75657L4.68594 0.448917C4.71658 0.394071 4.76193 0.348268 4.81722 0.316348C4.8725 0.284428 4.93565 0.267578 5 0.267578C5.06435 0.267578 5.1275 0.284428 5.18278 0.316348C5.23806 0.348268 5.28342 0.394071 5.31406 0.448917L9.9569 8.75657C9.98636 8.8093 10.0012 8.86854 9.99993 8.9285C9.99866 8.98845 9.98135 9.04706 9.94969 9.09857C9.91802 9.15009 9.8731 9.19275 9.81931 9.22238C9.76551 9.25201 9.70471 9.26758 9.64284 9.26758Z"
    fill="currentColor" />
</svg>
