<svg width="23" height="18" viewBox="0 0 23 18" fill="none" xmlns="http://www.w3.org/2000/svg">
<path fill-rule="evenodd" clip-rule="evenodd" d="M23 10.416C23 10.8302 22.6642 11.166 22.25 11.166H20.75V12.666C20.75 13.0802 20.4142 13.416 20 13.416C19.5858 13.416 19.25 13.0802 19.25 12.666V11.166H17.75C17.3358 11.166 17 10.8302 17 10.416C17 10.0018 17.3358 9.66602 17.75 9.66602H19.25V8.16602C19.25 7.7518 19.5858 7.41602 20 7.41602C20.4142 7.41602 20.75 7.7518 20.75 8.16602V9.66602H22.25C22.6642 9.66602 23 10.0018 23 10.416ZM17.5747 15.9332C17.8413 16.2506 17.8002 16.7241 17.4828 16.9907C17.1654 17.2574 16.692 17.2162 16.4253 16.8988C14.5391 14.6526 11.9459 13.416 9.125 13.416C6.30406 13.416 3.71094 14.6526 1.82469 16.8988C1.55804 17.216 1.08479 17.2569 0.767656 16.9902C0.450524 16.7236 0.4096 16.2503 0.67625 15.9332C2.07687 14.2663 3.81875 13.0823 5.75469 12.4485C3.33911 10.944 2.21327 8.02069 2.99567 5.28457C3.77807 2.54844 6.27921 0.662266 9.125 0.662266C11.9708 0.662266 14.4719 2.54844 15.2543 5.28457C16.0367 8.02069 14.9109 10.944 12.4953 12.4485C14.4313 13.0823 16.1731 14.2663 17.5747 15.9332ZM9.125 11.916C11.8174 11.916 14 9.7334 14 7.04102C14 4.34863 11.8174 2.16602 9.125 2.16602C6.43261 2.16602 4.25 4.34863 4.25 7.04102C4.2531 9.73212 6.4339 11.9129 9.125 11.916Z" fill="currentColor"/>
</svg>
