<svg width="16" height="16" viewBox="0 0 16 16" fill="none" xmlns="http://www.w3.org/2000/svg">
<g clip-path="url(#clip0_1329_10546)">
<path d="M12.6607 12.6668H12.6673H12.6607ZM12.6607 12.6668C12.246 13.0782 11.494 12.9762 10.966 12.9762C10.318 12.9762 10.006 13.1028 9.54398 13.5648C9.15065 13.9582 8.62332 14.6668 8.00065 14.6668C7.37798 14.6668 6.85065 13.9582 6.45732 13.5648C5.99465 13.1028 5.68265 12.9762 5.03532 12.9762C4.50798 12.9762 3.75532 13.0788 3.33998 12.6668C2.92198 12.2522 3.02465 11.4962 3.02465 10.9655C3.02465 10.2942 2.87798 9.9855 2.39998 9.50816C1.68932 8.7975 1.33398 8.4415 1.33398 8.00016C1.33398 7.55883 1.68932 7.20283 2.40065 6.49216C2.82732 6.0655 3.02465 5.64283 3.02465 5.03483C3.02465 4.5075 2.92198 3.75483 3.33398 3.3395C3.74865 2.9215 4.50465 3.02416 5.03532 3.02416C5.64332 3.02416 6.06598 2.82616 6.49265 2.3995C7.20332 1.68883 7.55932 1.3335 8.00065 1.3335C8.44198 1.3335 8.79798 1.68883 9.50865 2.40016C9.93532 2.82683 10.358 3.02416 10.966 3.02416C11.4933 3.02416 12.246 2.9215 12.6613 3.3335C13.0793 3.74816 12.9767 4.50416 12.9767 5.03483C12.9767 5.70616 13.1233 6.01483 13.6013 6.49216C14.312 7.20283 14.6673 7.55883 14.6673 8.00016C14.6673 8.4415 14.312 8.7975 13.6007 9.50816C13.1233 9.98616 12.9767 10.2948 12.9767 10.9655C12.9767 11.4962 13.0787 12.2522 12.6607 12.6668Z" fill="#5C99F4"/>
<path d="M12.6607 12.6668H12.6673M12.6607 12.6668C12.246 13.0782 11.494 12.9762 10.966 12.9762C10.318 12.9762 10.006 13.1028 9.54398 13.5648C9.15065 13.9582 8.62332 14.6668 8.00065 14.6668C7.37798 14.6668 6.85065 13.9582 6.45732 13.5648C5.99465 13.1028 5.68265 12.9762 5.03532 12.9762C4.50798 12.9762 3.75532 13.0788 3.33998 12.6668C2.92198 12.2522 3.02465 11.4962 3.02465 10.9655C3.02465 10.2942 2.87798 9.9855 2.39998 9.50816C1.68932 8.7975 1.33398 8.4415 1.33398 8.00016C1.33398 7.55883 1.68932 7.20283 2.40065 6.49216C2.82732 6.0655 3.02465 5.64283 3.02465 5.03483C3.02465 4.5075 2.92198 3.75483 3.33398 3.3395C3.74865 2.9215 4.50465 3.02416 5.03532 3.02416C5.64332 3.02416 6.06598 2.82616 6.49265 2.3995C7.20332 1.68883 7.55932 1.3335 8.00065 1.3335C8.44198 1.3335 8.79798 1.68883 9.50865 2.40016C9.93532 2.82683 10.358 3.02416 10.966 3.02416C11.4933 3.02416 12.246 2.9215 12.6613 3.3335C13.0793 3.74816 12.9767 4.50416 12.9767 5.03483C12.9767 5.70616 13.1233 6.01483 13.6013 6.49216C14.312 7.20283 14.6673 7.55883 14.6673 8.00016C14.6673 8.4415 14.312 8.7975 13.6007 9.50816C13.1233 9.98616 12.9767 10.2948 12.9767 10.9655C12.9767 11.4962 13.0787 12.2522 12.6607 12.6668Z" stroke="#88BBF3" stroke-linecap="round" stroke-linejoin="round"/>
<path d="M6 8.5955C6 8.5955 6.8 9.03016 7.2 9.66683C7.2 9.66683 8.4 7.16683 10 6.3335" fill="#5C99F4"/>
<path d="M6 8.5955C6 8.5955 6.8 9.03016 7.2 9.66683C7.2 9.66683 8.4 7.16683 10 6.3335" stroke="white" stroke-linecap="round" stroke-linejoin="round"/>
</g>
<defs>
<clipPath id="clip0_1329_10546">
<rect width="16" height="16" fill="white"/>
</clipPath>
</defs>
</svg>
