<svg width="16" height="16" viewBox="0 0 16 16" fill="none" xmlns="http://www.w3.org/2000/svg">
<g id="carbon:chart-radar">
<path id="Vector" d="M8 1L1 6.5L4 15H12L15 6.5L8 1ZM9.291 10.6325L6.298 11.2975L5.5865 7.3855L8.0415 5.2805L10.7625 7.3215L9.291 10.6325ZM9.39 11.635L10.663 14H5.337L6.232 12.3365L9.39 11.635ZM4.795 6.747L2.87 6.3025L7.5 2.6645V4.4285L4.795 6.747ZM8.5 4.375V2.665L13.13 6.3025L11.555 6.666L8.5 4.375ZM2.307 7.199L4.634 7.736L5.376 11.818L4.507 13.432L2.307 7.199ZM11.493 13.432L10.2045 11.0395L11.708 7.657L13.693 7.199L11.493 13.432Z" fill="#999999"/>
</g>
</svg>
