<svg xmlns="http://www.w3.org/2000/svg" width="31" height="31" viewBox="0 0 31 31" fill="none">
<path fill-rule="evenodd" clip-rule="evenodd" d="M0.5 15.3525C0.5 7.06861 7.21607 0.352539 15.5 0.352539C23.7839 0.352539 30.5 7.06861 30.5 15.3525C30.5 23.6365 23.7839 30.3525 15.5 30.3525C7.21607 30.3525 0.5 23.6365 0.5 15.3525ZM15.5 3.2221C8.80089 3.2221 3.36957 8.65343 3.36957 15.3525C3.36957 22.0517 8.80089 27.483 15.5 27.483C22.1991 27.483 27.6304 22.0517 27.6304 15.3525C27.6304 8.65343 22.1991 3.2221 15.5 3.2221Z" fill="currentColor"/>
<path fill-rule="evenodd" clip-rule="evenodd" d="M9.15152 5.0639C10.6023 2.45215 12.8156 0.352539 15.5 0.352539C18.1844 0.352539 20.3977 2.45215 21.8485 5.0639C23.3453 7.75856 24.2828 11.3954 24.2828 15.3525C24.2828 19.3097 23.3453 22.9465 21.8485 25.6412C20.3977 28.2529 18.1844 30.3525 15.5 30.3525C12.8156 30.3525 10.6023 28.2529 9.15152 25.6412C7.6547 22.9465 6.71717 19.3097 6.71717 15.3525C6.71717 11.3954 7.6547 7.75856 9.15152 5.0639ZM11.6601 6.45732C10.4296 8.67239 9.58674 11.8181 9.58674 15.3525C9.58674 18.8869 10.4296 22.0327 11.6601 24.2478C12.9365 26.5457 14.3973 27.483 15.5 27.483C16.6027 27.483 18.0635 26.5457 19.3399 24.2478C20.5704 22.0327 21.4133 18.8869 21.4133 15.3525C21.4133 11.8181 20.5704 8.67239 19.3399 6.45732C18.0635 4.15935 16.6027 3.2221 15.5 3.2221C14.3973 3.2221 12.9365 4.15935 11.6601 6.45732Z" fill="currentColor"/>
<path fill-rule="evenodd" clip-rule="evenodd" d="M5.2864 5.73909C5.74514 5.09297 6.6408 4.94107 7.28692 5.39981C9.5378 6.99791 12.387 7.96145 15.5 7.96145C18.613 7.96145 21.4622 6.99791 23.7131 5.39981C24.3592 4.94107 25.2549 5.09297 25.7136 5.73909C26.1723 6.38521 26.0204 7.28088 25.3743 7.73962C22.6374 9.68282 19.2074 10.831 15.5 10.831C11.7926 10.831 8.36263 9.68282 5.62569 7.73962C4.97957 7.28088 4.82766 6.38521 5.2864 5.73909Z" fill="currentColor"/>
<path fill-rule="evenodd" clip-rule="evenodd" d="M5.62569 22.9655C8.36263 21.0223 11.7926 19.8741 15.5 19.8741C19.2074 19.8741 22.6374 21.0223 25.3743 22.9655C26.0204 23.4242 26.1723 24.3199 25.7136 24.966C25.2549 25.6121 24.3592 25.764 23.7131 25.3053C21.4622 23.7072 18.613 22.7436 15.5 22.7436C12.387 22.7436 9.5378 23.7072 7.28692 25.3053C6.6408 25.764 5.74514 25.6121 5.2864 24.966C4.82766 24.3199 4.97957 23.4242 5.62569 22.9655Z" fill="currentColor"/>
<path fill-rule="evenodd" clip-rule="evenodd" d="M14.0652 28.9178V1.78732H16.9348V28.9178H14.0652Z" fill="currentColor"/>
<path fill-rule="evenodd" clip-rule="evenodd" d="M1.93478 13.9178H29.0652V16.7873H1.93478V13.9178Z" fill="currentColor"/>
</svg>