<svg width="24" height="24" viewBox="0 0 24 24" fill="none" xmlns="http://www.w3.org/2000/svg">
 
<path id="Vector" d="M9.50214 14.4999L14.5021 9.49994M16.8481 14.6099L19.4581 11.9999C19.9477 11.5104 20.3361 10.9292 20.601 10.2895C20.866 9.64987 21.0023 8.9643 21.0023 8.27194C21.0023 7.57959 20.866 6.89402 20.601 6.25436C20.3361 5.61471 19.9477 5.03351 19.4581 4.54394C18.9686 4.05438 18.3874 3.66603 17.7477 3.40108C17.1081 3.13612 16.4225 2.99976 15.7301 2.99976C15.0378 2.99976 14.3522 3.13612 13.7126 3.40108C13.0729 3.66603 12.4917 4.05438 12.0021 4.54394L9.39214 7.15394M14.6121 16.8459L12.0021 19.4559C11.5126 19.9455 10.9314 20.3339 10.2917 20.5988C9.65207 20.8638 8.96649 21.0001 8.27414 21.0001C7.58179 21.0001 6.89621 20.8638 6.25656 20.5988C5.61691 20.3339 5.03571 19.9455 4.54614 19.4559C4.05657 18.9664 3.66823 18.3852 3.40327 17.7455C3.13832 17.1059 3.00195 16.4203 3.00195 15.7279C3.00195 15.0356 3.13832 14.35 3.40327 13.7104C3.66823 13.0707 4.05657 12.4895 4.54614 11.9999L7.15614 9.38994" stroke="currentColor"  stroke-width="1.5" stroke-linecap="round" stroke-linejoin="round"/>
 
</svg>
